<svg width="600" height="199" viewBox="0 0 600 199" fill="none" xmlns="http://www.w3.org/2000/svg">
<rect y="51" width="600" height="148" fill="#341E13"/>
<path d="M549.017 69.3C550.917 64.4 551.917 59.2 551.717 54C555.017 51.2 567.217 48.4 567.217 48.4L566.317 43.8C561.417 44.7 551.517 43.5 550.117 43.3C548.917 39.4 547.217 35.7 544.817 32.3C546.117 28.3 551.517 23.7 551.517 23.7L548.417 20.2C545.617 22.5 542.617 24.4 539.317 25.9C537.117 23.8 534.617 21.9 532.017 20.4C531.317 16.3 535.017 4.10001 535.017 4.10001L530.617 2.60001C528.817 7.70001 522.017 16.2 522.017 16.3C518.217 15.3 514.317 14.9 510.417 15.1C507.717 11.9 506.317 4.90001 506.317 4.90001L501.717 5.80001C502.317 9.30001 502.517 12.8 502.117 16.3C498.817 17.2 495.617 18.4 492.517 20.1C488.517 18.5 479.917 9.40001 479.917 9.40001L476.417 12.5C479.617 16.1 483.217 24.6 484.017 26.5C480.917 29.6 478.317 33.2 476.417 37.2C473.017 37.3 469.617 36.8 466.417 35.7L464.917 40.2C468.017 41.3 470.917 42.8 473.717 44.6C472.817 48 472.417 51.6 472.417 55.1C468.117 57.7 457.717 60.1 457.717 60.1L458.617 64.7C463.717 64.2 468.817 64.3 473.817 65.1C475.017 69.4 476.817 73.4 479.317 77C477.717 80 475.517 82.6 472.917 84.8L476.017 88.3C478.517 86.2 481.317 84.4 484.217 82.9C488.217 86.9 493.117 89.9 498.417 91.9C499.917 96.4 499.317 107.9 499.317 107.9L504.017 108.3C504.917 103.4 506.417 98.6 508.517 94.1C513.817 94.6 519.217 94 524.317 92.3C526.417 94.9 527.917 97.8 529.017 101L533.517 99.4C532.417 96.1 531.817 92.6 531.617 89.1C536.517 86.4 540.717 82.6 544.017 78.1C548.917 78.9 558.517 84 558.517 84L560.817 79.9C556.517 77.7 550.217 70.6 549.017 69.3ZM503.417 16H503.317H503.417Z" fill="#D34839"/>
<path opacity="0.2" d="M540.317 64.7C538.317 64.1 538.017 60 536.517 54.8C536.417 54.1 536.117 53.5 535.917 52.8C535.717 52.1 535.417 51.4 535.217 50.7C534.617 49.2 534.017 47.7 533.217 46.3C530.017 39.9 524.817 34.9 518.317 32C516.817 31.3 515.317 30.7 513.817 30.2C513.117 30 512.317 29.7 511.617 29.5C510.917 29.3 510.217 29.1 509.517 29C504.217 27.7 500.117 27.6 499.417 25.7C499.217 25.2 499.317 24.6 499.617 24.1C500.017 23.4 500.617 22.7 501.317 22.2C503.717 20.5 506.417 19.3 509.317 18.9C510.317 18.7 511.217 18.6 512.217 18.5C513.217 18.4 514.317 18.4 515.417 18.4C520.417 18.6 525.417 19.9 529.817 22.3C535.017 25.1 539.317 29.2 542.217 34.2C544.817 38.5 546.317 43.4 546.717 48.4C546.817 49.5 546.817 50.6 546.817 51.6C546.817 52.6 546.717 53.5 546.517 54.5C546.217 57.4 545.117 60.2 543.517 62.7C543.017 63.4 542.417 64 541.717 64.5C541.417 64.8 540.917 64.9 540.317 64.7Z" fill="#F3B7B2"/>
<path d="M480.717 6.89999C481.317 7.49999 480.217 9.49999 478.217 11.2C477.617 11.8 476.917 12.2 476.217 12.7C475.017 13.4 474.017 13.7 473.617 13.3C473.017 12.7 474.117 10.7 476.117 8.99999C478.117 7.19999 480.117 6.29999 480.717 6.89999Z" fill="#D65B5F"/>
<path opacity="0.3" d="M476.417 12.6C477.717 11.7 478.917 10.6 479.917 9.39999C480.517 9.99999 481.217 10.7 481.917 11.5C480.417 12.4 478.817 13.1 477.117 13.5L476.417 12.6Z" fill="black"/>
<path d="M465.717 33.1C466.517 33.4 466.517 35.6 465.717 38.1C465.517 38.9 465.117 39.6 464.817 40.4C464.117 41.7 463.417 42.4 462.817 42.2C462.017 41.9 462.017 39.7 462.817 37.2C463.617 34.7 464.917 32.9 465.717 33.1Z" fill="#D65B5F"/>
<path opacity="0.3" d="M464.917 40.2C465.717 38.8 466.217 37.3 466.317 35.7C467.117 36 468.117 36.3 469.017 36.5C468.217 38 467.117 39.4 465.917 40.6L464.917 40.2Z" fill="black"/>
<path d="M455.817 58.2C456.617 58 457.817 60 458.317 62.5C458.517 63.3 458.617 64.1 458.617 64.9C458.617 66.3 458.317 67.3 457.817 67.5C457.017 67.7 455.817 65.7 455.317 63.2C454.717 60.6 455.017 58.4 455.817 58.2Z" fill="#D65B5F"/>
<path opacity="0.3" d="M458.617 64.8C458.517 63.2 458.217 61.7 457.617 60.2C458.417 60 459.417 59.8 460.417 59.5C460.417 61.3 460.217 63 459.717 64.7L458.617 64.8Z" fill="black"/>
<path d="M470.317 84.1C470.917 83.5 472.917 84.6 474.717 86.6C475.317 87.2 475.817 87.9 476.217 88.6C476.917 89.8 477.217 90.8 476.817 91.2C476.217 91.8 474.217 90.7 472.417 88.7C470.617 86.8 469.717 84.7 470.317 84.1Z" fill="#D65B5F"/>
<path opacity="0.3" d="M476.017 88.4C475.217 87 474.117 85.8 472.817 84.9C473.517 84.3 474.217 83.7 474.917 82.9C475.817 84.4 476.517 86 476.817 87.7L476.017 88.4Z" fill="black"/>
<path d="M496.917 109.3C497.017 108.4 499.117 107.9 501.817 108.1C502.617 108.2 503.417 108.3 504.217 108.5C505.617 108.9 506.517 109.4 506.417 110C506.317 110.9 504.217 111.4 501.517 111.2C498.917 111 496.817 110.1 496.917 109.3Z" fill="#D65B5F"/>
<path opacity="0.3" d="M504.017 108.4C502.517 108.1 500.917 108 499.317 108.1C499.317 107.2 499.417 106.2 499.417 105.2C501.117 105.6 502.717 106.4 504.217 107.4L504.017 108.4Z" fill="black"/>
<path d="M527.317 103.2C527.017 102.4 528.817 101 531.217 100.1C532.017 99.8 532.817 99.6 533.617 99.5C535.017 99.3 536.117 99.4 536.217 99.9C536.517 100.7 534.717 102.1 532.317 103C529.817 104 527.617 104.1 527.317 103.2Z" fill="#D65B5F"/>
<path opacity="0.3" d="M533.417 99.5C531.817 99.7 530.317 100.3 529.017 101.2C528.717 100.4 528.417 99.5 528.017 98.5C529.717 98.2 531.417 98.2 533.117 98.5L533.417 99.5Z" fill="black"/>
<path d="M558.517 86.9C557.817 86.5 558.217 84.3 559.517 82C559.917 81.3 560.417 80.6 560.917 80C561.817 78.9 562.717 78.3 563.217 78.6C563.917 79 563.517 81.2 562.217 83.5C560.917 85.8 559.217 87.3 558.517 86.9Z" fill="#D65B5F"/>
<path opacity="0.3" d="M560.717 80.1C559.717 81.4 559.017 82.8 558.417 84.3C557.617 83.9 556.717 83.4 555.817 83C556.917 81.6 558.317 80.5 559.717 79.6L560.717 80.1Z" fill="black"/>
<path opacity="0.3" d="M496.317 63.4C496.817 66.4 495.617 69.2 493.617 69.6C491.617 70 489.517 67.8 488.917 64.8C488.317 61.8 489.617 59 491.617 58.6C493.617 58.2 495.717 60.3 496.317 63.4Z" fill="black"/>
<path d="M494.317 60.5C494.817 63.5 493.617 66.3 491.617 66.7C489.617 67.1 487.517 64.9 486.917 61.9C486.317 58.9 487.617 56.1 489.617 55.7C491.717 55.3 493.817 57.5 494.317 60.5Z" fill="#D65B5F"/>
<path opacity="0.2" d="M494.317 60.5C494.817 63.5 493.617 66.3 491.617 66.7C489.617 67.1 487.517 64.9 486.917 61.9C486.317 58.9 487.617 56.1 489.617 55.7C491.717 55.3 493.817 57.5 494.317 60.5Z" fill="white"/>
<g opacity="0.3">
<g opacity="0.3">
<g opacity="0.3">
<path opacity="0.3" d="M489.117 32.1C491.517 30.2 494.517 30 495.817 31.6C497.117 33.2 496.217 36.1 493.717 38C491.317 39.9 488.317 40.1 487.017 38.5C485.817 36.9 486.717 34 489.117 32.1Z" fill="black"/>
</g>
</g>
</g>
<path d="M487.017 29.5C489.417 27.6 492.417 27.4 493.717 29C495.017 30.6 494.117 33.5 491.617 35.4C489.217 37.3 486.217 37.5 484.917 35.9C483.617 34.3 484.517 31.4 487.017 29.5Z" fill="#D65B5F"/>
<path opacity="0.2" d="M487.017 29.5C489.417 27.6 492.417 27.4 493.717 29C495.017 30.6 494.117 33.5 491.617 35.4C489.217 37.3 486.217 37.5 484.917 35.9C483.617 34.3 484.517 31.4 487.017 29.5Z" fill="white"/>
<path opacity="0.3" d="M510.117 77.9C510.517 79.9 509.117 81.8 507.117 82.2C505.117 82.6 503.217 81.2 502.817 79.2C502.417 77.2 503.817 75.3 505.817 74.9C507.817 74.6 509.717 75.9 510.117 77.9Z" fill="black"/>
<path d="M509.717 76C510.117 78 508.717 79.9 506.717 80.3C504.717 80.7 502.817 79.3 502.417 77.3C502.017 75.3 503.417 73.4 505.417 73C507.517 72.7 509.417 74 509.717 76Z" fill="#D65B5F"/>
<path opacity="0.3" d="M509.717 76C510.117 78 508.717 79.9 506.717 80.3C504.717 80.7 502.817 79.3 502.417 77.3C502.017 75.3 503.417 73.4 505.417 73C507.517 72.7 509.417 74 509.717 76Z" fill="white"/>
<path opacity="0.3" d="M523.517 34.7C525.917 34.2 528.317 35.7 528.917 38.1C529.417 40.5 527.917 42.9 525.517 43.5C523.117 44 520.717 42.5 520.117 40.1C519.617 37.6 521.117 35.2 523.517 34.7Z" fill="black"/>
<path d="M529.617 39.4C528.317 41.5 525.517 42.1 523.417 40.8C521.317 39.5 520.717 36.7 522.017 34.6C523.317 32.5 526.117 31.9 528.217 33.2C530.317 34.6 531.017 37.3 529.617 39.4Z" fill="#D65B5F"/>
<path opacity="0.3" d="M529.617 39.4C528.317 41.5 525.517 42.1 523.417 40.8C521.317 39.5 520.717 36.7 522.017 34.6C523.317 32.5 526.117 31.9 528.217 33.2C530.317 34.6 531.017 37.3 529.617 39.4Z" fill="white"/>
<path opacity="0.3" d="M529.117 78.2C529.417 79.7 528.417 81.1 526.917 81.3C525.417 81.6 524.017 80.6 523.817 79.1C523.517 77.6 524.517 76.2 526.017 76C527.517 75.7 528.917 76.7 529.117 78.2Z" fill="black"/>
<path d="M528.917 76.8C529.217 78.3 528.217 79.7 526.717 79.9C525.217 80.2 523.817 79.2 523.617 77.7C523.317 76.2 524.317 74.8 525.817 74.6C527.217 74.3 528.617 75.3 528.917 76.8Z" fill="#D65B5F"/>
<path opacity="0.3" d="M528.917 76.8C529.217 78.3 528.217 79.7 526.717 79.9C525.217 80.2 523.817 79.2 523.617 77.7C523.317 76.2 524.317 74.8 525.817 74.6C527.217 74.3 528.617 75.3 528.917 76.8Z" fill="white"/>
<path d="M569.017 50.3C568.217 50.5 567.117 48.5 566.517 46C566.317 45.2 566.217 44.4 566.217 43.6C566.217 42.2 566.517 41.2 567.017 41.1C567.817 40.9 568.917 42.9 569.517 45.4C570.117 47.9 569.817 50.2 569.017 50.3Z" fill="#D65B5F"/>
<path opacity="0.3" d="M566.317 43.8C566.417 45.4 566.717 46.9 567.317 48.4C566.517 48.6 565.517 48.8 564.517 49.1C564.517 47.4 564.717 45.6 565.217 44L566.317 43.8Z" fill="black"/>
<path d="M554.117 24.5C553.517 25.1 551.517 24 549.817 22C549.317 21.4 548.817 20.8 548.317 20.1C547.617 18.9 547.317 17.9 547.717 17.5C548.317 16.9 550.317 18 552.017 20C553.817 21.9 554.717 23.9 554.117 24.5Z" fill="#D65B5F"/>
<path opacity="0.3" d="M548.417 20.3C549.217 21.7 550.317 22.8 551.617 23.7C550.917 24.3 550.317 24.9 549.617 25.6C548.717 24.2 548.117 22.6 547.717 20.9L548.417 20.3Z" fill="black"/>
<path d="M537.617 3.6C537.317 4.4 535.117 4.4 532.617 3.6C531.817 3.3 531.117 3 530.417 2.6C529.217 1.9 528.417 1.2 528.617 0.6C528.917 -0.2 531.117 -0.2 533.617 0.6C536.117 1.4 537.917 2.8 537.617 3.6Z" fill="#D65B5F"/>
<path opacity="0.3" d="M530.617 2.70001C532.017 3.40001 533.517 3.80001 535.017 4.10001C534.817 4.90001 534.517 5.90001 534.217 6.80001C532.717 6.00001 531.317 4.90001 530.217 3.60001L530.617 2.70001Z" fill="black"/>
<path d="M508.317 3.00001C508.417 3.90001 506.517 5.00001 504.017 5.50001C503.217 5.70001 502.417 5.80001 501.617 5.80001C500.217 5.80001 499.217 5.50001 499.117 5.00001C498.917 4.20001 500.817 3.10001 503.417 2.50001C505.917 2.00001 508.117 2.20001 508.317 3.00001Z" fill="#D65B5F"/>
<path opacity="0.3" d="M501.817 5.79999C503.417 5.79999 504.917 5.49999 506.417 4.79999C506.617 5.69999 506.817 6.59999 507.117 7.49999C505.417 7.59999 503.717 7.29999 502.117 6.79999L501.817 5.79999Z" fill="black"/>
<path opacity="0.3" d="M537.117 67.1C536.217 70 533.817 71.9 531.817 71.3C529.817 70.7 529.017 67.8 529.917 64.8C530.817 61.9 533.217 60 535.217 60.6C537.217 61.3 538.117 64.1 537.117 67.1Z" fill="black"/>
<path d="M538.417 65.3C537.517 68.2 535.117 70.1 533.117 69.5C531.117 68.9 530.317 66 531.217 63C532.117 60.1 534.517 58.2 536.517 58.8C538.517 59.4 539.417 62.4 538.417 65.3Z" fill="#D65B5F"/>
<path opacity="0.3" d="M538.417 65.3C537.517 68.2 535.117 70.1 533.117 69.5C531.117 68.9 530.317 66 531.217 63C532.117 60.1 534.517 58.2 536.517 58.8C538.517 59.4 539.417 62.4 538.417 65.3Z" fill="white"/>
<path opacity="0.3" d="M517.317 52.6C517.817 55.6 515.817 58.5 512.817 59.1C509.817 59.6 506.917 57.6 506.317 54.6C505.817 51.6 507.817 48.7 510.817 48.1C513.917 47.5 516.817 49.5 517.317 52.6Z" fill="black"/>
<path d="M516.717 49.4C517.217 52.4 515.217 55.3 512.217 55.9C509.217 56.4 506.317 54.4 505.717 51.4C505.217 48.4 507.217 45.5 510.217 44.9C513.317 44.3 516.217 46.4 516.717 49.4Z" fill="#D65B5F"/>
<path opacity="0.2" d="M516.717 49.4C517.217 52.4 515.217 55.3 512.217 55.9C509.217 56.4 506.317 54.4 505.717 51.4C505.217 48.4 507.217 45.5 510.217 44.9C513.317 44.3 516.217 46.4 516.717 49.4Z" fill="white"/>
<path opacity="0.3" d="M536.917 80.1C537.217 80.5 536.817 81.4 535.817 82.8C534.217 84.7 532.317 86.2 530.317 87.5C528.917 88.4 527.417 89.2 525.817 89.9C513.617 95.2 499.617 93.5 489.017 85.6C487.617 84.6 486.417 83.5 485.217 82.2C483.517 80.5 482.017 78.5 480.917 76.3C480.217 74.7 480.017 73.7 480.417 73.4C481.317 72.8 483.917 75.3 488.417 78.2C489.517 78.9 490.817 79.7 492.217 80.5C493.617 81.2 495.117 82 496.717 82.6C503.717 85.5 511.417 86.4 518.917 85.2C520.617 84.9 522.317 84.5 523.817 84.2C525.317 83.8 526.717 83.3 528.017 82.9C533.117 81.1 536.217 79.3 536.917 80.1Z" fill="#78251D"/>
<path d="M108.661 108.76C109.422 106.797 109.823 104.714 109.743 102.631C111.065 101.51 115.952 100.388 115.952 100.388L115.591 98.5454C113.628 98.9059 109.663 98.4252 109.102 98.3451C108.621 96.7829 107.94 95.3007 106.979 93.9387C107.5 92.3364 109.663 90.4938 109.663 90.4938L108.421 89.0917C107.299 90.0131 106.097 90.7742 104.776 91.375C103.894 90.5338 102.893 89.7727 101.851 89.1718C101.571 87.5295 103.053 82.6424 103.053 82.6424L101.291 82.0415C100.569 84.0845 97.8455 87.4894 97.8455 87.5295C96.3233 87.1289 94.7611 86.9687 93.1988 87.0488C92.1173 85.7669 91.5564 82.9629 91.5564 82.9629L89.7138 83.3234C89.9541 84.7254 90.0342 86.1274 89.874 87.5295C88.5521 87.89 87.2702 88.3707 86.0285 89.0517C84.4261 88.4107 80.9812 84.7655 80.9812 84.7655L79.5791 86.0073C80.861 87.4494 82.3031 90.8543 82.6235 91.6154C81.3817 92.8572 80.3402 94.2993 79.5791 95.9016C78.2172 95.9416 76.8552 95.7414 75.5733 95.3007L74.9725 97.1033C76.2143 97.544 77.3759 98.1448 78.4976 98.8659C78.137 100.228 77.9768 101.67 77.9768 103.072C76.2543 104.113 72.0883 105.075 72.0883 105.075L72.4488 106.918C74.4918 106.717 76.5347 106.757 78.5376 107.078C79.0183 108.8 79.7394 110.403 80.7408 111.845C80.0999 113.046 79.2186 114.088 78.1771 114.969L79.4189 116.371C80.4203 115.53 81.542 114.809 82.7036 114.208C84.306 115.81 86.2688 117.012 88.3919 117.813C88.9927 119.616 88.7524 124.223 88.7524 124.223L90.6351 124.383C90.9956 122.42 91.5965 120.497 92.4377 118.695C94.5608 118.895 96.7239 118.654 98.7669 117.974C99.6081 119.015 100.209 120.177 100.65 121.459L102.452 120.818C102.012 119.496 101.771 118.094 101.691 116.692C103.654 115.61 105.336 114.088 106.658 112.285C108.621 112.606 112.467 114.649 112.467 114.649L113.388 113.006C111.666 112.125 109.142 109.281 108.661 108.76ZM90.3948 87.4093H90.3547H90.3948Z" fill="#D34839"/>
<path opacity="0.2" d="M105.176 106.918C104.375 106.677 104.255 105.035 103.654 102.952C103.614 102.671 103.494 102.431 103.414 102.151C103.333 101.87 103.213 101.59 103.133 101.309C102.893 100.709 102.652 100.108 102.332 99.5469C101.05 96.9832 98.9672 94.9803 96.3634 93.8186C95.7625 93.5382 95.1617 93.2978 94.5608 93.0975C94.2804 93.0174 93.9599 92.8972 93.6795 92.8171C93.3991 92.737 93.1187 92.6569 92.8383 92.6168C90.7152 92.0961 89.0728 92.056 88.7924 91.2949C88.7123 91.0946 88.7524 90.8543 88.8726 90.654C89.0328 90.3736 89.2731 90.0932 89.5535 89.8929C90.5149 89.2119 91.5965 88.7312 92.7582 88.571C93.1588 88.4909 93.5193 88.4508 93.9199 88.4108C94.3204 88.3707 94.7611 88.3707 95.2017 88.3707C97.2046 88.4508 99.2075 88.9716 100.97 89.933C103.053 91.0546 104.776 92.697 105.937 94.6999C106.979 96.4223 107.58 98.3852 107.74 100.388C107.78 100.829 107.78 101.269 107.78 101.67C107.78 102.071 107.74 102.431 107.66 102.832C107.54 103.993 107.099 105.115 106.458 106.116C106.258 106.397 106.017 106.637 105.737 106.837C105.617 106.958 105.416 106.998 105.176 106.918Z" fill="#F3B7B2"/>
<path d="M81.3016 83.764C81.542 84.0044 81.1013 84.8055 80.3002 85.4865C80.0598 85.7269 79.7794 85.8871 79.499 86.0874C79.0183 86.3678 78.6177 86.488 78.4575 86.3277C78.2172 86.0874 78.6578 85.2862 79.4589 84.6052C80.2601 83.8842 81.0613 83.5237 81.3016 83.764Z" fill="#D65B5F"/>
<path opacity="0.3" d="M79.5792 86.0473C80.0999 85.6868 80.5806 85.2462 80.9812 84.7655C81.2215 85.0058 81.5019 85.2862 81.7823 85.6067C81.1815 85.9672 80.5406 86.2476 79.8596 86.4078L79.5792 86.0473Z" fill="black"/>
<path d="M75.2929 94.2592C75.6134 94.3794 75.6134 95.2607 75.2929 96.2621C75.2128 96.5826 75.0525 96.863 74.9324 97.1834C74.652 97.7042 74.3716 97.9846 74.1312 97.9045C73.8108 97.7843 73.8108 96.903 74.1312 95.9016C74.4517 94.9001 74.9724 94.1791 75.2929 94.2592Z" fill="#D65B5F"/>
<path opacity="0.3" d="M74.9725 97.1034C75.293 96.5425 75.4933 95.9417 75.5333 95.3008C75.8538 95.4209 76.2544 95.5411 76.6149 95.6212C76.2944 96.2221 75.8538 96.7829 75.3731 97.2636L74.9725 97.1034Z" fill="black"/>
<path d="M71.3272 104.314C71.6477 104.234 72.1284 105.035 72.3287 106.036C72.4088 106.357 72.4488 106.677 72.4488 106.998C72.4488 107.558 72.3287 107.959 72.1284 108.039C71.8079 108.119 71.3272 107.318 71.1269 106.317C70.8866 105.275 71.0067 104.394 71.3272 104.314Z" fill="#D65B5F"/>
<path opacity="0.3" d="M72.4488 106.958C72.4088 106.317 72.2886 105.716 72.0482 105.115C72.3687 105.035 72.7693 104.955 73.1699 104.835C73.1699 105.556 73.0898 106.237 72.8895 106.918L72.4488 106.958Z" fill="black"/>
<path d="M77.1356 114.689C77.376 114.448 78.1771 114.889 78.8982 115.69C79.1385 115.931 79.3388 116.211 79.499 116.491C79.7794 116.972 79.8996 117.373 79.7394 117.533C79.499 117.773 78.6979 117.333 77.9768 116.531C77.2558 115.77 76.8953 114.929 77.1356 114.689Z" fill="#D65B5F"/>
<path opacity="0.3" d="M79.4189 116.411C79.0985 115.85 78.6578 115.37 78.1371 115.009C78.4175 114.769 78.6979 114.529 78.9783 114.208C79.3388 114.809 79.6192 115.45 79.7394 116.131L79.4189 116.411Z" fill="black"/>
<path d="M87.791 124.783C87.8311 124.423 88.6723 124.223 89.7539 124.303C90.0743 124.343 90.3948 124.383 90.7153 124.463C91.2761 124.623 91.6366 124.823 91.5966 125.064C91.5565 125.424 90.7153 125.625 89.6337 125.544C88.5922 125.464 87.751 125.104 87.791 124.783Z" fill="#D65B5F"/>
<path opacity="0.3" d="M90.6351 124.423C90.0342 124.303 89.3933 124.263 88.7524 124.303C88.7524 123.942 88.7924 123.542 88.7924 123.141C89.4734 123.301 90.1144 123.622 90.7152 124.022L90.6351 124.423Z" fill="black"/>
<path d="M99.9687 122.34C99.8485 122.019 100.57 121.459 101.531 121.098C101.851 120.978 102.172 120.898 102.492 120.858C103.053 120.778 103.494 120.818 103.534 121.018C103.654 121.338 102.933 121.899 101.972 122.26C100.97 122.66 100.089 122.7 99.9687 122.34Z" fill="#D65B5F"/>
<path opacity="0.3" d="M102.412 120.858C101.771 120.938 101.17 121.178 100.65 121.539C100.529 121.218 100.409 120.858 100.249 120.457C100.93 120.337 101.611 120.337 102.292 120.457L102.412 120.858Z" fill="black"/>
<path d="M112.467 115.81C112.186 115.65 112.347 114.769 112.867 113.848C113.028 113.567 113.228 113.287 113.428 113.046C113.789 112.606 114.149 112.365 114.349 112.486C114.63 112.646 114.47 113.527 113.949 114.448C113.428 115.37 112.747 115.971 112.467 115.81Z" fill="#D65B5F"/>
<path opacity="0.3" d="M113.348 113.086C112.947 113.607 112.667 114.168 112.427 114.769C112.106 114.609 111.746 114.408 111.385 114.248C111.826 113.687 112.387 113.247 112.947 112.886L113.348 113.086Z" fill="black"/>
<path opacity="0.3" d="M87.5507 106.397C87.751 107.599 87.2703 108.72 86.4691 108.88C85.668 109.041 84.8268 108.159 84.5864 106.958C84.3461 105.756 84.8668 104.634 85.668 104.474C86.4691 104.314 87.3103 105.155 87.5507 106.397Z" fill="black"/>
<path d="M86.7495 105.235C86.9498 106.437 86.4691 107.558 85.668 107.719C84.8668 107.879 84.0256 106.998 83.7852 105.796C83.5449 104.594 84.0656 103.473 84.8668 103.312C85.708 103.152 86.5492 104.033 86.7495 105.235Z" fill="#D65B5F"/>
<path opacity="0.2" d="M86.7495 105.235C86.9498 106.437 86.4691 107.558 85.6679 107.719C84.8668 107.879 84.0255 106.998 83.7852 105.796C83.5449 104.594 84.0656 103.473 84.8668 103.312C85.708 103.152 86.5492 104.033 86.7495 105.235Z" fill="white"/>
<g opacity="0.3">
<g opacity="0.3">
<g opacity="0.3">
<path opacity="0.3" d="M84.6665 93.8586C85.6279 93.0975 86.8296 93.0174 87.3504 93.6583C87.8711 94.2993 87.5106 95.461 86.5092 96.2221C85.5478 96.9832 84.346 97.0633 83.8253 96.4223C83.3446 95.7814 83.7051 94.6197 84.6665 93.8586Z" fill="black"/>
</g>
</g>
</g>
<path d="M83.8253 92.8171C84.7867 92.056 85.9884 91.9759 86.5092 92.6168C87.0299 93.2578 86.6694 94.4195 85.668 95.1806C84.7066 95.9417 83.5048 96.0218 82.9841 95.3808C82.4633 94.7399 82.8238 93.5782 83.8253 92.8171Z" fill="#D65B5F"/>
<path opacity="0.2" d="M83.8253 92.8171C84.7867 92.056 85.9884 91.9759 86.5092 92.6168C87.0299 93.2578 86.6694 94.4195 85.668 95.1806C84.7066 95.9417 83.5048 96.0218 82.9841 95.3808C82.4633 94.7399 82.8238 93.5782 83.8253 92.8171Z" fill="white"/>
<path opacity="0.3" d="M93.0787 112.205C93.2389 113.006 92.6781 113.767 91.8769 113.928C91.0758 114.088 90.3147 113.527 90.1544 112.726C89.9942 111.925 90.555 111.164 91.3562 111.003C92.1573 110.883 92.9184 111.404 93.0787 112.205Z" fill="black"/>
<path d="M92.9184 111.444C93.0787 112.245 92.5179 113.006 91.7167 113.167C90.9155 113.327 90.1544 112.766 89.9942 111.965C89.834 111.164 90.3948 110.403 91.1959 110.242C92.0372 110.122 92.7983 110.643 92.9184 111.444Z" fill="#D65B5F"/>
<path opacity="0.3" d="M92.9184 111.444C93.0787 112.245 92.5179 113.006 91.7167 113.167C90.9155 113.327 90.1544 112.766 89.9942 111.965C89.834 111.164 90.3948 110.403 91.1959 110.242C92.0372 110.122 92.7983 110.643 92.9184 111.444Z" fill="white"/>
<path opacity="0.3" d="M98.4464 94.9002C99.4078 94.6999 100.369 95.3008 100.61 96.2622C100.81 97.2235 100.209 98.1849 99.2476 98.4253C98.2862 98.6256 97.3248 98.0247 97.0845 97.0633C96.8842 96.0619 97.485 95.1005 98.4464 94.9002Z" fill="black"/>
<path d="M100.89 96.7829C100.369 97.6241 99.2476 97.8644 98.4064 97.3437C97.5651 96.8229 97.3248 95.7013 97.8456 94.8601C98.3663 94.0189 99.4879 93.7785 100.329 94.2993C101.17 94.8601 101.451 95.9417 100.89 96.7829Z" fill="#D65B5F"/>
<path opacity="0.3" d="M100.89 96.7829C100.369 97.6241 99.2476 97.8644 98.4064 97.3437C97.5651 96.8229 97.3248 95.7013 97.8456 94.8601C98.3663 94.0189 99.4879 93.7785 100.329 94.2993C101.17 94.8601 101.451 95.9417 100.89 96.7829Z" fill="white"/>
<path opacity="0.3" d="M100.69 112.325C100.81 112.926 100.409 113.487 99.8084 113.567C99.2075 113.687 98.6467 113.287 98.5666 112.686C98.4464 112.085 98.847 111.524 99.4479 111.444C100.049 111.324 100.61 111.724 100.69 112.325Z" fill="black"/>
<path d="M100.61 111.765C100.73 112.365 100.329 112.926 99.7283 113.006C99.1274 113.127 98.5666 112.726 98.4865 112.125C98.3663 111.524 98.7669 110.963 99.3677 110.883C99.9286 110.763 100.489 111.164 100.61 111.765Z" fill="#D65B5F"/>
<path opacity="0.3" d="M100.61 111.765C100.73 112.365 100.329 112.926 99.7283 113.006C99.1274 113.127 98.5666 112.726 98.4865 112.125C98.3663 111.524 98.7669 110.963 99.3677 110.883C99.9286 110.763 100.489 111.164 100.61 111.765Z" fill="white"/>
<path d="M116.673 101.149C116.352 101.229 115.912 100.428 115.671 99.4267C115.591 99.1063 115.551 98.7858 115.551 98.4654C115.551 97.9045 115.671 97.504 115.872 97.4639C116.192 97.3838 116.633 98.1849 116.873 99.1864C117.113 100.188 116.993 101.109 116.673 101.149Z" fill="#D65B5F"/>
<path opacity="0.3" d="M115.591 98.5454C115.631 99.1863 115.751 99.7872 115.992 100.388C115.671 100.468 115.271 100.548 114.87 100.668C114.87 99.9875 114.95 99.2665 115.151 98.6255L115.591 98.5454Z" fill="black"/>
<path d="M110.704 90.8143C110.464 91.0546 109.663 90.614 108.982 89.8128C108.781 89.5725 108.581 89.3321 108.381 89.0517C108.1 88.571 107.98 88.1704 108.14 88.0102C108.381 87.7699 109.182 88.2105 109.863 89.0117C110.584 89.7728 110.945 90.5739 110.704 90.8143Z" fill="#D65B5F"/>
<path opacity="0.3" d="M108.421 89.1318C108.741 89.6926 109.182 90.1333 109.703 90.4938C109.422 90.7341 109.182 90.9745 108.902 91.2549C108.541 90.6941 108.301 90.0531 108.14 89.3722L108.421 89.1318Z" fill="black"/>
<path d="M104.095 82.4421C103.974 82.7626 103.093 82.7626 102.092 82.4421C101.771 82.322 101.491 82.2018 101.21 82.0416C100.73 81.7612 100.409 81.4808 100.489 81.2404C100.61 80.9199 101.491 80.9199 102.492 81.2404C103.494 81.5609 104.215 82.1217 104.095 82.4421Z" fill="#D65B5F"/>
<path opacity="0.3" d="M101.291 82.0816C101.851 82.362 102.452 82.5223 103.053 82.6424C102.973 82.9629 102.853 83.3635 102.733 83.724C102.132 83.4035 101.571 82.9629 101.13 82.4422L101.291 82.0816Z" fill="black"/>
<path d="M92.3577 82.2018C92.3977 82.5623 91.6366 83.0029 90.6352 83.2032C90.3147 83.2834 89.9942 83.3234 89.6738 83.3234C89.113 83.3234 88.7124 83.2032 88.6723 83.0029C88.5922 82.6825 89.3533 82.2418 90.3948 82.0015C91.3963 81.8012 92.2775 81.8813 92.3577 82.2018Z" fill="#D65B5F"/>
<path opacity="0.3" d="M89.7538 83.3234C90.3948 83.3234 90.9956 83.2033 91.5965 82.9229C91.6766 83.2834 91.7567 83.6439 91.8769 84.0044C91.1959 84.0445 90.5149 83.9243 89.874 83.724L89.7538 83.3234Z" fill="black"/>
<path opacity="0.3" d="M103.894 107.879C103.534 109.041 102.572 109.802 101.771 109.561C100.97 109.321 100.65 108.159 101.01 106.958C101.371 105.796 102.332 105.035 103.133 105.275C103.934 105.556 104.295 106.677 103.894 107.879Z" fill="black"/>
<path d="M104.415 107.158C104.055 108.32 103.093 109.081 102.292 108.84C101.491 108.6 101.17 107.438 101.531 106.237C101.891 105.075 102.853 104.314 103.654 104.554C104.455 104.794 104.816 105.996 104.415 107.158Z" fill="#D65B5F"/>
<path opacity="0.3" d="M104.415 107.158C104.055 108.32 103.093 109.081 102.292 108.84C101.491 108.6 101.17 107.438 101.531 106.237C101.891 105.075 102.853 104.314 103.654 104.554C104.455 104.794 104.816 105.996 104.415 107.158Z" fill="white"/>
<path opacity="0.3" d="M95.9628 102.071C96.1631 103.272 95.3619 104.434 94.1602 104.674C92.9585 104.875 91.7968 104.073 91.5564 102.872C91.3561 101.67 92.1573 100.508 93.359 100.268C94.6008 100.028 95.7625 100.829 95.9628 102.071Z" fill="black"/>
<path d="M95.7224 100.789C95.9227 101.99 95.1216 103.152 93.9198 103.392C92.7181 103.593 91.5564 102.792 91.3161 101.59C91.1158 100.388 91.9169 99.2265 93.1187 98.9861C94.3605 98.7458 95.5222 99.587 95.7224 100.789Z" fill="#D65B5F"/>
<path opacity="0.2" d="M95.7224 100.789C95.9227 101.99 95.1216 103.152 93.9198 103.392C92.7181 103.593 91.5564 102.792 91.3161 101.59C91.1158 100.388 91.9169 99.2264 93.1187 98.9861C94.3605 98.7457 95.5222 99.587 95.7224 100.789Z" fill="white"/>
<path opacity="0.3" d="M103.814 113.086C103.934 113.247 103.774 113.607 103.374 114.168C102.733 114.929 101.972 115.53 101.17 116.051C100.61 116.411 100.009 116.732 99.3678 117.012C94.4807 119.135 88.8726 118.454 84.6265 115.29C84.0657 114.889 83.585 114.448 83.1043 113.928C82.4233 113.247 81.8224 112.446 81.3818 111.564C81.1014 110.923 81.0213 110.523 81.1815 110.403C81.542 110.162 82.5835 111.164 84.3861 112.325C84.8268 112.606 85.3475 112.926 85.9083 113.247C86.4691 113.527 87.07 113.848 87.7109 114.088C90.515 115.25 93.5995 115.61 96.6038 115.129C97.2848 115.009 97.9658 114.849 98.5666 114.729C99.1675 114.569 99.7283 114.368 100.249 114.208C102.292 113.487 103.534 112.766 103.814 113.086Z" fill="#78251D"/>
<path d="M465.068 175.055C465.453 174.061 465.656 173.007 465.616 171.952C466.285 171.384 468.759 170.816 468.759 170.816L468.577 169.883C467.583 170.066 465.575 169.822 465.291 169.782C465.048 168.991 464.703 168.241 464.216 167.551C464.48 166.74 465.575 165.807 465.575 165.807L464.946 165.097C464.378 165.563 463.77 165.949 463.101 166.253C462.655 165.827 462.147 165.442 461.62 165.137C461.478 164.306 462.229 161.832 462.229 161.832L461.336 161.527C460.971 162.562 459.592 164.286 459.592 164.306C458.821 164.103 458.03 164.022 457.239 164.063C456.692 163.414 456.408 161.994 456.408 161.994L455.475 162.176C455.597 162.886 455.637 163.596 455.556 164.306C454.887 164.488 454.238 164.732 453.609 165.077C452.798 164.752 451.053 162.906 451.053 162.906L450.344 163.535C450.993 164.265 451.723 165.989 451.885 166.375C451.256 167.003 450.729 167.733 450.344 168.545C449.654 168.565 448.964 168.464 448.315 168.241L448.011 169.153C448.64 169.376 449.228 169.681 449.796 170.046C449.613 170.735 449.532 171.465 449.532 172.175C448.66 172.702 446.551 173.189 446.551 173.189L446.733 174.122C447.768 174.021 448.802 174.041 449.816 174.203C450.06 175.075 450.425 175.887 450.932 176.617C450.607 177.225 450.161 177.753 449.634 178.199L450.262 178.909C450.769 178.483 451.337 178.118 451.926 177.813C452.737 178.625 453.731 179.233 454.806 179.639C455.11 180.551 454.988 182.884 454.988 182.884L455.941 182.965C456.124 181.971 456.428 180.998 456.854 180.085C457.929 180.186 459.024 180.065 460.058 179.72C460.484 180.247 460.789 180.835 461.012 181.484L461.924 181.16C461.701 180.491 461.58 179.781 461.539 179.071C462.533 178.523 463.385 177.753 464.054 176.84C465.048 177.002 466.995 178.037 466.995 178.037L467.461 177.205C466.589 176.759 465.311 175.319 465.068 175.055ZM455.82 164.245H455.799H455.82Z" fill="#D34839"/>
<path opacity="0.2" d="M463.304 174.122C462.898 174.001 462.837 173.169 462.533 172.114C462.513 171.972 462.452 171.851 462.411 171.709C462.371 171.567 462.31 171.425 462.269 171.283C462.147 170.979 462.026 170.674 461.864 170.39C461.215 169.092 460.16 168.078 458.842 167.49C458.537 167.348 458.233 167.226 457.929 167.125C457.787 167.084 457.625 167.024 457.483 166.983C457.341 166.943 457.199 166.902 457.057 166.882C455.982 166.618 455.15 166.598 455.008 166.212C454.968 166.111 454.988 165.989 455.049 165.888C455.13 165.746 455.252 165.604 455.394 165.503C455.88 165.158 456.428 164.914 457.016 164.833C457.219 164.793 457.402 164.772 457.604 164.752C457.807 164.732 458.03 164.732 458.253 164.732C459.267 164.772 460.282 165.036 461.174 165.523C462.229 166.091 463.101 166.922 463.689 167.936C464.216 168.808 464.52 169.802 464.602 170.816C464.622 171.039 464.622 171.263 464.622 171.465C464.622 171.668 464.602 171.851 464.561 172.053C464.5 172.642 464.277 173.21 463.953 173.717C463.851 173.859 463.729 173.98 463.587 174.082C463.527 174.142 463.425 174.163 463.304 174.122Z" fill="#F3B7B2"/>
<path d="M451.216 162.399C451.337 162.521 451.114 162.927 450.709 163.272C450.587 163.393 450.445 163.474 450.303 163.576C450.06 163.718 449.857 163.779 449.776 163.697C449.654 163.576 449.877 163.17 450.283 162.825C450.688 162.46 451.094 162.278 451.216 162.399Z" fill="#D65B5F"/>
<path opacity="0.3" d="M450.344 163.555C450.607 163.373 450.851 163.15 451.053 162.906C451.175 163.028 451.317 163.17 451.459 163.332C451.155 163.515 450.83 163.657 450.486 163.738L450.344 163.555Z" fill="black"/>
<path d="M448.173 167.713C448.336 167.774 448.336 168.22 448.173 168.727C448.133 168.89 448.052 169.032 447.991 169.194C447.849 169.457 447.707 169.599 447.585 169.559C447.423 169.498 447.423 169.052 447.585 168.545C447.748 168.038 448.011 167.673 448.173 167.713Z" fill="#D65B5F"/>
<path opacity="0.3" d="M448.011 169.153C448.173 168.869 448.275 168.565 448.295 168.241C448.457 168.301 448.66 168.362 448.843 168.403C448.681 168.707 448.457 168.991 448.214 169.234L448.011 169.153Z" fill="black"/>
<path d="M446.166 172.804C446.328 172.763 446.571 173.169 446.673 173.676C446.713 173.838 446.733 174.001 446.733 174.163C446.733 174.447 446.673 174.65 446.571 174.69C446.409 174.731 446.166 174.325 446.064 173.818C445.942 173.291 446.003 172.844 446.166 172.804Z" fill="#D65B5F"/>
<path opacity="0.3" d="M446.733 174.143C446.713 173.818 446.652 173.514 446.531 173.21C446.693 173.169 446.896 173.128 447.099 173.068C447.099 173.433 447.058 173.777 446.957 174.122L446.733 174.143Z" fill="black"/>
<path d="M449.106 178.057C449.228 177.935 449.634 178.158 449.999 178.564C450.121 178.686 450.222 178.828 450.303 178.97C450.445 179.213 450.506 179.416 450.425 179.497C450.303 179.619 449.897 179.395 449.532 178.99C449.167 178.604 448.985 178.179 449.106 178.057Z" fill="#D65B5F"/>
<path opacity="0.3" d="M450.263 178.929C450.1 178.645 449.877 178.402 449.614 178.219C449.755 178.097 449.897 177.976 450.039 177.813C450.222 178.118 450.364 178.442 450.425 178.787L450.263 178.929Z" fill="black"/>
<path d="M454.501 183.168C454.522 182.985 454.948 182.884 455.495 182.924C455.657 182.945 455.82 182.965 455.982 183.006C456.266 183.087 456.448 183.188 456.428 183.31C456.408 183.492 455.982 183.594 455.434 183.553C454.907 183.513 454.481 183.33 454.501 183.168Z" fill="#D65B5F"/>
<path opacity="0.3" d="M455.941 182.985C455.637 182.924 455.313 182.904 454.988 182.924C454.988 182.742 455.008 182.539 455.008 182.336C455.353 182.417 455.678 182.58 455.982 182.782L455.941 182.985Z" fill="black"/>
<path d="M460.667 181.931C460.606 181.768 460.971 181.484 461.458 181.302C461.62 181.241 461.782 181.201 461.945 181.18C462.229 181.14 462.452 181.16 462.472 181.261C462.533 181.424 462.168 181.708 461.681 181.89C461.174 182.093 460.728 182.113 460.667 181.931Z" fill="#D65B5F"/>
<path opacity="0.3" d="M461.904 181.18C461.58 181.221 461.275 181.342 461.012 181.525C460.951 181.363 460.89 181.18 460.809 180.977C461.154 180.917 461.498 180.917 461.843 180.977L461.904 181.18Z" fill="black"/>
<path d="M466.995 178.625C466.853 178.544 466.934 178.097 467.198 177.631C467.279 177.489 467.38 177.347 467.482 177.225C467.664 177.002 467.847 176.881 467.948 176.941C468.09 177.023 468.009 177.469 467.745 177.935C467.482 178.402 467.137 178.706 466.995 178.625Z" fill="#D65B5F"/>
<path opacity="0.3" d="M467.441 177.246C467.238 177.509 467.096 177.793 466.975 178.097C466.812 178.016 466.63 177.915 466.447 177.834C466.67 177.55 466.954 177.327 467.238 177.144L467.441 177.246Z" fill="black"/>
<path opacity="0.3" d="M454.38 173.859C454.481 174.467 454.238 175.035 453.832 175.116C453.426 175.197 453.001 174.751 452.879 174.142C452.757 173.534 453.021 172.966 453.426 172.885C453.832 172.804 454.258 173.23 454.38 173.859Z" fill="black"/>
<path d="M453.974 173.27C454.075 173.879 453.832 174.447 453.426 174.528C453.021 174.609 452.595 174.163 452.473 173.554C452.351 172.946 452.615 172.378 453.021 172.297C453.447 172.216 453.873 172.662 453.974 173.27Z" fill="#D65B5F"/>
<path opacity="0.2" d="M453.974 173.27C454.075 173.879 453.832 174.447 453.426 174.528C453.021 174.609 452.595 174.163 452.473 173.554C452.351 172.946 452.615 172.378 453.021 172.297C453.447 172.216 453.873 172.662 453.974 173.27Z" fill="white"/>
<g opacity="0.3">
<g opacity="0.3">
<g opacity="0.3">
<path opacity="0.3" d="M452.919 167.51C453.406 167.125 454.015 167.085 454.278 167.409C454.542 167.734 454.359 168.322 453.852 168.707C453.366 169.092 452.757 169.133 452.493 168.808C452.25 168.484 452.433 167.896 452.919 167.51Z" fill="black"/>
</g>
</g>
</g>
<path d="M452.493 166.983C452.98 166.598 453.589 166.557 453.852 166.882C454.116 167.206 453.933 167.794 453.426 168.18C452.94 168.565 452.331 168.606 452.068 168.281C451.804 167.957 451.986 167.368 452.493 166.983Z" fill="#D65B5F"/>
<path opacity="0.2" d="M452.493 166.983C452.98 166.598 453.589 166.557 453.852 166.882C454.116 167.206 453.933 167.794 453.426 168.18C452.94 168.565 452.331 168.606 452.068 168.281C451.804 167.957 451.986 167.368 452.493 166.983Z" fill="white"/>
<path opacity="0.3" d="M457.179 176.799C457.26 177.205 456.976 177.59 456.57 177.672C456.164 177.753 455.779 177.469 455.698 177.063C455.617 176.657 455.901 176.272 456.306 176.191C456.712 176.13 457.097 176.394 457.179 176.799Z" fill="black"/>
<path d="M457.097 176.414C457.179 176.82 456.895 177.205 456.489 177.286C456.083 177.367 455.698 177.083 455.617 176.678C455.536 176.272 455.82 175.887 456.225 175.806C456.651 175.745 457.037 176.008 457.097 176.414Z" fill="#D65B5F"/>
<path opacity="0.3" d="M457.097 176.414C457.179 176.82 456.895 177.205 456.489 177.286C456.083 177.367 455.698 177.083 455.617 176.678C455.536 176.272 455.82 175.887 456.225 175.806C456.651 175.745 457.037 176.008 457.097 176.414Z" fill="white"/>
<path opacity="0.3" d="M459.896 168.038C460.383 167.936 460.87 168.241 460.991 168.727C461.093 169.214 460.789 169.701 460.302 169.823C459.815 169.924 459.328 169.62 459.207 169.133C459.105 168.626 459.409 168.139 459.896 168.038Z" fill="black"/>
<path d="M461.133 168.991C460.87 169.417 460.302 169.539 459.876 169.275C459.45 169.011 459.328 168.443 459.592 168.017C459.856 167.591 460.424 167.47 460.849 167.733C461.275 168.017 461.417 168.565 461.133 168.991Z" fill="#D65B5F"/>
<path opacity="0.3" d="M461.133 168.991C460.87 169.417 460.302 169.539 459.876 169.275C459.45 169.011 459.328 168.443 459.592 168.017C459.856 167.592 460.424 167.47 460.849 167.733C461.275 168.017 461.417 168.565 461.133 168.991Z" fill="white"/>
<path opacity="0.3" d="M461.032 176.86C461.093 177.164 460.89 177.448 460.586 177.489C460.282 177.55 459.998 177.347 459.957 177.043C459.896 176.739 460.099 176.455 460.403 176.414C460.708 176.353 460.992 176.556 461.032 176.86Z" fill="black"/>
<path d="M460.991 176.576C461.052 176.881 460.85 177.164 460.545 177.205C460.241 177.266 459.957 177.063 459.917 176.759C459.856 176.455 460.059 176.171 460.363 176.13C460.647 176.069 460.931 176.272 460.991 176.576Z" fill="#D65B5F"/>
<path opacity="0.3" d="M460.991 176.576C461.052 176.881 460.85 177.164 460.545 177.205C460.241 177.266 459.957 177.063 459.917 176.759C459.856 176.455 460.059 176.171 460.363 176.13C460.647 176.069 460.931 176.272 460.991 176.576Z" fill="white"/>
<path d="M469.124 171.202C468.962 171.242 468.739 170.837 468.617 170.33C468.577 170.167 468.557 170.005 468.557 169.843C468.557 169.559 468.617 169.356 468.719 169.336C468.881 169.295 469.104 169.701 469.226 170.208C469.348 170.715 469.287 171.181 469.124 171.202Z" fill="#D65B5F"/>
<path opacity="0.3" d="M468.577 169.883C468.597 170.208 468.658 170.512 468.78 170.816C468.617 170.857 468.415 170.897 468.212 170.958C468.212 170.613 468.252 170.248 468.354 169.924L468.577 169.883Z" fill="black"/>
<path d="M466.102 165.969C465.981 166.091 465.575 165.868 465.23 165.462C465.129 165.34 465.028 165.219 464.926 165.077C464.784 164.833 464.723 164.63 464.804 164.549C464.926 164.428 465.332 164.651 465.677 165.056C466.042 165.442 466.224 165.847 466.102 165.969Z" fill="#D65B5F"/>
<path opacity="0.3" d="M464.946 165.117C465.109 165.401 465.332 165.624 465.595 165.807C465.453 165.928 465.332 166.05 465.19 166.192C465.007 165.908 464.886 165.584 464.804 165.239L464.946 165.117Z" fill="black"/>
<path d="M462.756 161.73C462.695 161.892 462.249 161.892 461.742 161.73C461.58 161.669 461.438 161.608 461.296 161.527C461.052 161.385 460.89 161.243 460.931 161.122C460.991 160.959 461.438 160.959 461.945 161.122C462.452 161.284 462.817 161.568 462.756 161.73Z" fill="#D65B5F"/>
<path opacity="0.3" d="M461.336 161.548C461.62 161.69 461.924 161.771 462.229 161.832C462.188 161.994 462.127 162.197 462.066 162.379C461.762 162.217 461.478 161.994 461.255 161.73L461.336 161.548Z" fill="black"/>
<path d="M456.813 161.608C456.834 161.791 456.448 162.014 455.941 162.115C455.779 162.156 455.617 162.176 455.455 162.176C455.171 162.176 454.968 162.115 454.948 162.014C454.907 161.852 455.292 161.629 455.82 161.507C456.327 161.406 456.773 161.446 456.813 161.608Z" fill="#D65B5F"/>
<path opacity="0.3" d="M455.495 162.176C455.82 162.176 456.124 162.115 456.428 161.974C456.469 162.156 456.509 162.339 456.57 162.521C456.225 162.541 455.88 162.481 455.556 162.379L455.495 162.176Z" fill="black"/>
<path opacity="0.3" d="M462.655 174.609C462.472 175.197 461.985 175.582 461.58 175.461C461.174 175.339 461.012 174.751 461.194 174.142C461.377 173.554 461.864 173.169 462.269 173.291C462.675 173.433 462.857 174.001 462.655 174.609Z" fill="black"/>
<path d="M462.918 174.244C462.736 174.832 462.249 175.217 461.843 175.096C461.438 174.974 461.275 174.386 461.458 173.777C461.64 173.189 462.127 172.804 462.533 172.926C462.938 173.047 463.121 173.656 462.918 174.244Z" fill="#D65B5F"/>
<path opacity="0.3" d="M462.918 174.244C462.736 174.832 462.249 175.217 461.843 175.096C461.438 174.974 461.275 174.386 461.458 173.777C461.64 173.189 462.127 172.804 462.533 172.926C462.939 173.047 463.121 173.656 462.918 174.244Z" fill="white"/>
<path opacity="0.3" d="M458.639 171.668C458.74 172.277 458.335 172.865 457.726 172.986C457.118 173.088 456.53 172.682 456.408 172.074C456.306 171.465 456.712 170.877 457.321 170.755C457.949 170.634 458.537 171.039 458.639 171.668Z" fill="black"/>
<path d="M458.517 171.019C458.619 171.628 458.213 172.216 457.604 172.337C456.996 172.439 456.408 172.033 456.286 171.425C456.185 170.816 456.59 170.228 457.199 170.106C457.828 169.985 458.416 170.411 458.517 171.019Z" fill="#D65B5F"/>
<path opacity="0.2" d="M458.517 171.019C458.619 171.628 458.213 172.216 457.604 172.337C456.996 172.439 456.408 172.033 456.286 171.425C456.185 170.816 456.59 170.228 457.199 170.106C457.828 169.985 458.416 170.411 458.517 171.019Z" fill="white"/>
<path opacity="0.3" d="M462.614 177.246C462.675 177.327 462.594 177.509 462.391 177.793C462.066 178.179 461.681 178.483 461.275 178.746C460.991 178.929 460.687 179.091 460.363 179.233C457.888 180.308 455.049 179.963 452.899 178.361C452.615 178.158 452.372 177.935 452.128 177.671C451.784 177.327 451.479 176.921 451.256 176.475C451.114 176.15 451.074 175.948 451.155 175.887C451.337 175.765 451.865 176.272 452.777 176.86C453.001 177.002 453.264 177.164 453.548 177.327C453.832 177.469 454.136 177.631 454.461 177.753C455.88 178.341 457.442 178.523 458.963 178.28C459.308 178.219 459.653 178.138 459.957 178.077C460.261 177.996 460.545 177.895 460.809 177.813C461.843 177.448 462.472 177.083 462.614 177.246Z" fill="#78251D"/>
</svg>
