<svg width="40" height="41" viewBox="0 0 40 41" fill="none" xmlns="http://www.w3.org/2000/svg">
<path d="M34.7 9.30002C41.1 17.6 39.6 29.5 31.3 35.9C23 42.3 11.1 40.8 4.70001 32.5C-1.69999 24.2 -0.19999 12.3 8.10001 5.90002C11.4 3.30002 15.5 1.90002 19.7 1.90002" stroke="#D34839" stroke-width="1.417" stroke-miterlimit="10" stroke-linecap="round" stroke-dasharray="0.2 0.2"/>
<path d="M20.9 24C20.3 24.4 19.5 24.4 18.8 24L14.1 21.1C14.1 21.1 13.7 20.8 13.7 21.4V24.3C13.7 25.8 16.5 27.5 19.9 27.5C23.3 27.5 26.1 25.9 26.1 24.3V21.3C26 20.8 25.7 21 25.7 21L20.9 24Z" stroke="#D34839" stroke-width="1.417"/>
<path d="M27.7 17.6C28 17.4 28.1 16.9 27.8 16.6L27.7 16.5L20.5 12.9C20.1 12.7 19.6 12.7 19.2 12.9L12 16.5C11.8 16.6 11.7 16.8 11.7 17C11.7 17.1 11.8 17.2 11.9 17.2L19.1 21.6C19.5 21.8 20 21.8 20.4 21.6C20.8 21.5 27.7 17.6 27.7 17.6Z" stroke="#D34839" stroke-width="1.417"/>
<path d="M28.5 23.8V18.9C28.5 18.9 28.5 18.7 28.4 18.7C28.2 18.8 28.1 18.9 27.9 19C27.8 19.1 27.8 19.2 27.8 19.3V23.7C27.8 23.7 27.8 23.8 27.7 23.8C27.3 24 27.2 24.5 27.4 25C27.6 25.4 28.1 25.5 28.6 25.3C29 25.1 29.1 24.5 28.9 24.1C28.8 24 28.7 23.9 28.6 23.8C28.6 23.9 28.5 23.9 28.5 23.8Z" fill="#D34839"/>
<path d="M24.7 3.1L27.9 6.1L32.8 1" stroke="#D34839" stroke-width="1.417" stroke-linecap="round"/>
</svg>
