<svg width="40" height="41" viewBox="0 0 40 41" fill="none" xmlns="http://www.w3.org/2000/svg">
<path d="M34.7 9.30002C41.1 17.6 39.6 29.5 31.3 35.9C23 42.3 11.1 40.8 4.69998 32.5C-1.70002 24.2 -0.20002 12.3 8.09998 5.90002C11.4 3.30002 15.5 1.90002 19.7 1.90002" stroke="#D34839" stroke-width="1.417" stroke-miterlimit="10" stroke-linecap="round" stroke-dasharray="0.2 0.2"/>
<path d="M24.7 3.1L27.9 6.1L32.7999 1" stroke="#D34839" stroke-width="1.417" stroke-linecap="round"/>
<g clip-path="url(#clip0)">
<path d="M11.7 28.6C11.3 28.6 11 28.3 11 28C11 27.9 11 27.8 11 27.8L12.5 24.2C11.5 22.8 11 21.3 11 19.7C11 17.6 11.9 15.6 13.5 14.3C15.1 12.8 17.1 12 19.3 12C21.5 12 23.6 12.8 25.2 14.2C26.8 15.6 27.6 17.6 27.7 19.6C27.7 21.1 27.2 22.5 26.4 23.7C26.2 24 25.8 24.1 25.5 23.9C25.2 23.7 25.1 23.3 25.3 23C26 22 26.4 20.8 26.4 19.6C26.4 16.1 23.3 13.2 19.4 13.2C15.5 13.2 12.4 16.1 12.4 19.6C12.4 21 12.9 22.4 13.9 23.5C13.9 23.7 14 24 13.9 24.2L12.9 26.7L15.9 25.4C16.1 25.3 16.3 25.3 16.4 25.4C18.5 26.3 20.8 26.2 22.8 25.2C23.1 25 23.5 25.2 23.7 25.5C23.9 25.8 23.7 26.2 23.4 26.4C21.1 27.5 18.5 27.7 16.2 26.7L12 28.5C11.8 28.6 11.7 28.6 11.7 28.6ZM20 22.6V19C20 18.6 19.7 18.4 19.4 18.4C19 18.4 18.7 18.7 18.7 19V22.5C18.7 22.9 19 23.1 19.3 23.1C19.7 23.2 20 22.9 20 22.6ZM19.3 16.2C19 16.2 18.7 16.4 18.7 16.8C18.7 17.2 19 17.5 19.3 17.5C19.7 17.5 20 17.2 20 16.8C20 16.4 19.7 16.2 19.3 16.2Z" fill="#D34839"/>
</g>
<defs>
<clipPath id="clip0">
<rect x="11" y="12" width="16.6" height="16.6" fill="white"/>
</clipPath>
</defs>
</svg>
