<svg width="40" height="41" viewBox="0 0 40 41" fill="none" xmlns="http://www.w3.org/2000/svg">
<path d="M34.7 9.30002C41.1 17.6 39.6 29.5 31.3 35.9C23 42.3 11.1 40.8 4.69998 32.5C-1.70002 24.2 -0.20002 12.3 8.09998 5.90002C11.4 3.30002 15.5 1.90002 19.7 1.90002" stroke="#D34839" stroke-width="1.417" stroke-miterlimit="10" stroke-linecap="round" stroke-dasharray="0.2 0.2"/>
<path d="M24.7 3.1L27.9 6.1L32.7999 1" stroke="#D34839" stroke-width="1.417" stroke-linecap="round"/>
<path d="M28 15.7C28 15.7 27.3 15.7 26.2 15.7V13.5C26.2 13.2 26 13 25.7 13C23.6 13.2 21 14.1 19.4 15.8C17.7 14.1 15 13.2 12.9 13C12.6 13 12.3 13.2 12.3 13.5V15.7C11.7 15.7 11.1 15.7 10.5 15.6C10.3 15.7 10 15.9 10 16.2V26.1C10 26.4 10.2 26.6 10.5 26.6C12.7 26.8 16.3 26.8 19 28C19.1 28.1 19.3 28.1 19.4 28C22.1 26.8 25.8 26.8 27.9 26.7C28.2 26.7 28.4 26.4 28.4 26.2V16.2C28.5 15.9 28.2 15.7 28 15.7ZM25.1 14.2V23.5C23.1 23.9 21.3 24.8 19.8 26.2V16.8C21 15.3 23.2 14.4 25.1 14.2ZM13.4 14.2C15.2 14.5 17.5 15.4 18.7 16.9V26.2C17.2 24.9 15.4 23.9 13.4 23.5V14.2ZM11.1 25.6V16.8C11.5 16.8 11.9 16.8 12.3 16.8V23.9C12.3 24.2 12.5 24.4 12.7 24.4C14.3 24.7 15.8 25.3 17.1 26.2C15.1 25.9 13.1 25.7 11.1 25.6ZM27.4 25.6C25.4 25.7 23.4 25.9 21.4 26.3C22.7 25.4 24.2 24.8 25.8 24.5C26.1 24.5 26.2 24.2 26.2 24V16.8C26.7 16.8 27.1 16.8 27.4 16.8V25.6Z" fill="#D34839"/>
</svg>
