<svg width="40" height="41" viewBox="0 0 40 41" fill="none" xmlns="http://www.w3.org/2000/svg">
<path d="M34.7 9.30002C41.1 17.6 39.6 29.5 31.3 35.9C23 42.3 11.1 40.8 4.70001 32.5C-1.69999 24.2 -0.19999 12.3 8.10001 5.90002C11.4 3.30002 15.5 1.90002 19.7 1.90002" stroke="#D34839" stroke-width="1.417" stroke-miterlimit="10" stroke-linecap="round" stroke-dasharray="0.2 0.2"/>
<path d="M21.3 13.7H13.8C12.6 13.7 11.7 14.8 11.7 16.1V22.8C11.7 24.1 12.6 25.2 13.8 25.2H25.1C26.3 25.2 27.2 24.1 27.2 22.8V19.1" stroke="#D34839" stroke-width="1.417" stroke-linecap="round"/>
<path d="M25.3 13.7L25.2 13.6C25.1 13.5 24.8 13.5 24.7 13.6L24.5 13.8L24 14.3L17.9 20.4C17.9 20.4 17.8 20.5 17.8 20.6L17.2 22.7C17.2 22.8 17.2 23 17.3 23C17.4 23.1 17.5 23.1 17.6 23.1H17.7L19.8 22.5C19.9 22.5 20 22.4 20 22.3L26.5 16C27 15.5 26.9 15.5 26.5 15L25.3 13.7Z" fill="#D34839"/>
<path d="M15.1 22.9H17.6" stroke="#D34839" stroke-linecap="round"/>
<path d="M24.7 3.1L27.9 6.1L32.8 1" stroke="#D34839" stroke-width="1.417" stroke-linecap="round"/>
</svg>
