<svg width="259" height="189" viewBox="0 0 259 189" fill="none" xmlns="http://www.w3.org/2000/svg">
<path d="M125.561 188.902C118.561 188.902 111.461 188.102 104.461 186.502C80.2614 180.902 59.6614 166.202 46.4614 145.102C45.8614 144.202 46.1614 142.902 47.0614 142.302C47.9614 141.702 49.2614 142.002 49.8614 142.902C62.4614 163.102 82.1614 177.202 105.361 182.502C128.561 187.902 152.461 183.902 172.661 171.302C192.861 158.702 206.961 139.002 212.261 115.802C217.661 92.6016 213.661 68.7016 201.061 48.5016C174.961 6.80158 119.861 -5.89842 78.1614 20.1016C70.5614 24.9016 63.6614 30.7016 57.7614 37.6016C57.0614 38.4016 55.7614 38.5016 54.9614 37.8016C54.1614 37.1016 54.0614 35.8016 54.7614 35.0016C60.8614 27.9016 68.0614 21.7016 76.0614 16.7016C119.661 -10.4984 177.161 2.80159 204.361 46.4016C217.561 67.5016 221.761 92.5016 216.161 116.702C210.561 140.902 195.861 161.502 174.761 174.702C159.761 184.102 142.861 188.902 125.561 188.902Z" fill="#EAEAEA"/>
<path d="M120.161 24.1016C79.9614 26.9016 49.7614 61.7016 52.5614 101.802C55.3614 141.902 90.1614 172.202 130.361 169.402C170.461 166.602 200.761 131.802 197.961 91.6016C195.061 51.5016 160.261 21.3016 120.161 24.1016Z" fill="#EFEFEF"/>
<path fill-rule="evenodd" clip-rule="evenodd" d="M74.7614 17.5016C71.3614 18.9016 68.5614 21.6016 66.9614 25.0016C65.7614 27.7016 65.2614 31.4016 66.5614 36.0016C68.3614 42.5016 72.9614 47.6016 78.2614 51.2016C84.6614 55.4016 92.0614 57.5016 96.6614 56.7016C97.0614 56.7016 97.4614 57.0016 97.5614 57.4016C97.5614 57.8016 97.3614 58.2016 96.9614 58.3016C92.1614 59.1016 84.2614 57.1016 77.4614 52.5016C71.8614 48.8016 66.9614 43.3016 65.0614 36.4016C63.6614 31.3016 64.1614 27.4016 65.5614 24.3016C67.3614 20.5016 70.4614 17.6016 74.3614 16.0016C74.7614 15.9016 75.1614 16.1016 75.3614 16.5016C75.3614 16.5016 75.3614 16.5016 75.3614 16.6016C75.4614 16.9016 75.1614 17.3016 74.7614 17.5016Z" fill="#341E13"/>
<path fill-rule="evenodd" clip-rule="evenodd" d="M105.761 0.301581C112.061 -0.498419 118.461 0.301581 124.361 2.60158C130.261 4.90158 135.461 8.40158 139.761 13.0016C144.661 18.3016 147.261 25.7016 148.561 33.4016C150.861 47.1016 149.061 61.7016 149.561 66.6016C149.561 67.0016 149.261 67.4016 148.861 67.5016C148.461 67.5016 148.061 67.2016 147.961 66.8016V66.7016C147.461 61.8016 149.161 47.2016 146.961 33.6016C145.761 26.1016 143.261 19.0016 138.561 14.0016C134.461 9.60158 129.361 6.10158 123.661 4.00158C118.061 1.80158 111.961 1.10158 106.061 1.80158C105.661 1.90158 105.261 1.60158 105.061 1.20158C105.061 0.801581 105.361 0.401581 105.761 0.301581Z" fill="#341E13"/>
<path fill-rule="evenodd" clip-rule="evenodd" d="M71.6614 16.3016C91.2614 1.90158 111.061 -8.39842 131.761 11.8016C153.661 33.2016 144.161 55.5016 155.361 68.1016C168.261 82.6016 168.961 90.8016 151.461 97.4016C135.561 103.302 128.461 78.0016 128.461 78.0016L98.5614 93.8016C98.5614 93.8016 92.3614 88.5016 95.5614 74.5016C101.361 49.1016 121.861 47.6016 121.161 42.7016C120.361 37.9016 109.561 42.6016 100.461 35.8016C94.5614 31.5016 88.2614 27.7016 81.7614 24.4016C81.7614 24.4016 86.2614 41.3016 90.3614 45.0016C94.6614 48.7016 46.5614 34.8016 71.6614 16.3016Z" fill="#341E13"/>
<path fill-rule="evenodd" clip-rule="evenodd" d="M87.9614 85.9016C92.5614 79.1016 97.1614 80.1016 108.761 75.0016C117.261 85.2016 129.861 72.2016 129.861 72.2016C129.861 72.2016 136.161 76.3016 160.761 85.5016C187.361 97.8016 167.761 155.902 167.761 155.902C167.761 155.902 153.261 167.502 139.061 168.802C118.861 170.702 100.461 169.702 76.4614 152.202C68.9614 146.702 66.6614 139.602 63.3614 132.402C62.3614 130.302 67.1614 128.802 67.1614 128.802C67.1614 128.802 75.1614 119.902 87.9614 85.9016Z" fill="#D34839"/>
<mask id="mask0" mask-type="alpha" maskUnits="userSpaceOnUse" x="63" y="72" width="112" height="98">
<path fill-rule="evenodd" clip-rule="evenodd" d="M87.9614 85.9016C92.5614 79.1016 97.1614 80.1016 108.761 75.0016C117.261 85.2016 129.861 72.2016 129.861 72.2016C129.861 72.2016 136.161 76.3016 160.761 85.5016C187.361 97.8016 167.761 155.902 167.761 155.902C167.761 155.902 153.261 167.502 139.061 168.802C118.861 170.702 100.461 169.702 76.4614 152.202C68.9614 146.702 66.6614 139.602 63.3614 132.402C62.3614 130.302 67.1614 128.802 67.1614 128.802C67.1614 128.802 75.1614 119.902 87.9614 85.9016Z" fill="#D34839"/>
</mask>
<g mask="url(#mask0)">
<path fill-rule="evenodd" clip-rule="evenodd" d="M140.461 131.202C153.061 132.602 162.061 144.002 160.661 156.602C159.261 169.202 147.861 178.302 135.261 176.902C122.661 175.502 113.561 164.102 114.961 151.502C116.361 138.902 127.761 129.802 140.461 131.202ZM139.161 142.602C145.461 143.302 150.061 149.002 149.361 155.402C148.661 161.702 142.961 166.302 136.561 165.602C130.261 164.902 125.661 159.202 126.361 152.802C127.061 146.402 132.761 141.902 139.161 142.602Z" fill="#9B2721"/>
<path fill-rule="evenodd" clip-rule="evenodd" d="M171.461 77.4016C179.561 78.3016 185.361 85.6016 184.461 93.7016C183.561 101.802 176.261 107.702 168.161 106.802C160.061 105.902 154.161 98.6016 155.061 90.5016C155.961 82.4016 163.261 76.5016 171.361 77.4016C171.361 77.4016 171.361 77.4016 171.461 77.4016ZM170.561 84.7016C170.661 84.7016 170.661 84.7016 170.761 84.7016C174.761 85.2016 177.561 88.8016 177.061 92.8016C176.561 96.8016 172.961 99.7016 168.961 99.3016C164.961 98.9016 162.061 95.2016 162.461 91.2016C162.861 87.1016 166.461 84.2016 170.561 84.7016Z" fill="#9B2721"/>
</g>
<path fill-rule="evenodd" clip-rule="evenodd" d="M105.961 56.9016C105.961 56.9016 125.361 43.0016 125.061 48.0016C123.861 65.2016 131.461 73.8016 131.461 73.8016C131.461 73.8016 106.861 92.6016 108.961 76.4016C109.961 68.0016 105.961 56.9016 105.961 56.9016Z" fill="#EFCFA6"/>
<path fill-rule="evenodd" clip-rule="evenodd" d="M104.761 53.6016C104.761 53.6016 120.761 41.5016 120.361 46.7016C119.161 63.9016 102.061 87.4016 104.061 71.3016C104.761 65.4016 104.961 59.5016 104.761 53.6016Z" fill="#DCB18E"/>
<path d="M131.252 84.5339L120.767 91.6992L127.932 102.184L138.417 95.019L131.252 84.5339Z" fill="#9B2721"/>
<path d="M139.447 96.9275L128.961 104.093L136.127 114.578L146.612 107.413L139.447 96.9275Z" fill="#9B2721"/>
<path d="M127.183 105.319L116.698 112.485L123.863 122.97L134.349 115.805L127.183 105.319Z" fill="#9B2721"/>
<path fill-rule="evenodd" clip-rule="evenodd" d="M81.7614 21.8016C88.2614 26.3016 95.0614 30.4016 102.061 33.9016C107.661 36.8016 119.061 40.7016 121.661 37.6016C129.461 34.2016 126.861 44.7016 125.961 47.3016C124.961 49.9016 123.261 48.0016 122.561 49.3016C118.261 57.3016 109.461 65.5016 102.061 66.4016C94.1614 66.6016 85.3614 53.0016 80.9614 37.8016C79.4614 32.5016 79.6614 26.9016 81.7614 21.8016Z" fill="#EFCFA6"/>
<path opacity="0.155" d="M111.161 34.5016C109.161 34.3016 107.361 36.6016 106.961 39.6016C106.661 42.7016 107.961 45.3016 109.961 45.5016C111.961 45.7016 113.761 43.4016 114.161 40.4016C114.461 37.4016 113.161 34.7016 111.161 34.5016Z" fill="#CE5843"/>
<path opacity="0.155" d="M87.8614 48.7016C86.2614 47.2016 83.8614 47.1016 82.6614 48.5016C81.4614 49.9016 81.7614 52.2016 83.4614 53.7016C85.1614 55.2016 87.4614 55.3016 88.6614 53.9016C89.8614 52.5016 89.5614 50.1016 87.8614 48.7016Z" fill="#CE5843"/>
<path fill-rule="evenodd" clip-rule="evenodd" d="M97.9614 57.5016C100.961 57.1016 103.461 54.8016 104.061 51.8016C104.061 51.6016 104.261 51.4016 104.561 51.4016C104.761 51.4016 104.961 51.6016 104.961 51.9016C104.761 53.6016 103.861 55.1016 102.661 56.2016C101.461 57.3016 99.8614 58.1016 98.1614 58.3016C97.8614 58.4016 97.7614 58.2016 97.6614 57.9016C97.5614 57.8016 97.7614 57.6016 97.9614 57.5016Z" fill="#DCB18E"/>
<path fill-rule="evenodd" clip-rule="evenodd" d="M122.261 44.8016C123.761 44.1016 124.261 43.3016 124.261 42.4016C124.261 41.9016 124.061 41.3016 123.861 40.9016C123.561 40.4016 123.261 40.0016 122.761 39.7016C122.661 39.6016 122.661 39.5016 122.761 39.4016C122.861 39.3016 122.961 39.3016 123.161 39.4016C123.561 39.8016 123.961 40.2016 124.261 40.7016C124.661 41.2016 124.761 41.8016 124.761 42.5016C124.761 43.4016 124.161 44.4016 122.461 45.3016C122.361 45.4016 122.161 45.3016 122.161 45.2016C121.961 45.0016 122.061 44.8016 122.261 44.8016Z" fill="#DCB18E"/>
<path fill-rule="evenodd" clip-rule="evenodd" d="M104.761 34.5016C103.461 33.7016 102.061 33.4016 100.561 33.6016C99.3614 33.7016 98.2614 34.3016 97.3614 35.1016C97.2614 35.3016 97.0614 35.3016 96.8614 35.2016C96.6614 35.1016 96.6614 34.9016 96.7614 34.7016C97.7614 33.6016 99.0614 32.9016 100.461 32.8016C102.161 32.6016 103.861 32.9016 105.261 33.9016C105.361 34.0016 105.461 34.2016 105.361 34.3016C105.361 34.3016 105.361 34.4016 105.261 34.4016C105.161 34.5016 104.861 34.6016 104.761 34.5016Z" fill="#341E13"/>
<path fill-rule="evenodd" clip-rule="evenodd" d="M89.4614 37.1016C87.9614 36.9016 86.5614 37.3016 85.2614 38.1016C84.1614 38.7016 83.3614 39.7016 83.0614 40.9016C83.0614 41.1016 82.7614 41.3016 82.5614 41.3016C82.3614 41.3016 82.1614 41.1016 82.1614 40.8016C82.5614 39.4016 83.4614 38.2016 84.7614 37.6016C86.1614 36.7016 87.8614 36.3016 89.5614 36.6016C89.7614 36.6016 89.9614 36.8016 89.8614 37.0016V37.1016C89.8614 37.0016 89.7614 37.2016 89.4614 37.1016Z" fill="#341E13"/>
<path fill-rule="evenodd" clip-rule="evenodd" d="M94.5614 49.5016C94.7614 48.5016 94.7614 47.5016 94.6614 46.5016C94.3614 44.4016 93.9614 42.3016 93.3614 40.2016C93.2614 40.0016 93.0614 39.9016 92.8614 39.9016C92.5614 39.9016 92.5614 40.1016 92.5614 40.4016C93.0614 42.4016 93.4614 44.5016 93.7614 46.6016C93.9614 47.5016 93.8614 48.5016 93.6614 49.4016C93.6614 49.5016 93.6614 49.7016 93.6614 49.8016C93.7614 50.0016 93.9614 50.1016 94.1614 50.2016C94.5614 50.3016 94.9614 50.3016 95.3614 50.2016C96.1614 50.1016 96.8614 50.0016 97.6614 49.9016C97.8614 49.8016 98.0614 49.6016 97.9614 49.4016C97.9614 49.2016 97.7614 49.1016 97.5614 49.1016H97.4614C96.6614 49.3016 95.8614 49.4016 95.0614 49.4016C95.0614 49.5016 94.7614 49.5016 94.5614 49.5016Z" fill="#DCB18E"/>
<path d="M102.761 37.6016C102.361 36.5016 101.461 35.8016 100.761 36.1016C100.061 36.4016 99.9614 37.5016 100.361 38.6016C100.761 39.7016 101.661 40.4016 102.361 40.1016C103.061 39.8016 103.261 38.7016 102.761 37.6016Z" fill="#341E13"/>
<path d="M124.861 47.1016C123.661 47.1016 122.761 48.7016 122.761 50.7016C122.761 52.6016 123.761 54.2016 124.961 54.2016C126.161 54.2016 127.061 52.6016 127.061 50.6016C127.061 48.6016 126.061 47.1016 124.861 47.1016Z" fill="white"/>
<path d="M89.8614 42.3016C89.4614 41.2016 88.5614 40.5016 87.8614 40.8016C87.1614 41.1016 87.0614 42.2016 87.4614 43.3016C87.8614 44.4016 88.7614 45.1016 89.4614 44.8016C90.1614 44.5016 90.3614 43.4016 89.8614 42.3016Z" fill="#341E13"/>
<path fill-rule="evenodd" clip-rule="evenodd" d="M124.161 126.502C118.361 120.402 112.461 115.002 110.261 110.302C107.461 104.302 107.961 102.002 103.461 90.0016C102.261 88.1016 97.9614 84.6016 96.5614 83.4016C95.1614 82.2016 93.7614 81.1016 92.1614 80.1016C91.1614 79.6016 91.3614 82.1016 92.5614 83.2016C93.5614 84.1016 95.3614 85.8016 96.6614 87.1016C98.0614 88.6016 99.2614 90.2016 100.461 91.9016C101.461 93.3016 99.4614 92.0016 98.3614 90.9016C96.7614 89.2016 94.9614 87.8016 92.9614 86.8016C90.9614 86.0016 86.7614 85.8016 85.2614 85.5016C83.8614 85.3016 84.2614 87.1016 86.0614 87.8016C87.2614 88.3016 91.5614 88.2016 93.4614 90.2016C94.8614 91.6016 97.2614 93.5016 97.5614 94.5016C98.1614 96.5016 94.3614 91.4016 91.6614 91.3016C88.3614 90.9016 87.3614 91.0016 84.7614 90.8016C85.1614 92.4016 86.4614 93.0016 91.0614 93.3016C94.0614 95.0016 95.6614 99.4016 95.6614 99.4016L91.3614 95.9016L86.5614 94.2016C86.5614 94.2016 85.9614 95.2016 87.1614 96.3016C89.1614 98.1016 92.4614 98.7016 94.3614 102.802C95.8614 106.002 97.0614 111.002 99.5614 114.102C102.361 116.702 105.261 116.802 111.061 127.802C112.761 130.902 125.561 157.002 128.061 160.602C131.161 165.802 139.361 167.702 143.661 165.802C147.461 164.502 150.061 160.102 150.561 154.902C151.061 150.002 147.961 144.902 143.661 142.402C140.461 140.602 130.661 133.402 124.161 126.502Z" fill="#EFCFA6"/>
<path fill-rule="evenodd" clip-rule="evenodd" d="M55.5614 123.702C56.6614 128.802 64.6614 142.202 76.3614 152.302C93.7614 167.302 98.5614 156.402 90.9614 145.802C81.1614 132.002 71.3614 131.502 61.9614 121.702C59.4614 117.202 54.0614 121.002 55.5614 123.702Z" fill="#EFCFA6"/>
<path fill-rule="evenodd" clip-rule="evenodd" d="M113.761 114.602L117.261 118.702L110.261 125.102C109.861 125.402 109.361 125.402 109.061 125.102L108.961 125.002C108.461 124.402 107.961 123.602 107.461 122.902C107.061 122.402 107.161 121.702 107.561 121.202L113.761 114.602Z" fill="#484442"/>
<path fill-rule="evenodd" clip-rule="evenodd" d="M115.261 113.102L118.761 117.202C118.761 117.202 115.961 121.002 114.561 122.802C114.361 123.102 113.861 123.202 113.461 123.002C113.461 123.002 113.361 123.002 113.361 122.902C113.261 122.802 113.161 122.802 113.161 122.702C112.161 121.302 110.461 118.902 109.461 117.302C109.061 116.702 109.161 115.902 109.761 115.502C109.761 115.502 109.861 115.502 109.861 115.402C109.961 115.302 109.961 115.302 110.061 115.302L115.261 113.102Z" fill="#252525"/>
<path fill-rule="evenodd" clip-rule="evenodd" d="M110.761 118.202C110.261 117.602 110.361 116.702 110.861 116.202C110.861 116.202 110.961 116.202 110.961 116.102L113.161 114.402C113.761 113.902 114.561 114.002 115.061 114.602L117.761 118.002C118.161 118.402 118.061 119.002 117.661 119.402C117.661 119.402 117.661 119.402 117.561 119.502L115.061 121.502C114.461 122.002 113.561 121.902 113.061 121.402C113.061 121.402 113.061 121.302 112.961 121.302L110.761 118.202Z" fill="#484442"/>
<path fill-rule="evenodd" clip-rule="evenodd" d="M111.661 117.902C111.161 117.302 111.261 116.402 111.761 115.902C111.761 115.902 111.861 115.902 111.861 115.802L113.361 114.602C113.961 114.102 114.761 114.202 115.261 114.802L117.261 117.302C117.661 117.702 117.561 118.302 117.161 118.702C117.161 118.702 117.161 118.702 117.061 118.802L115.361 120.202C114.761 120.702 113.861 120.602 113.361 120.102C113.361 120.102 113.361 120.002 113.261 120.002L111.661 117.902Z" fill="#68625F"/>
<path fill-rule="evenodd" clip-rule="evenodd" d="M44.8614 71.1016C44.3614 69.6016 45.0614 68.0016 46.5614 67.4016C46.7614 67.3016 46.9614 67.3016 47.1614 67.2016L72.9614 64.0016C75.0614 63.7016 77.0614 65.0016 77.7614 66.9016C80.8614 75.8016 89.3614 99.5016 92.4614 108.102C92.9614 109.402 92.2614 110.802 90.9614 111.302C90.6614 111.402 90.5614 111.402 90.2614 111.502C83.7614 111.802 69.4614 112.402 63.1614 112.802C61.3614 112.902 59.7614 111.802 59.0614 110.102C56.1614 102.102 47.9614 79.6016 44.8614 71.1016Z" fill="#DCDDE4"/>
<path fill-rule="evenodd" clip-rule="evenodd" d="M44.1614 72.2016C43.6614 70.7016 44.3614 69.1016 45.8614 68.5016C46.0614 68.4016 46.2614 68.4016 46.4614 68.3016L72.2614 65.1016C74.3614 64.8016 76.3614 66.1016 77.0614 68.0016C80.1614 76.9016 88.6614 100.602 91.7614 109.202C92.2614 110.502 91.5614 111.902 90.2614 112.402C89.9614 112.502 89.8614 112.502 89.5614 112.602C83.0614 112.902 68.7614 113.502 62.4614 113.902C60.6614 114.002 59.0614 112.902 58.3614 111.202C55.5614 103.202 47.3614 80.7016 44.1614 72.2016Z" fill="#EFEFEF"/>
<path d="M66.6614 78.5016C66.0614 76.8016 64.5614 75.8016 63.2614 76.2016C61.9614 76.6016 61.2614 78.4016 61.8614 80.1016C62.4614 81.8016 63.9614 82.8016 65.2614 82.4016C66.5614 81.9016 67.2614 80.2016 66.6614 78.5016Z" fill="#C8C8C8"/>
<path d="M20.2614 26.7016C8.26141 27.5016 -0.838587 37.9016 0.061413 49.9016C0.861413 62.0016 11.2614 71.0016 23.2614 70.2016C35.2614 69.4016 44.3614 58.9016 43.4614 46.9016C42.6614 34.9016 32.2614 25.8016 20.2614 26.7016Z" fill="#EFEFEF"/>
<path d="M31.5614 57.9016L25.7614 53.0016H14.2614C12.9614 53.0016 11.9614 52.0016 11.9614 50.7016V42.1016C11.9614 40.8016 13.0614 39.8016 14.2614 39.8016H29.1614C30.4614 39.8016 31.4614 40.9016 31.4614 42.1016V57.9016H31.5614ZM14.2614 41.3016C13.7614 41.3016 13.4614 41.7016 13.4614 42.1016V50.7016C13.4614 51.2016 13.8614 51.5016 14.2614 51.5016H25.9614C26.1614 51.5016 26.4614 51.6016 26.6614 51.7016L30.1614 54.6016V42.1016C30.1614 41.6016 29.7614 41.3016 29.3614 41.3016H14.2614Z" fill="white"/>
<path d="M25.5614 47.3016H17.9614C17.5614 47.3016 17.1614 47.7016 17.1614 48.1016C17.1614 48.5016 17.5614 48.9016 17.9614 48.9016H25.5614C25.9614 48.9016 26.3614 48.5016 26.3614 48.1016C26.3614 47.6016 25.9614 47.3016 25.5614 47.3016Z" fill="white"/>
<path d="M25.5614 44.1016H17.9614C17.5614 44.1016 17.1614 44.5016 17.1614 44.9016C17.1614 45.3016 17.5614 45.7016 17.9614 45.7016H25.5614C25.9614 45.7016 26.3614 45.3016 26.3614 44.9016C26.3614 44.5016 25.9614 44.1016 25.5614 44.1016Z" fill="white"/>
<path fill-rule="evenodd" clip-rule="evenodd" d="M185.961 80.2016C185.561 83.9016 182.261 86.5016 178.561 86.1016C174.861 85.7016 172.261 82.4016 172.661 78.7016C173.061 75.0016 176.361 72.4016 180.061 72.8016C183.761 73.2016 186.361 76.5016 185.961 80.2016ZM179.661 76.2016C179.761 76.2016 179.761 76.2016 179.661 76.2016C181.561 76.4016 182.861 78.1016 182.561 79.9016C182.361 81.7016 180.661 83.0016 178.861 82.8016C177.061 82.6016 175.761 80.9016 175.961 79.1016C176.261 77.3016 177.861 76.0016 179.661 76.2016Z" fill="white"/>
<path fill-rule="evenodd" clip-rule="evenodd" d="M258.261 13.7016C258.761 21.2016 253.061 27.8016 245.561 28.3016C238.061 28.8016 231.461 23.1016 230.961 15.6016C230.461 8.10158 236.161 1.50158 243.661 1.00158C251.161 0.501583 257.761 6.20158 258.261 13.7016ZM251.361 14.1016C251.661 17.8016 248.761 21.1016 245.061 21.3016C241.361 21.6016 238.061 18.7016 237.861 15.0016C237.561 11.3016 240.461 8.10158 244.161 7.80158C247.861 7.60158 251.061 10.4016 251.361 14.1016Z" fill="#EFEFEF"/>
<path fill-rule="evenodd" clip-rule="evenodd" d="M50.7614 112.302C50.4614 107.502 52.1614 96.7016 52.1614 96.7016C52.1614 96.7016 53.1614 91.4016 54.4614 89.0016C55.3614 87.5016 56.1614 88.6016 55.6614 91.0016C55.3614 92.8016 54.5614 97.2016 54.5614 97.2016L54.7614 103.702L57.0614 96.7016C57.0614 96.7016 60.1614 91.5016 62.4614 90.2016C63.3614 89.6016 64.0614 91.3016 62.7614 93.1016C61.9614 94.2016 59.4614 98.4016 59.4614 98.4016L58.2614 105.902L61.2614 100.402C61.2614 100.402 64.3614 96.4016 66.1614 96.0016C66.9614 95.8016 67.2614 97.2016 66.2614 98.4016C65.3614 99.6016 63.9614 100.902 62.9614 102.302C61.9614 103.902 61.1614 105.702 60.5614 107.502C60.0614 108.702 62.0614 108.202 63.1614 107.002C64.8614 105.202 66.3614 101.302 69.4614 100.802C70.3614 102.402 67.3614 104.402 66.0614 106.502C63.4614 110.902 64.5614 113.602 64.2614 115.302C63.9614 117.502 63.2614 119.602 62.0614 121.502C62.0614 121.502 66.4614 125.702 66.4614 127.102C66.4614 128.602 58.7614 126.702 57.2614 125.402C55.9614 124.402 51.0614 117.702 50.7614 112.302Z" fill="#EFCFA6"/>
</svg>
