<svg width="340" height="147" viewBox="0 0 340 147" fill="none" xmlns="http://www.w3.org/2000/svg">
<path d="M303.226 102.348H264.354V145.415H303.226V102.348Z" fill="#EFEFEF"/>
<path d="M340 128.088H301.128V171.155H340V128.088Z" fill="#EFEFEF"/>
<path d="M39.0118 128.088H0.140015V171.155H39.0118V128.088Z" fill="#EFEFEF"/>
<path d="M204.872 58.2329H237.93L268.959 78.7859V165.979L204.872 173.264V58.2329Z" fill="#EFEFEF"/>
<path d="M191.216 21.4587H139.212V173.264H191.216V21.4587Z" fill="#EFEFEF"/>
<path d="M144.763 13.6957C144.763 13.6957 92.5886 20.9799 92.5886 71.3877V173.332H144.763V13.6957Z" fill="#EFEFEF"/>
<path d="M217.605 23.1002L165.419 2.2052L167.494 173.332H217.605V23.1002Z" fill="#EFEFEF"/>
<path d="M240.586 74.5112C240.867 74.5111 241.144 74.5672 241.402 74.6762C241.661 74.7851 241.894 74.9447 242.09 75.1456C242.286 75.3464 242.439 75.5844 242.541 75.8455C242.643 76.1066 242.691 76.3855 242.684 76.6657V164.919C242.684 165.476 242.463 166.009 242.069 166.403C241.676 166.796 241.143 167.017 240.586 167.017C240.03 167.017 239.497 166.796 239.103 166.403C238.71 166.009 238.489 165.476 238.489 164.919V76.6657C238.489 76.1094 238.71 75.5759 239.103 75.1826C239.497 74.7892 240.03 74.5682 240.586 74.5682" fill="white"/>
<path d="M225.357 74.5112C225.637 74.5111 225.915 74.5672 226.173 74.6762C226.431 74.7851 226.665 74.9447 226.86 75.1456C227.056 75.3464 227.209 75.5844 227.311 75.8455C227.413 76.1066 227.462 76.3855 227.454 76.6657V164.919C227.415 165.45 227.177 165.947 226.786 166.309C226.396 166.672 225.884 166.873 225.351 166.873C224.819 166.873 224.306 166.672 223.916 166.309C223.526 165.947 223.287 165.45 223.248 164.919V76.6657C223.251 76.1084 223.474 75.5749 223.87 75.1819C224.265 74.7888 224.799 74.5682 225.357 74.5682" fill="white"/>
<path d="M150.235 27.7626C150.582 27.7595 150.926 27.8251 151.247 27.9553C151.569 28.0856 151.861 28.2781 152.108 28.5217C152.355 28.7653 152.551 29.0553 152.685 29.3749C152.82 29.6946 152.89 30.0376 152.891 30.3844V127.564C152.915 127.923 152.865 128.284 152.743 128.623C152.622 128.963 152.432 129.274 152.186 129.537C151.94 129.8 151.642 130.009 151.311 130.153C150.981 130.296 150.624 130.37 150.264 130.37C149.903 130.37 149.547 130.296 149.216 130.153C148.885 130.009 148.588 129.8 148.341 129.537C148.095 129.274 147.905 128.963 147.784 128.623C147.663 128.284 147.612 127.923 147.636 127.564V30.3844C147.636 30.0401 147.704 29.6992 147.836 29.3811C147.967 29.063 148.161 28.7739 148.404 28.5305C148.647 28.287 148.936 28.0939 149.255 27.9621C149.573 27.8304 149.914 27.7626 150.258 27.7626" fill="white"/>
<path d="M200.666 129.41C200.663 130.176 200.356 130.91 199.814 131.45C199.271 131.991 198.536 132.294 197.77 132.294H181.492C181.097 132.319 180.702 132.263 180.33 132.129C179.957 131.995 179.617 131.786 179.328 131.515C179.04 131.245 178.81 130.918 178.653 130.555C178.496 130.192 178.415 129.8 178.415 129.405C178.415 129.009 178.496 128.618 178.653 128.255C178.81 127.892 179.04 127.565 179.328 127.294C179.617 127.023 179.957 126.815 180.33 126.681C180.702 126.547 181.097 126.49 181.492 126.515H197.77C198.538 126.515 199.275 126.82 199.818 127.363C200.361 127.906 200.666 128.642 200.666 129.41Z" fill="white"/>
<path d="M201.19 65.0612C201.19 65.7566 200.914 66.4235 200.422 66.9152C199.931 67.4068 199.264 67.6831 198.568 67.6831H181.754C181.087 67.6391 180.462 67.3432 180.005 66.8553C179.548 66.3673 179.294 65.7239 179.294 65.0555C179.294 64.3871 179.548 63.7437 180.005 63.2558C180.462 62.7679 181.087 62.4719 181.754 62.428H198.568C198.914 62.428 199.255 62.4962 199.574 62.6286C199.893 62.7611 200.183 62.9553 200.426 63.1999C200.67 63.4446 200.863 63.735 200.994 64.0544C201.125 64.3738 201.192 64.716 201.19 65.0612Z" fill="white"/>
<path d="M200.666 140.958C200.666 141.726 200.361 142.462 199.818 143.005C199.275 143.548 198.538 143.853 197.77 143.853H181.492C181.097 143.878 180.702 143.822 180.33 143.688C179.957 143.554 179.617 143.345 179.328 143.074C179.04 142.804 178.81 142.477 178.653 142.114C178.496 141.751 178.415 141.359 178.415 140.964C178.415 140.568 178.496 140.177 178.653 139.814C178.81 139.451 179.04 139.124 179.328 138.853C179.617 138.582 179.957 138.373 180.33 138.239C180.702 138.105 181.097 138.049 181.492 138.074H197.77C198.536 138.074 199.271 138.377 199.814 138.918C200.356 139.458 200.663 140.192 200.666 140.958Z" fill="white"/>
<path d="M201.19 76.3466C201.19 77.1125 200.887 77.8472 200.346 78.3899C199.806 78.9326 199.072 79.239 198.306 79.242H182.017C181.281 79.1958 180.592 78.8713 180.088 78.3344C179.583 77.7975 179.303 77.0887 179.303 76.3523C179.303 75.6158 179.583 74.907 180.088 74.3701C180.592 73.8333 181.281 73.5087 182.017 73.4625H198.306C199.07 73.4655 199.802 73.7703 200.342 74.3106C200.882 74.8508 201.187 75.5826 201.19 76.3466Z" fill="white"/>
<path d="M201.19 87.9055C201.19 88.6715 200.887 89.4062 200.346 89.9489C199.806 90.4916 199.072 90.7979 198.306 90.801H182.017C181.281 90.7548 180.592 90.4302 180.088 89.8934C179.583 89.3565 179.303 88.6477 179.303 87.9112C179.303 87.1747 179.583 86.4659 180.088 85.9291C180.592 85.3922 181.281 85.0677 182.017 85.0215H198.306C199.071 85.0215 199.805 85.3253 200.346 85.8662C200.886 86.4071 201.19 87.1406 201.19 87.9055Z" fill="white"/>
<path d="M130.799 49.0337C130.799 49.7996 130.496 50.5344 129.955 51.0771C129.415 51.6197 128.681 51.9261 127.915 51.9291H111.626C110.891 51.8829 110.201 51.5584 109.697 51.0215C109.192 50.4847 108.912 49.7759 108.912 49.0394C108.912 48.3029 109.192 47.5941 109.697 47.0573C110.201 46.5204 110.891 46.1958 111.626 46.1497H127.915C128.68 46.1497 129.414 46.4535 129.955 46.9944C130.495 47.5352 130.799 48.2688 130.799 49.0337Z" fill="white"/>
<path d="M130.799 94.7336C130.799 95.4996 130.496 96.2343 129.955 96.777C129.415 97.3197 128.681 97.6261 127.915 97.6291H111.626C110.891 97.5829 110.201 97.2583 109.697 96.7215C109.192 96.1846 108.912 95.4758 108.912 94.7393C108.912 94.0029 109.192 93.2941 109.697 92.7572C110.201 92.2203 110.891 91.8958 111.626 91.8496H127.915C128.68 91.8496 129.414 92.1535 129.955 92.6943C130.495 93.2352 130.799 93.9687 130.799 94.7336Z" fill="white"/>
<path d="M130.799 139.909C130.799 140.675 130.496 141.41 129.955 141.953C129.415 142.495 128.681 142.802 127.915 142.805H111.626C110.891 142.758 110.201 142.434 109.697 141.897C109.192 141.36 108.912 140.651 108.912 139.915C108.912 139.178 109.192 138.47 109.697 137.933C110.201 137.396 110.891 137.071 111.626 137.025H127.915C128.68 137.025 129.414 137.329 129.955 137.87C130.495 138.411 130.799 139.144 130.799 139.909Z" fill="white"/>
<path d="M130.799 60.3305C130.799 61.0258 130.523 61.6927 130.031 62.1844C129.54 62.6761 128.873 62.9523 128.177 62.9523H111.363C110.668 62.9523 110.001 62.6761 109.51 62.1844C109.018 61.6927 108.742 61.0258 108.742 60.3305C108.742 59.6351 109.018 58.9682 109.51 58.4765C110.001 57.9849 110.668 57.7086 111.363 57.7086H128.177C128.873 57.7086 129.54 57.9849 130.031 58.4765C130.523 58.9682 130.799 59.6351 130.799 60.3305Z" fill="white"/>
<path d="M130.799 106.03C130.799 106.726 130.523 107.393 130.031 107.884C129.54 108.376 128.873 108.652 128.177 108.652H111.363C111.019 108.652 110.678 108.584 110.36 108.453C110.042 108.321 109.753 108.128 109.51 107.884C109.266 107.641 109.073 107.352 108.941 107.034C108.809 106.716 108.742 106.375 108.742 106.03C108.742 105.686 108.809 105.345 108.941 105.027C109.073 104.709 109.266 104.42 109.51 104.176C109.753 103.933 110.042 103.74 110.36 103.608C110.678 103.476 111.019 103.409 111.363 103.409H128.177C128.873 103.409 129.54 103.685 130.031 104.176C130.523 104.668 130.799 105.335 130.799 106.03Z" fill="white"/>
<path d="M130.799 71.6271C130.799 72.392 130.495 73.1256 129.955 73.6664C129.414 74.2073 128.68 74.5112 127.915 74.5112H111.626C110.891 74.465 110.201 74.1404 109.697 73.6036C109.192 73.0667 108.912 72.3579 108.912 71.6214C108.912 70.8849 109.192 70.1761 109.697 69.6393C110.201 69.1024 110.891 68.7779 111.626 68.7317H127.915C128.681 68.7347 129.415 69.0411 129.955 69.5838C130.496 70.1264 130.799 70.8612 130.799 71.6271Z" fill="white"/>
<path d="M130.799 117.327C130.799 118.092 130.495 118.826 129.955 119.367C129.414 119.907 128.68 120.211 127.915 120.211H111.626C110.891 120.165 110.201 119.84 109.697 119.304C109.192 118.767 108.912 118.058 108.912 117.322C108.912 116.585 109.192 115.876 109.697 115.339C110.201 114.803 110.891 114.478 111.626 114.432H127.915C128.681 114.435 129.415 114.741 129.955 115.284C130.496 115.827 130.799 116.561 130.799 117.327Z" fill="white"/>
<path d="M130.799 83.1747C130.799 83.9406 130.496 84.6754 129.955 85.218C129.415 85.7607 128.681 86.0671 127.915 86.0701H111.626C110.891 86.0239 110.201 85.6994 109.697 85.1625C109.192 84.6257 108.912 83.9169 108.912 83.1804C108.912 82.4439 109.192 81.7351 109.697 81.1982C110.201 80.6614 110.891 80.3368 111.626 80.2906H127.915C128.68 80.2906 129.414 80.5945 129.955 81.1354C130.495 81.6762 130.799 82.4098 130.799 83.1747Z" fill="white"/>
<path d="M130.799 128.875C130.799 129.641 130.496 130.375 129.955 130.918C129.415 131.461 128.681 131.767 127.915 131.77H111.626C110.891 131.724 110.201 131.399 109.697 130.862C109.192 130.326 108.912 129.617 108.912 128.88C108.912 128.144 109.192 127.435 109.697 126.898C110.201 126.361 110.891 126.037 111.626 125.991H127.915C128.68 125.991 129.414 126.294 129.955 126.835C130.495 127.376 130.799 128.11 130.799 128.875Z" fill="white"/>
<path d="M232.972 74.5112C233.458 74.5112 233.925 74.7046 234.269 75.0488C234.614 75.393 234.807 75.8598 234.807 76.3465V165.125C234.807 165.366 234.759 165.604 234.667 165.827C234.575 166.05 234.44 166.252 234.269 166.422C234.099 166.593 233.897 166.728 233.674 166.82C233.451 166.912 233.213 166.96 232.972 166.96C232.731 166.96 232.492 166.912 232.269 166.82C232.047 166.728 231.844 166.593 231.674 166.422C231.503 166.252 231.368 166.05 231.276 165.827C231.184 165.604 231.136 165.366 231.136 165.125V76.3465C231.136 75.8598 231.33 75.393 231.674 75.0488C232.018 74.7046 232.485 74.5112 232.972 74.5112Z" fill="white"/>
<path d="M160.483 27.7626C161.248 27.7626 161.982 28.0664 162.522 28.6073C163.063 29.1481 163.367 29.8817 163.367 30.6466V127.302C163.392 127.696 163.336 128.092 163.202 128.464C163.068 128.836 162.859 129.177 162.588 129.465C162.317 129.754 161.99 129.983 161.627 130.141C161.264 130.298 160.873 130.379 160.477 130.379C160.082 130.379 159.691 130.298 159.328 130.141C158.965 129.983 158.638 129.754 158.367 129.465C158.096 129.177 157.887 128.836 157.753 128.464C157.619 128.092 157.563 127.696 157.588 127.302V30.6466C157.591 29.8807 157.897 29.1471 158.44 28.6066C158.982 28.0661 159.717 27.7626 160.483 27.7626Z" fill="white"/>
<path d="M44.814 142.953H5.2583V188.516H44.814V142.953Z" fill="#EFEFEF"/>
<path d="M94.7659 73.0406H55.2102V188.516H94.7659V73.0406Z" fill="#EFEFEF"/>
<path d="M35.1246 92.8528H74.8171L73.244 188.573H35.1246V92.8528Z" fill="#EFEFEF"/>
<path d="M78.7954 113.144C79.3245 113.144 79.8319 113.354 80.206 113.728C80.5801 114.102 80.7903 114.609 80.7903 115.138V160.508C80.8111 160.783 80.7748 161.06 80.6837 161.321C80.5926 161.582 80.4487 161.821 80.2609 162.023C80.073 162.226 79.8454 162.387 79.5923 162.498C79.3392 162.608 79.0659 162.665 78.7897 162.665C78.5135 162.665 78.2403 162.608 77.9872 162.498C77.734 162.387 77.5064 162.226 77.3186 162.023C77.1308 161.821 76.9868 161.582 76.8957 161.321C76.8046 161.06 76.7683 160.783 76.7891 160.508V115.138C76.7891 114.876 76.8411 114.615 76.9421 114.372C77.043 114.13 77.191 113.909 77.3775 113.724C77.5639 113.538 77.7852 113.392 78.0285 113.292C78.2719 113.193 78.5325 113.142 78.7954 113.144Z" fill="white"/>
<path d="M59.998 115.195C59.998 115.779 59.7662 116.339 59.3536 116.751C58.941 117.164 58.3814 117.396 57.7979 117.396H45.4182C44.8347 117.396 44.2751 117.164 43.8625 116.751C43.4499 116.339 43.2181 115.779 43.2181 115.195C43.2181 114.612 43.4499 114.052 43.8625 113.64C44.2751 113.227 44.8347 112.995 45.4182 112.995H57.7979C58.3814 112.995 58.941 113.227 59.3536 113.64C59.7662 114.052 59.998 114.612 59.998 115.195Z" fill="white"/>
<path d="M59.998 148.356C59.9995 148.645 59.9436 148.932 59.8336 149.2C59.7235 149.467 59.5615 149.711 59.357 149.915C59.1524 150.12 58.9092 150.282 58.6416 150.392C58.374 150.502 58.0872 150.558 57.7979 150.556H45.4182C44.8347 150.556 44.2751 150.324 43.8625 149.912C43.4499 149.499 43.2181 148.94 43.2181 148.356C43.2181 147.773 43.4499 147.213 43.8625 146.8C44.2751 146.388 44.8347 146.156 45.4182 146.156H57.7979C58.3814 146.156 58.941 146.388 59.3536 146.8C59.7662 147.213 59.998 147.773 59.998 148.356Z" fill="white"/>
<path d="M59.998 123.403C59.998 123.932 59.7878 124.439 59.4137 124.814C59.0396 125.188 58.5322 125.398 58.0031 125.398H45.213C44.6849 125.395 44.1792 125.184 43.8057 124.81C43.4323 124.437 43.2211 123.931 43.2181 123.403C43.2211 122.875 43.4323 122.369 43.8057 121.996C44.1792 121.622 44.6849 121.411 45.213 121.408H58.0031C58.5322 121.408 59.0396 121.618 59.4137 121.992C59.7878 122.366 59.998 122.874 59.998 123.403Z" fill="white"/>
<path d="M59.998 131.576C59.9995 131.866 59.9436 132.152 59.8336 132.42C59.7235 132.688 59.5615 132.931 59.357 133.135C59.1524 133.34 58.9092 133.502 58.6416 133.612C58.374 133.722 58.0872 133.778 57.7979 133.776H45.4182C44.8347 133.776 44.2751 133.545 43.8625 133.132C43.4499 132.719 43.2181 132.16 43.2181 131.576C43.2181 130.993 43.4499 130.433 43.8625 130.021C44.2751 129.608 44.8347 129.376 45.4182 129.376H57.7979C58.0868 129.376 58.3729 129.433 58.6398 129.544C58.9068 129.654 59.1493 129.816 59.3536 130.021C59.5579 130.225 59.7199 130.467 59.8305 130.734C59.9411 131.001 59.998 131.287 59.998 131.576Z" fill="white"/>
<path d="M59.998 106.999C59.9995 107.262 59.949 107.523 59.8494 107.766C59.7499 108.01 59.6032 108.231 59.4178 108.417C59.2324 108.604 59.012 108.752 58.7692 108.853C58.5264 108.954 58.2661 109.006 58.0031 109.006H45.2131C44.7086 108.967 44.2371 108.74 43.8931 108.369C43.5491 107.998 43.3579 107.511 43.3579 107.005C43.3579 106.499 43.5491 106.012 43.8931 105.641C44.2371 105.27 44.7086 105.043 45.2131 105.004H58.0031C58.5322 105.004 59.0396 105.215 59.4137 105.589C59.7878 105.963 59.998 106.47 59.998 106.999Z" fill="white"/>
<path d="M59.998 139.966C59.9995 140.256 59.9436 140.542 59.8336 140.81C59.7235 141.078 59.5615 141.321 59.357 141.525C59.1524 141.73 58.9092 141.892 58.6416 142.002C58.374 142.112 58.0872 142.168 57.7979 142.166H45.4182C44.8347 142.166 44.2751 141.934 43.8625 141.522C43.4499 141.109 43.2181 140.55 43.2181 139.966C43.2181 139.383 43.4499 138.823 43.8625 138.411C44.2751 137.998 44.8347 137.766 45.4182 137.766H57.7979C58.0868 137.766 58.3729 137.823 58.6398 137.934C58.9068 138.044 59.1493 138.206 59.3536 138.411C59.5579 138.615 59.7199 138.857 59.8305 139.124C59.9411 139.391 59.998 139.677 59.998 139.966Z" fill="white"/>
<path d="M71.0097 113.144C71.3059 113.142 71.5994 113.2 71.8724 113.315C72.1454 113.43 72.3922 113.599 72.5979 113.812C72.8036 114.026 72.9639 114.278 73.0691 114.555C73.1742 114.832 73.2221 115.127 73.2098 115.423V160.394C73.2098 160.977 72.978 161.537 72.5654 161.95C72.1528 162.362 71.5932 162.594 71.0097 162.594C70.4262 162.594 69.8666 162.362 69.454 161.95C69.0414 161.537 68.8096 160.977 68.8096 160.394V115.423C68.7989 115.128 68.8479 114.833 68.9536 114.557C69.0594 114.281 69.2197 114.029 69.4251 113.816C69.6305 113.603 69.8766 113.434 70.1489 113.318C70.4212 113.203 70.7139 113.143 71.0097 113.144Z" fill="white"/>
<path d="M26.8372 130.835L28.114 133.537H28.1254L29.4249 130.835L28.1254 129.524L26.8372 130.835Z" fill="#D34839"/>
<path d="M28.1254 117.965C27.8404 118.114 24.261 120.017 24.261 123.072C24.261 125.671 26.3699 129.638 26.3699 129.638L28.1254 127.871L29.8809 129.638C29.8809 129.638 32.0581 125.683 32.0581 123.072C32.0581 120.017 28.4559 118.114 28.1824 117.965H28.1254ZM29.3223 126.675L28.1824 125.535L27.0424 126.675C26.6043 125.505 26.3245 124.282 26.2103 123.038C26.2669 122.418 26.4781 121.821 26.8246 121.304C27.1711 120.786 27.6418 120.363 28.1938 120.074C28.7498 120.359 29.2245 120.781 29.5734 121.299C29.9223 121.817 30.134 122.416 30.1886 123.038C30.0731 124.283 29.7894 125.506 29.3451 126.675" fill="#D34839"/>
<path d="M31.9898 116.655L30.6675 117.977L31.9898 119.299L33.3007 117.977L31.9898 116.655Z" fill="#D34839"/>
<path d="M29.0488 122.947C29.0465 123.125 28.9918 123.298 28.8915 123.444C28.7912 123.591 28.6498 123.704 28.485 123.771C28.3203 123.837 28.1396 123.853 27.9656 123.817C27.7917 123.781 27.6323 123.695 27.5075 123.568C27.3827 123.442 27.2981 123.281 27.2642 123.107C27.2304 122.933 27.2489 122.752 27.3174 122.588C27.3858 122.424 27.5013 122.284 27.6491 122.186C27.7969 122.088 27.9706 122.035 28.1482 122.035C28.3871 122.035 28.6161 122.13 28.785 122.299C28.9539 122.468 29.0488 122.697 29.0488 122.936V122.947Z" fill="#CE5843"/>
<path d="M77.268 91.4392L78.5333 94.1409H78.5561L79.8557 91.4392L78.5561 90.1283L77.268 91.4392Z" fill="#D34839"/>
<path d="M78.5561 78.5693C78.2712 78.7175 74.6918 80.6212 74.6918 83.6762C74.6918 86.2753 76.8006 90.2423 76.8006 90.2423L78.5561 88.4754L80.3116 90.2423C80.3116 90.2423 82.4205 86.2981 82.4205 83.6762C82.4205 80.6212 78.8183 78.7175 78.5561 78.5693ZM79.6961 87.2784L78.5561 86.1385L77.4162 87.2784C76.9726 86.1104 76.6925 84.8867 76.5841 83.642C76.6386 83.021 76.849 82.4238 77.1957 81.9058C77.5424 81.3877 78.0143 80.9655 78.5676 80.6782C79.1208 80.9655 79.5927 81.3877 79.9394 81.9058C80.2861 82.4238 80.4965 83.021 80.551 83.642C80.4395 84.8862 80.1595 86.1095 79.7189 87.2784" fill="#D34839"/>
<path d="M82.4091 77.2584L81.0981 78.5808L82.4091 79.9031L83.7314 78.5808L82.4091 77.2584Z" fill="#D34839"/>
<path d="M79.4794 83.5053C79.4794 83.624 79.4557 83.7415 79.4096 83.8509C79.3635 83.9603 79.296 84.0593 79.211 84.1422C79.126 84.2251 79.0253 84.2901 78.9147 84.3334C78.8042 84.3767 78.6861 84.3975 78.5675 84.3944C78.4492 84.3959 78.3318 84.3741 78.222 84.3303C78.1121 84.2864 78.012 84.2213 77.9273 84.1387C77.8426 84.0562 77.775 83.9577 77.7284 83.8491C77.6818 83.7404 77.657 83.6235 77.6555 83.5053C77.6585 83.2654 77.7559 83.0364 77.9266 82.8678C78.0973 82.6992 78.3276 82.6047 78.5675 82.6047C78.8063 82.6047 79.0354 82.6996 79.2042 82.8685C79.3731 83.0374 79.468 83.2664 79.468 83.5053H79.4794Z" fill="#CE5843"/>
<path d="M192.823 34.1804L194.1 36.8934H194.123L195.411 34.1804L194.123 32.8809L192.823 34.1804Z" fill="#D34839"/>
<path d="M194.123 21.3219C193.838 21.4587 190.258 23.3738 190.258 26.4174C190.258 29.0279 192.367 32.9834 192.367 32.9834L194.123 31.2165L195.878 32.9834C195.878 32.9834 197.987 29.0393 197.987 26.4174C197.987 23.3738 194.385 21.4587 194.123 21.3219ZM195.263 30.0196L194.123 28.8797L192.983 30.0196C192.543 28.8504 192.263 27.6272 192.151 26.3832C192.209 25.7634 192.421 25.1679 192.768 24.6504C193.114 24.133 193.583 23.7099 194.134 23.4194C194.69 23.7043 195.165 24.1257 195.514 24.644C195.863 25.1624 196.074 25.7608 196.129 26.3832C196.015 27.6282 195.731 28.8517 195.285 30.0196" fill="#D34839"/>
<path d="M197.976 19.9995L196.665 21.3218L197.976 22.6442L199.287 21.3218L197.976 19.9995Z" fill="#D34839"/>
<path d="M195.069 26.2921C195.069 26.5309 194.974 26.7599 194.805 26.9288C194.636 27.0977 194.407 27.1926 194.168 27.1926C193.987 27.1949 193.809 27.143 193.657 27.0437C193.506 26.9443 193.387 26.802 193.316 26.6349C193.246 26.4678 193.227 26.2835 193.262 26.1056C193.297 25.9276 193.384 25.7641 193.512 25.6359C193.64 25.5077 193.804 25.4206 193.982 25.3857C194.16 25.3509 194.344 25.3699 194.511 25.4404C194.678 25.5108 194.82 25.6295 194.92 25.7812C195.019 25.9329 195.071 26.1107 195.069 26.2921Z" fill="#CE5843"/>
<path d="M180.01 17.8907V2L221.618 19.4638V54.3686H241.977L272.459 73.5879V121.533" stroke="#D34839" stroke-width="3" stroke-linecap="round" stroke-linejoin="round"/>
<path d="M61.7193 69.4613H98.1402V91.7926H108.776" stroke="#D34839" stroke-width="3" stroke-linecap="round" stroke-linejoin="round"/>
<path d="M306.532 157.362V97.3441H275.035" stroke="#D34839" stroke-width="3" stroke-linecap="round" stroke-linejoin="round"/>
<path d="M17.125 136.763V111.582H37.9972" stroke="#D34839" stroke-width="3" stroke-linecap="round" stroke-linejoin="round"/>
<path d="M148.331 9.10181C148.331 9.10181 105.014 15.9072 97.365 53.867" stroke="#D34839" stroke-width="3" stroke-linecap="round"/>
<path d="M288.954 124.532L290.219 127.233H290.242L291.541 124.532L290.242 123.221L288.954 124.532Z" fill="#D34839"/>
<path d="M290.242 111.662C289.957 111.81 286.377 113.714 286.377 116.769C286.377 119.368 288.486 123.335 288.486 123.335L290.242 121.568L291.997 123.335C291.997 123.335 294.106 119.39 294.106 116.769C294.106 113.714 290.504 111.81 290.242 111.662ZM291.382 120.371L290.242 119.231L289.102 120.371C288.658 119.203 288.378 117.979 288.27 116.734C288.324 116.113 288.535 115.516 288.881 114.998C289.228 114.48 289.7 114.058 290.253 113.771C290.806 114.058 291.278 114.48 291.625 114.998C291.972 115.516 292.182 116.113 292.237 116.734C292.131 117.979 291.85 119.203 291.405 120.371" fill="#D34839"/>
<path d="M294.106 110.351L292.784 111.673L294.106 112.995L295.417 111.673L294.106 110.351Z" fill="#D34839"/>
<path d="M291.165 116.643C291.163 116.821 291.108 116.994 291.008 117.14C290.908 117.287 290.766 117.401 290.602 117.467C290.437 117.533 290.256 117.55 290.082 117.514C289.908 117.478 289.749 117.391 289.624 117.265C289.499 117.138 289.415 116.978 289.381 116.803C289.347 116.629 289.365 116.448 289.434 116.285C289.502 116.121 289.618 115.981 289.766 115.882C289.913 115.784 290.087 115.731 290.265 115.731C290.504 115.731 290.733 115.826 290.902 115.995C291.07 116.164 291.165 116.393 291.165 116.632V116.643Z" fill="#CE5843"/>
<path d="M148.525 9.11316V20.1477" stroke="#D34839" stroke-width="3" stroke-linecap="round"/>
<path d="M117.188 96.5462C115.386 91.4876 114.611 86.1201 114.909 80.7581C115.216 74.5683 116.812 69.6438 119.4 66.9193L119.787 67.2955C114.475 72.8812 114.282 87.8143 117.656 96.3524L117.188 96.5462Z" fill="#341E12"/>
<path d="M115.98 83.9954C112.059 66.8964 129.659 49.9114 142.951 59.2817C144.9 60.9231 146.458 62.9795 147.511 65.3005C151.888 75.5599 162.193 99.8405 161.19 101.425C157.656 106.828 153.837 107.125 152.07 107.262C144.091 107.717 135.861 107.9 129.124 103.648C122.387 99.396 119.126 97.2985 116.071 83.9954" fill="#341E12"/>
<path fill-rule="evenodd" clip-rule="evenodd" d="M187.705 76.0615C186.189 73.5992 186.952 65.9617 186.952 65.9617C189.766 67.8626 192.224 70.2432 194.214 72.9951C197.748 77.7714 205.191 75.7081 204.861 78.2844C204.68 80.6591 204.845 83.0475 205.351 85.3747C205.351 81.1912 206.81 79.9373 208.417 78.5351C214.242 73.5764 213.661 68.1047 209.626 60.775C207.619 56.8194 202.786 53.6276 195.946 54.8701C189.494 56.01 185.288 59.5324 184.616 63.5792C184.319 68.8571 189.027 78.1248 187.739 76.0273" fill="#CC974D"/>
<path fill-rule="evenodd" clip-rule="evenodd" d="M208.075 100.524C210.617 101.459 206.514 92.7387 206.719 92.1688C206.007 88.3827 205.739 84.5264 205.921 80.6782C206.445 78.045 191.752 87.5178 191.752 87.5178C191.85 89.5893 192.124 91.6486 192.572 93.6735C192.709 94.6007 192.619 95.5471 192.31 96.4321C192.378 97.743 191.683 101.642 191.706 103.272L199.15 109.108L208.075 100.524Z" fill="#EFCFA6"/>
<path fill-rule="evenodd" clip-rule="evenodd" d="M192.652 94.9047C195.069 93.9585 203.664 90.9947 205.419 81.2255C206.377 78.7404 190.748 87.2785 190.748 87.2785C190.748 87.2785 191.455 90.0486 192.652 94.9389" fill="#DCB18E"/>
<path fill-rule="evenodd" clip-rule="evenodd" d="M184.194 70.8862C184.068 79.1963 186.873 89.5697 189.312 89.6039C193.165 90.265 202.832 87.0846 203.949 85.0441C205.602 81.1114 205.716 81.2026 206.628 80.0398C207.54 78.8771 209.478 74.3402 206.058 73.7132C204.849 73.3256 203.048 76.6656 203.048 75.6853C203.048 72.6303 202.638 73.1204 200.324 70.4416C199.184 69.1535 200.78 65.8819 200.164 65.1067C196.357 62.747 196.117 62.5874 189.791 64.6963C188.907 65.0428 187.94 65.1195 187.013 64.9165C186.086 64.7136 185.24 64.2403 184.581 63.5564C184.251 65.9659 184.114 68.3979 184.171 70.8292" fill="#EFCFA6"/>
<path fill-rule="evenodd" clip-rule="evenodd" d="M188.628 82.3653C188.589 82.4259 188.576 82.4994 188.591 82.5698C188.606 82.6402 188.648 82.7019 188.708 82.7415C189.47 83.197 190.354 83.4041 191.239 83.3343C192.133 83.2527 192.976 82.8758 193.632 82.2627C193.675 82.2091 193.697 82.1417 193.695 82.073C193.692 82.0043 193.664 81.939 193.617 81.889C193.57 81.839 193.506 81.8078 193.438 81.8011C193.369 81.7943 193.301 81.8125 193.245 81.8524C192.681 82.3663 191.964 82.6825 191.204 82.7529C190.438 82.8093 189.673 82.6261 189.016 82.2285C188.947 82.1944 188.868 82.1871 188.794 82.2082C188.72 82.2293 188.657 82.2772 188.617 82.3425" fill="#DCB089"/>
<path fill-rule="evenodd" clip-rule="evenodd" d="M204.599 78.615C204.609 78.6422 204.624 78.6672 204.644 78.6883C204.664 78.7095 204.688 78.7264 204.715 78.7381C204.741 78.7498 204.77 78.756 204.799 78.7564C204.828 78.7568 204.857 78.7513 204.884 78.7404C205.864 78.3756 206.195 77.8398 206.274 77.3496C206.301 76.9977 206.226 76.6454 206.058 76.3351C205.905 76.0384 205.709 75.7657 205.476 75.5258C205.457 75.4956 205.431 75.4701 205.401 75.4512C205.37 75.4323 205.336 75.4205 205.301 75.4166C205.265 75.4127 205.229 75.4168 205.195 75.4287C205.161 75.4406 205.131 75.46 205.105 75.4853C205.08 75.5106 205.061 75.5413 205.049 75.5751C205.037 75.6089 205.033 75.6449 205.037 75.6805C205.041 75.7161 205.052 75.7504 205.071 75.7808C205.09 75.8113 205.116 75.8371 205.146 75.8563C205.348 76.0541 205.514 76.2855 205.636 76.5403C205.756 76.7721 205.811 77.0321 205.796 77.2927C205.796 77.6916 205.442 78.0564 204.656 78.3414C204.634 78.3425 204.613 78.3483 204.593 78.3585C204.574 78.3688 204.558 78.3831 204.544 78.4005C204.531 78.4179 204.522 78.438 204.518 78.4593C204.513 78.4806 204.514 78.5026 204.519 78.5238C204.507 78.5531 204.507 78.5857 204.519 78.615" fill="#DCB089"/>
<path fill-rule="evenodd" clip-rule="evenodd" d="M196.916 70.6127C196.958 70.5681 196.982 70.5089 196.982 70.4474C196.982 70.3858 196.958 70.3266 196.916 70.2821C196.239 69.7037 195.377 69.3881 194.487 69.3929C194.11 69.3739 193.732 69.4295 193.376 69.5566C193.02 69.6838 192.693 69.88 192.413 70.1339C192.37 70.1784 192.347 70.2376 192.347 70.2992C192.347 70.3608 192.37 70.42 192.413 70.4645C192.433 70.4866 192.458 70.5043 192.485 70.5163C192.513 70.5284 192.542 70.5346 192.572 70.5346C192.602 70.5346 192.632 70.5284 192.66 70.5163C192.687 70.5043 192.712 70.4866 192.732 70.4645C193.213 70.0455 193.839 69.8325 194.476 69.8717C195.244 69.8788 195.986 70.1438 196.585 70.6241C196.625 70.6617 196.678 70.6827 196.733 70.6827C196.788 70.6827 196.841 70.6617 196.881 70.6241" fill="#252525"/>
<path fill-rule="evenodd" clip-rule="evenodd" d="M188.742 70.7267C188.762 70.7096 188.777 70.6885 188.788 70.6649C188.798 70.6413 188.804 70.6158 188.804 70.5899C188.804 70.564 188.798 70.5384 188.788 70.5148C188.777 70.4913 188.762 70.4702 188.742 70.4531C188.049 69.8924 187.17 69.6118 186.28 69.6665C185.516 69.6575 184.78 69.948 184.228 70.4759C184.185 70.5204 184.162 70.5796 184.162 70.6412C184.162 70.7027 184.185 70.7619 184.228 70.8065C184.249 70.8289 184.275 70.8467 184.303 70.8589C184.332 70.8711 184.362 70.8774 184.393 70.8774C184.424 70.8774 184.455 70.8711 184.483 70.8589C184.512 70.8467 184.537 70.8289 184.559 70.8065C185.021 70.3721 185.634 70.135 186.268 70.1453C187.039 70.1033 187.799 70.3378 188.412 70.8065C188.429 70.824 188.449 70.838 188.471 70.8476C188.494 70.8571 188.518 70.862 188.543 70.862C188.567 70.862 188.591 70.8571 188.614 70.8476C188.636 70.838 188.657 70.824 188.674 70.8065" fill="#252525"/>
<path fill-rule="evenodd" clip-rule="evenodd" d="M188.697 77.9196C188.732 77.9531 188.775 77.9767 188.822 77.988C189.294 78.1258 189.779 78.2137 190.27 78.2502C190.313 78.2559 190.352 78.2779 190.38 78.3119C190.408 78.3458 190.421 78.389 190.418 78.4326C190.415 78.4759 190.396 78.5165 190.364 78.5462C190.332 78.5758 190.29 78.5922 190.247 78.5921C189.722 78.549 189.203 78.4535 188.697 78.3072C188.581 78.2605 188.476 78.1907 188.389 78.102C188.363 78.0809 188.342 78.055 188.326 78.0256C188.31 77.9963 188.301 77.9641 188.298 77.931C188.293 77.8965 188.296 77.8615 188.306 77.8281C188.315 77.7947 188.332 77.7638 188.355 77.7372C188.58 77.2899 188.73 76.8084 188.799 76.3123C188.984 75.2267 189.094 74.1298 189.13 73.0293C189.13 72.9869 189.147 72.9463 189.176 72.9164C189.206 72.8865 189.247 72.8697 189.289 72.8697C189.311 72.8681 189.333 72.8711 189.354 72.8784C189.375 72.8857 189.394 72.8972 189.41 72.9122C189.426 72.9272 189.438 72.9453 189.447 72.9654C189.456 72.9856 189.46 73.0073 189.46 73.0293C189.405 74.1446 189.287 75.2559 189.107 76.3579C189.027 76.8952 188.857 77.4153 188.605 77.8968C188.619 77.9048 188.635 77.909 188.651 77.909C188.667 77.909 188.683 77.9048 188.697 77.8968" fill="#DCB089"/>
<path d="M193.461 74.2034C193.461 73.4739 193.735 72.8811 194.066 72.8811C194.396 72.8811 194.658 73.4739 194.658 74.2034C194.658 74.933 194.385 75.5258 194.054 75.5258C193.724 75.5258 193.461 74.933 193.461 74.2034Z" fill="#252525"/>
<path d="M185.334 74.1236C185.425 73.4055 185.767 72.8469 186.097 72.8925C186.428 72.9381 186.61 73.5537 186.508 74.2832C186.405 75.0128 186.075 75.5485 185.744 75.5143C185.414 75.4801 185.231 74.8418 185.334 74.1236Z" fill="#252525"/>
<path fill-rule="evenodd" clip-rule="evenodd" d="M202.74 72.1858C203.117 71.935 204.188 74.3972 204.154 74.6024C203.705 77.126 203.861 79.7202 204.61 82.1716C205.02 84.6908 203.037 87.0505 201.464 88.1676C199.891 89.2848 192.96 90.5615 191.056 90.8123C188.776 91.0973 187.215 91.0175 186.998 89.604C186.733 87.2872 186.264 84.9983 185.596 82.7643C186.204 84.1781 187.348 85.2931 188.776 85.865C189.529 86.0246 190.885 85.0784 190.885 84.3261C191.555 85.0833 192.457 85.5965 193.45 85.7852C195.343 85.7592 197.188 85.1928 198.77 84.1526C200.351 83.1125 201.602 81.6421 202.376 79.9145C203.903 76.8595 202.615 72.3226 202.74 72.163" fill="#CC974D"/>
<path fill-rule="evenodd" clip-rule="evenodd" d="M198.819 84.3602C199.229 84.155 195.263 88.2816 196.14 85.2721C197.018 82.2627 194.191 81.1 193.735 80.8492C193.279 80.5984 191.717 81.4648 191.011 81.5445C189.483 81.7155 187.591 80.8492 187.123 81.3052C186.462 81.9663 187.249 84.4058 187.329 85.3063C186.918 85.3975 185.881 83.471 185.721 83.0949C185.562 82.7187 185.448 79.903 187.75 80.017C189.711 79.8005 191.387 79.8119 193.154 79.5611C195.969 79.1507 197.497 85.1467 198.853 84.3602" fill="#CC974D"/>
<path fill-rule="evenodd" clip-rule="evenodd" d="M166.411 141.425H225.539C227.203 130.642 228.959 115.207 224.297 102.542C218.38 94.9046 206.468 90.9263 206.468 90.9263C206.468 90.9263 198.363 101.186 193.496 103.032C192.649 100.396 192.381 97.6084 192.709 94.859C192.709 94.859 184.399 96.4663 180.067 111.297C177.423 121.796 166.456 141.425 166.456 141.425" fill="#5C3D2D"/>
<path d="M206.366 57.4007C206.436 56.7589 206.697 56.153 207.116 55.6613C207.534 55.1696 208.09 54.8147 208.713 54.6427C209.335 54.4706 209.995 54.4892 210.606 54.6961C211.218 54.903 211.753 55.2887 212.143 55.8032C212.533 56.3177 212.76 56.9374 212.794 57.5821C212.828 58.2269 212.668 58.867 212.334 59.4197C212 59.9724 211.508 60.4122 210.922 60.6823C210.335 60.9523 209.681 61.0402 209.044 60.9345C208.222 60.8185 207.478 60.3818 206.977 59.7198C206.475 59.0578 206.255 58.2241 206.366 57.4007Z" fill="#CC974D"/>
<path fill-rule="evenodd" clip-rule="evenodd" d="M180.637 108.584C178.609 107.366 176.448 106.383 174.197 105.654C174.197 105.654 170.537 105.016 168.782 104.856C167.266 104.72 168.349 106.122 169.922 106.395L173.638 107.227L177.058 108.789C175.87 108.566 174.657 108.516 173.456 108.641C171.683 109.539 170.051 110.691 168.611 112.061C167.859 112.653 169.238 113.201 169.99 112.767C171.141 111.938 172.34 111.176 173.581 110.488C174.933 110.595 176.273 110.828 177.582 111.183C177.582 111.183 174.721 111.297 173.535 111.422C172.089 112.095 170.745 112.97 169.546 114.021C169.192 114.409 169.819 114.922 171.107 114.409C172.079 113.777 173.14 113.293 174.254 112.973C175.244 112.847 176.25 112.997 177.16 113.406C177.651 113.771 175.895 113.816 174.881 113.554C173.866 113.292 171.814 114.386 171.769 114.819C172.247 115.537 173.148 114.968 174.653 114.979C177.787 114.979 179.269 117.099 180.614 118.137C181.387 118.839 182.337 119.316 183.362 119.516C183.362 119.516 187.123 123.072 187.921 123.574C188.719 124.076 190.52 120.382 190.315 119.208C190.213 118.729 187.522 117.282 186.895 116.552C184.536 113.714 182.267 109.712 180.66 108.572" fill="#EFCFA6"/>
<path d="M212.327 58.005C213.946 53.6163 207.916 53.1717 207.46 56.0215" stroke="#CC974D" stroke-width="1.55" stroke-miterlimit="10" stroke-linecap="round"/>
<path d="M127.06 81.9891C127.06 81.9891 128.394 92.6247 127.892 93.7989C127.391 94.973 118.009 97.1845 118.009 97.1845C118.009 97.1845 124.461 107.444 133.091 107.968C141.72 108.493 144.262 93.7647 144.262 93.7647C144.262 93.7647 139.828 95.4176 138.676 93.7647C137.525 92.1118 138.049 86.3665 138.049 86.3665L127.06 81.9891Z" fill="#EECCA4"/>
<mask id="mask0" mask-type="alpha" maskUnits="userSpaceOnUse" x="118" y="81" width="27" height="27">
<path d="M127.06 81.9891C127.06 81.9891 128.394 92.6247 127.892 93.7989C127.391 94.973 118.009 97.1845 118.009 97.1845C118.009 97.1845 124.461 107.444 133.091 107.968C141.72 108.493 144.262 93.7647 144.262 93.7647C144.262 93.7647 139.828 95.4176 138.676 93.7647C137.525 92.1118 138.049 86.3665 138.049 86.3665L127.06 81.9891Z" fill="#EECCA4"/>
</mask>
<g mask="url(#mask0)">
<path d="M128.417 81.0202C133.547 80.0969 138.186 82.1602 138.802 85.4888C139.417 88.8174 135.747 92.3854 130.628 93.2973C125.51 94.2093 120.859 92.2258 120.243 88.8288C119.628 85.4318 123.299 81.9892 128.417 81.0202Z" fill="#DAAF8C"/>
</g>
<path d="M123.253 95.8508C123.253 95.8508 124.199 101.448 131.757 102.155C139.315 102.861 143.567 94.1751 143.567 94.1751C143.567 94.1751 149.87 92.4424 151.991 94.1751C154.111 95.9078 155.41 96.9338 155.41 101.186C155.41 105.438 146.2 142.007 146.2 142.007L115.604 141.448C115.604 141.448 93.569 144.127 92.4633 141.448C91.3576 138.769 109.186 103.409 110.144 101.55C113.13 95.8508 123.287 95.8508 123.287 95.8508" fill="#D34839"/>
<path d="M140.044 97.5949L143.852 110.67L137.969 111.365L136.533 101.209C136.533 101.209 134.584 100.878 134.379 99.6126C134.249 98.8578 134.158 98.0969 134.105 97.3327C134.105 97.3327 133.592 98.7121 133.205 98.4727C132.867 98.2115 132.594 97.876 132.407 97.4923C132.407 97.4923 131.574 98.1763 131.563 97.5949C131.579 97.1579 131.651 96.7248 131.78 96.3068C131.78 96.3068 131.187 97.0478 130.982 96.3068C130.999 95.2769 131.236 94.2626 131.677 93.3316C132.263 92.1108 132.99 90.963 133.843 89.9118C135.119 89.8439 136.399 89.9088 137.662 90.1056L140.044 97.5949Z" fill="#F9E1C3"/>
<path d="M137.57 136.626C137.183 136.695 140.922 140.263 137.4 141.63H110.907L109.369 135.327L124.575 137.812L138.254 135.885C138.254 135.885 138.254 136.501 137.525 136.626" fill="#F9E1C3"/>
<path d="M235.206 141.63H89.7047V145.586H235.206V141.63Z" fill="#D7D7D7"/>
<path d="M142.05 104.138L137.069 105.278L136.807 103.101L141.401 102.018L142.05 104.138Z" fill="#341E12"/>
<path d="M141.492 101.585C141.587 101.56 141.688 101.574 141.773 101.623C141.859 101.672 141.921 101.752 141.948 101.847L142.506 103.876C142.531 103.974 142.516 104.078 142.465 104.165C142.414 104.253 142.33 104.317 142.233 104.343C142.138 104.368 142.037 104.354 141.951 104.305C141.866 104.256 141.804 104.176 141.777 104.081L141.23 102.041C141.216 101.993 141.212 101.944 141.218 101.895C141.224 101.846 141.239 101.799 141.264 101.757C141.288 101.714 141.321 101.677 141.36 101.647C141.399 101.618 141.444 101.597 141.492 101.585Z" fill="#341E12"/>
<path d="M180.603 141.893H136.225C136.11 141.894 135.999 141.856 135.908 141.786C135.817 141.715 135.752 141.617 135.724 141.505L127.311 110.579C127.279 110.446 127.299 110.306 127.367 110.187C127.435 110.068 127.545 109.98 127.676 109.94H127.824H189.745C189.883 109.943 190.015 109.999 190.113 110.097C190.211 110.195 190.267 110.327 190.27 110.465C190.275 110.514 190.275 110.564 190.27 110.613L181.15 141.539C181.117 141.647 181.05 141.741 180.96 141.808C180.87 141.876 180.761 141.913 180.649 141.915" fill="#EDEDED"/>
<path d="M158.785 120.553C159.535 120.555 160.268 120.78 160.89 121.198C161.513 121.617 161.998 122.21 162.284 122.904C162.569 123.598 162.643 124.361 162.495 125.097C162.347 125.832 161.985 126.508 161.453 127.037C160.922 127.567 160.246 127.927 159.51 128.073C158.774 128.218 158.011 128.143 157.318 127.855C156.625 127.567 156.033 127.081 155.616 126.457C155.2 125.833 154.977 125.099 154.977 124.349C154.977 123.85 155.076 123.355 155.267 122.894C155.459 122.433 155.739 122.014 156.093 121.661C156.447 121.308 156.867 121.029 157.329 120.839C157.79 120.649 158.285 120.552 158.785 120.553V120.553Z" stroke="#D7D7D7" stroke-width="5"/>
<path d="M203.595 127.29H210.56C210.914 127.29 211.253 127.431 211.504 127.681C211.754 127.931 211.894 128.27 211.894 128.624V140.297C211.894 140.651 211.754 140.99 211.504 141.24C211.253 141.49 210.914 141.631 210.56 141.631H203.595C203.242 141.631 202.902 141.49 202.652 141.24C202.402 140.99 202.262 140.651 202.262 140.297V128.624C202.262 128.27 202.402 127.931 202.652 127.681C202.902 127.431 203.242 127.29 203.595 127.29Z" fill="#EDEDED"/>
<path d="M210.766 139.579C210.669 139.579 210.576 139.54 210.508 139.472C210.439 139.403 210.401 139.311 210.401 139.214C210.401 139.117 210.439 139.024 210.508 138.956C210.576 138.887 210.669 138.849 210.766 138.849C211.333 138.924 211.911 138.876 212.458 138.71C213.006 138.543 213.513 138.262 213.943 137.884C214.373 137.506 214.718 137.041 214.955 136.52C215.191 135.998 215.313 135.432 215.313 134.859C215.313 134.287 215.191 133.721 214.955 133.199C214.718 132.677 214.373 132.212 213.943 131.834C213.513 131.457 213.006 131.175 212.458 131.009C211.911 130.843 211.333 130.795 210.766 130.869C210.717 130.87 210.668 130.86 210.623 130.841C210.578 130.822 210.538 130.794 210.504 130.759C210.47 130.724 210.443 130.682 210.425 130.636C210.408 130.591 210.399 130.542 210.401 130.493C210.401 130.397 210.439 130.304 210.508 130.235C210.576 130.167 210.669 130.129 210.766 130.129C212.026 130.129 213.235 130.629 214.127 131.521C215.018 132.412 215.519 133.621 215.519 134.882C215.519 136.143 215.018 137.352 214.127 138.243C213.235 139.135 212.026 139.636 210.766 139.636V139.579Z" fill="#EDEDED"/>
<path fill-rule="evenodd" clip-rule="evenodd" d="M145.037 63.7617C142.284 67.0676 139.313 70.1866 136.146 73.0977C133.615 75.3776 128.234 79.1394 126.376 77.9538C121.817 77.2699 124.678 82.4338 125.499 83.6535C126.319 84.8732 127.026 83.6535 127.573 84.2235C130.993 87.8143 136.818 90.8123 140.831 90.1853C145.071 89.0454 147.67 80.7011 147.739 72.0718C147.787 69.0644 146.837 66.1259 145.037 63.7161" fill="#EFCFA6"/>
<mask id="mask1" mask-type="alpha" maskUnits="userSpaceOnUse" x="123" y="63" width="25" height="28">
<path fill-rule="evenodd" clip-rule="evenodd" d="M145.037 63.7617C142.284 67.0676 139.313 70.1866 136.146 73.0977C133.615 75.3776 128.234 79.1394 126.376 77.9538C121.817 77.2699 124.678 82.4338 125.499 83.6535C126.319 84.8732 127.026 83.6535 127.573 84.2235C130.993 87.8143 136.818 90.8123 140.831 90.1853C145.071 89.0454 147.67 80.7011 147.739 72.0718C147.787 69.0644 146.837 66.1259 145.037 63.7161" fill="#EFCFA6"/>
</mask>
<g mask="url(#mask1)">
<path opacity="0.15" d="M131.426 74.7506C132.429 74.3402 133.706 75.275 134.379 76.8253C135.051 78.3756 134.698 79.9601 133.695 80.3705C132.692 80.7808 131.415 79.8461 130.742 78.2844C130.07 76.7227 130.423 75.1496 131.426 74.7506Z" fill="#CE5843"/>
<path opacity="0.15" d="M145.71 78.7518C145.95 78.4971 146.258 78.3161 146.597 78.2298C146.937 78.1435 147.294 78.1555 147.627 78.2644C147.959 78.3733 148.254 78.5746 148.477 78.8448C148.7 79.115 148.841 79.443 148.885 79.7905C148.928 80.138 148.872 80.4907 148.723 80.8074C148.573 81.1242 148.337 81.3919 148.041 81.5794C147.745 81.7668 147.402 81.8663 147.052 81.8662C146.702 81.8661 146.359 81.7665 146.063 81.5788C145.642 81.2503 145.368 80.7683 145.302 80.2383C145.236 79.7084 145.382 79.1738 145.71 78.7518Z" fill="#CE5843"/>
</g>
<path fill-rule="evenodd" clip-rule="evenodd" d="M141.72 84.9188C140.905 85.0427 140.071 84.8945 139.349 84.4971C138.638 84.1137 138.068 83.5151 137.719 82.7872C137.639 82.6618 137.536 82.582 137.399 82.6618C137.263 82.7416 137.206 82.8441 137.274 82.9695C137.662 83.786 138.301 84.457 139.098 84.8846C139.922 85.2848 140.843 85.4429 141.754 85.3406C141.811 85.3296 141.863 85.298 141.898 85.2519C141.934 85.2057 141.952 85.1481 141.948 85.0898C141.948 85.0328 141.868 84.9074 141.731 84.9416" fill="#DCB18E"/>
<path fill-rule="evenodd" clip-rule="evenodd" d="M127.072 81.7954C126.183 81.6358 125.818 81.2824 125.681 80.8378C125.618 80.5563 125.618 80.2644 125.681 79.9829C125.76 79.7031 125.883 79.4376 126.046 79.1963C126.046 79.1963 126.046 79.0595 126.046 79.0139C126.046 78.9683 125.943 79.0139 125.863 79.0139C125.699 79.2749 125.565 79.5542 125.464 79.8461C125.397 80.0046 125.362 80.1752 125.362 80.3476C125.362 80.5201 125.397 80.6907 125.464 80.8492C125.613 81.3394 126.034 81.784 127.072 81.9891C127.072 81.9891 127.197 81.9094 127.231 81.8524C127.265 81.7954 127.163 81.727 127.083 81.8524L127.072 81.7954Z" fill="#DCB18E"/>
<path fill-rule="evenodd" clip-rule="evenodd" d="M134.778 73.7816C135.32 73.1941 136.049 72.8116 136.841 72.6987C137.487 72.5651 138.16 72.6833 138.722 73.0293C138.79 73.1091 138.927 73.0293 139.007 73.0293C139.087 73.0293 139.007 72.8241 139.007 72.7443C138.335 72.3012 137.517 72.1376 136.727 72.2883C135.817 72.4143 134.981 72.8586 134.367 73.5423C134.276 73.5423 134.367 73.736 134.367 73.8158C134.415 73.8463 134.47 73.8625 134.527 73.8625C134.583 73.8625 134.639 73.8463 134.686 73.8158" fill="#341E13"/>
<path fill-rule="evenodd" clip-rule="evenodd" d="M143.225 72.9494C143.953 72.6652 144.756 72.6331 145.504 72.8582C146.144 73.0411 146.697 73.4451 147.066 73.9982C147.135 74.135 147.249 74.2034 147.374 74.135C147.499 74.0666 147.579 73.9412 147.499 73.8158C147.08 73.1481 146.418 72.6697 145.653 72.4821C144.786 72.2313 143.86 72.2877 143.031 72.6417C143.003 72.6571 142.978 72.6779 142.958 72.703C142.939 72.7281 142.924 72.7569 142.915 72.7877C142.907 72.8185 142.905 72.8507 142.909 72.8824C142.913 72.9141 142.923 72.9446 142.94 72.9722C142.94 72.9722 143.042 72.9722 143.179 72.9722L143.225 72.9494Z" fill="#341E13"/>
<path fill-rule="evenodd" clip-rule="evenodd" d="M142.324 80.1881C142.083 79.6938 141.929 79.1616 141.868 78.615C141.722 77.4807 141.642 76.3388 141.629 75.1952C141.642 75.1454 141.667 75.0991 141.7 75.0597C141.734 75.0203 141.775 74.9888 141.822 74.9672C141.948 74.8988 141.982 75.0356 142.05 75.161C142.074 76.3054 142.165 77.4473 142.324 78.5808C142.379 79.0944 142.53 79.5931 142.769 80.0513C142.769 80.1425 142.848 80.2337 142.769 80.2793C142.737 80.3903 142.674 80.4895 142.586 80.5643C142.397 80.6748 142.188 80.7483 141.971 80.7809C141.556 80.8558 141.137 80.9091 140.717 80.9405C140.614 80.9405 140.511 80.9405 140.489 80.7467C140.466 80.5529 140.489 80.5529 140.671 80.5187C141.107 80.4857 141.541 80.4286 141.971 80.3477C142.05 80.2907 142.199 80.3477 142.278 80.2451L142.324 80.1881Z" fill="#DCB18E"/>
<path d="M136.26 75.1039C136.328 74.4656 136.693 73.964 137.08 73.964C137.468 73.964 137.719 74.5568 137.65 75.1951C137.582 75.8335 137.229 76.3351 136.841 76.3351C136.453 76.3351 136.203 75.7423 136.26 75.1039Z" fill="#341E13"/>
<path d="M126.069 83.3685C126.696 83.2089 127.414 83.9156 127.664 84.9302C127.915 85.9447 127.664 86.9136 127.015 87.0732C126.365 87.2328 125.67 86.5375 125.407 85.5115C125.145 84.4856 125.407 83.528 126.069 83.3685Z" fill="white"/>
<path d="M143.772 75.7424C143.84 75.104 144.205 74.6024 144.592 74.6024C144.98 74.6024 145.231 75.1838 145.162 75.8221C145.094 76.4605 144.741 76.9621 144.353 76.9621C143.966 76.9621 143.715 76.3693 143.772 75.7309" fill="#341E13"/>
</svg>
