<svg width="139" height="44" viewBox="0 0 139 44" fill="none" xmlns="http://www.w3.org/2000/svg">
<path d="M6.5 36.5L9.6 43.2001L12.8 36.5L9.6 33.3L6.5 36.5Z" fill="white"/>
<path d="M9.5 3.19995C8.8 3.59995 0 8.29995 0 15.8C0 22.2 5.2 31.9 5.2 31.9L9.5 27.6L13.8 31.9C13.8 31.9 19 22.2 19 15.8C19 8.29995 10.2 3.59995 9.5 3.19995ZM12.3 24.6L9.5 21.7L6.7 24.6C6.6 24.2 4.6 19 4.6 15.7C4.6 11.1 9.1 8.59995 9.5 8.39995C9.8 8.49995 14.4 11.1 14.4 15.7C14.4 19.1 12.5 24.2 12.3 24.6Z" fill="white"/>
<path d="M19 0L15.7 3.3L19 6.5L22.2 3.3L19 0Z" fill="white"/>
<path d="M11.8 15.5001C11.8 16.7001 10.8 17.7001 9.59999 17.7001C8.39999 17.7001 7.39999 16.7001 7.39999 15.5001C7.39999 14.3001 8.39999 13.3001 9.59999 13.3001C10.8 13.2001 11.8 14.2001 11.8 15.5001Z" fill="white"/>
<path d="M25.9 22.8V11.5H29.2L32.6 15.3L35.7 11.5H38.9V22.8H35.2V17.2L32.5 20.3H32.4L29.6 17.2V22.8H25.9Z" fill="white"/>
<path d="M40.5 17.0999C40.5 15.4999 41.1 13.9999 42.2 12.7999C44.8 10.5999 48.6 10.5999 51.2 12.7999C53.5 15.1999 53.5 18.8999 51.2 21.2999C50 22.4999 48.4 23.0999 46.7 22.9999C45 23.0999 43.4 22.4999 42.2 21.2999C41.1 20.2999 40.5 18.6999 40.5 17.0999ZM46.7 19.5999C47.9 19.5999 48.9 18.6999 48.9 17.4999C48.9 17.3999 48.9 17.2999 48.9 17.1999C49 15.9999 48 14.8999 46.8 14.7999H46.7C45.5 14.7999 44.5 15.7999 44.5 16.9999C44.5 17.0999 44.5 17.0999 44.5 17.1999C44.4 18.3999 45.3 19.4999 46.5 19.5999C46.6 19.5999 46.6 19.5999 46.7 19.5999Z" fill="white"/>
<path d="M58.2 22.8H54.5V11.5H58.2V17.4L62.2 11.5H66V22.8H62.3V16.9L58.2 22.8ZM59.2 6C59.2 7 59.5 7.4 60.2 7.4C60.8 7.4 61.2 6.9 61.2 6H64.4C64.4 8.5 62.9 10.3 60.2 10.3C57.4 10.3 56 8.5 56 6H59.2Z" fill="white"/>
<path d="M78.2 6.6C77.9 7.1 77.3 7.5 76.8 7.7C76.1 8 75.4 8.1 74.7 8.2C74 8.3 73.2 8.5 72.5 8.8C70.8 9.6 69.9 11.4 69.7 14.2C70.6 12.6 72.3 11.5 74.1 11.6C77.3 11.6 79.3 13.8 79.3 17.2C79.3 18.7 78.7 20.2 77.7 21.3C76.6 22.4 75.1 23 73.6 23C71.9 23.1 70.3 22.4 69.3 21.1C68.2 19.6 67.6 17.8 67.7 16C67.7 11.1 69.1 8.1 71.8 6.9C72.5 6.6 73.2 6.4 74 6.3C75.5 6 76.4 5.8 77 5L78.2 6.6ZM73.5 21.1C74.5 21.1 75.4 20.7 76.1 20C76.8 19.3 77.2 18.3 77.1 17.3C77.1 15 75.8 13.5 73.5 13.5C72.6 13.5 71.7 13.8 71 14.3C70.3 14.8 69.9 15.5 69.7 16.3C69.8 19.2 71.3 21.1 73.5 21.1Z" fill="white"/>
<path d="M83.1 22.8H81.1V11.5H83.1V19.9L89.5 11.5H91.5V22.8H89.5V14.4L83.1 22.8Z" fill="white"/>
<path d="M95.1 22.6C94.4 22.4 93.7 22 93.2 21.5L94.2 20C95.1 20.7 96.3 21.2 97.5 21.2C99.2 21.2 100.4 20.5 100.4 19.4C100.4 18.5 99.6 18 98.2 18H96.3V16.4H98C98.9 16.5 99.8 15.8 99.9 14.9V14.8C99.9 13.8 99 13.2 97.5 13.2C96.3 13.2 95.1 13.7 94.1 14.4L93.3 12.9C94.5 11.9 96.1 11.3 97.7 11.4C100.4 11.4 101.9 12.5 101.9 14.4C102 15.6 101.1 16.7 99.9 17C101.3 17.1 102.3 18.3 102.3 19.6C102.3 21.7 100.4 23 97.5 23C96.8 23 96 22.8 95.1 22.6Z" fill="white"/>
<path d="M112.7 22.8V18H106.5V22.8H104.4V11.5H106.5V16.1H112.7V11.5H114.7V22.8H112.7Z" fill="white"/>
<path d="M126.7 21.5C125.5 22.5 124 23 122.5 23C120.9 23.1 119.3 22.5 118.1 21.4C117 20.3 116.4 18.7 116.4 17.1C116.3 15.6 116.9 14 117.9 12.9C119 11.7 120.5 11.1 122.1 11.2C123.5 11.2 124.8 11.7 125.8 12.6C126.8 13.6 127.3 14.9 127.3 16.3C127.3 16.8 127.3 17.2 127.2 17.7H118.6C118.8 19.8 120.3 21.1 122.5 21.1C123.8 21.2 125 20.8 125.9 19.9L126.7 21.5ZM118.6 16.1H125.4C125.4 14.5 124.1 13.1 122.5 13.1C122.4 13.1 122.3 13.1 122.2 13.1C120.3 13 118.8 14.3 118.6 16.1Z" fill="white"/>
<path d="M138.4 21.1C137.3 22.4 135.7 23 134.1 23C132.5 23.1 130.9 22.5 129.7 21.4C128.6 20.3 128 18.7 128 17.1C128 15.6 128.5 14.1 129.6 12.9C130.6 11.8 132.1 11.2 133.7 11.2C135.7 11.2 137.1 11.7 138.1 12.7L137.2 14.3C136.3 13.5 135.2 13.1 134 13.1C133 13.1 132 13.5 131.3 14.2C129.8 15.8 129.8 18.3 131.3 19.9C132.1 20.6 133.1 21 134.2 21C135.4 21 136.6 20.5 137.4 19.6L138.4 21.1Z" fill="white"/>
<path d="M31.6 33.9001H26.2V27.1001H27V33.1001H30.6V27.1001H31.4V33.1001H32.3V35.1001H31.5V33.9001H31.6Z" fill="white"/>
<path d="M36.5 30.7001L34 33.9001H33.3V29.6001H34V32.8001L36.5 29.6001H37.3V33.9001H36.5V30.7001Z" fill="white"/>
<path d="M41.6 35.7999H40.8V34H40.7C39.5 34.1 38.5 33.2 38.4 32C38.4 31.9 38.4 31.7999 38.4 31.7999C38.4 31.1999 38.6 30.6 39.1 30.2C39.6 29.8 40.2 29.5 40.8 29.5H40.9V27.2H41.7V29.5H41.8C42.4 29.5 43.1 29.7 43.5 30.2C43.9 30.6 44.2 31.1999 44.2 31.7999C44.2 32.3999 44 33 43.6 33.4C43.2 33.8 42.5 34.1 41.9 34H41.8V35.9L41.6 35.7999ZM39.2 31.7C39.2 32.1 39.3 32.4999 39.6 32.7999C39.9 33.0999 40.3 33.3 40.7 33.2H40.8V30.1H40.7C40.3 30.1 39.9 30.2 39.6 30.5C39.4 30.9 39.2 31.3 39.2 31.7ZM41.8 30.2H41.7V33.2999H41.8C42.2 33.2999 42.6 33.2 42.9 32.9C43.2 32.6 43.3 32.1999 43.3 31.7999C43.3 31.3999 43.2 31 42.9 30.7C42.5 30.3 42.2 30.2 41.8 30.2Z" fill="white"/>
<path d="M45.9 35.7999H45.1V29.4999H45.9V29.9999C46.3 29.5999 46.8 29.3999 47.4 29.3999C47.9 29.3999 48.5 29.5999 48.8 29.9999C49.2 30.3999 49.4 30.9999 49.4 31.5999C49.4 32.1999 49.2 32.7999 48.8 33.2999C48.4 33.6999 47.8 33.9999 47.2 33.9999C46.8 33.9999 46.3 33.8999 46 33.6999L45.9 35.7999ZM47.2 30.1999C46.7 30.1999 46.2 30.3999 45.9 30.7999V32.8999C46.2 33.0999 46.6 33.1999 47 33.2999C47.4 33.2999 47.8 33.1999 48.1 32.8999C48.4 32.5999 48.5 32.1999 48.5 31.7999C48.5 31.3999 48.4 30.9999 48.1 30.6999C47.9 30.2999 47.6 30.0999 47.2 30.1999Z" fill="white"/>
<path d="M50.9 33.3999C50 32.4999 50 31.0999 50.9 30.1999C51.8 29.2999 53.3 29.2999 54.2 30.1999C55.1 31.0999 55.1 32.4999 54.2 33.3999C53.8 33.7999 53.2 34.0999 52.5 34.0999C51.9 33.9999 51.3 33.7999 50.9 33.3999ZM51 31.6999C51 32.0999 51.1 32.4999 51.4 32.7999C51.7 33.0999 52.1 33.2999 52.5 33.1999C52.9 33.1999 53.3 33.0999 53.6 32.7999C53.9 32.4999 54 32.0999 54 31.6999C54 31.2999 53.9 30.8999 53.6 30.5999C53 29.9999 52.1 29.9999 51.5 30.5999C51.2 30.8999 51 31.2999 51 31.6999Z" fill="white"/>
<path d="M55.9 33.9001V29.6001H57.5C58.7 29.6001 59.4 30.0001 59.4 30.7001C59.4 30.9001 59.3 31.2001 59.1 31.4001C58.9 31.6001 58.7 31.7001 58.5 31.8001C59.2 31.9001 59.5 32.3001 59.5 32.8001C59.5 33.6001 58.8 34.1001 57.5 34.1001H56.1C56 33.9001 56 33.9001 55.9 33.9001ZM57.5 30.1001C57.2 30.1001 56.9 30.1001 56.6 30.1001V31.4001H57.6C57.8 31.4001 58.1 31.4001 58.3 31.2001C58.5 31.1001 58.6 30.9001 58.6 30.7001C58.6 30.3001 58.2 30.1001 57.5 30.1001ZM57.6 31.9001H56.7V33.2001C57.2 33.2001 57.4 33.2001 57.6 33.2001C58.3 33.2001 58.7 33.0001 58.7 32.5001C58.7 32.2001 58.3 31.9001 57.6 31.9001Z" fill="white"/>
<path d="M60.9 30.5L60.7 29.9C61.1 29.6 61.6 29.5 62.1 29.5C62.6 29.5 63 29.6 63.4 29.9C63.7 30.3 63.8 30.8 63.8 31.3V34H63V33.4C62.7 33.8 62.1 34.1 61.6 34C61.2 34 60.9 33.9 60.6 33.6C60.4 33.3 60.2 33 60.3 32.6C60.3 32.2 60.4 31.8 60.7 31.6C61 31.3 61.5 31.2 61.9 31.2C62.3 31.2 62.7 31.3 63 31.5C63 31.1 62.9 30.8 62.8 30.4C62.7 30.2 62.4 30.1 62 30.1C61.6 30.2 61.2 30.3 60.9 30.5ZM61.9 33.3C62.3 33.3 62.8 33.1 63 32.7V32.1C62.7 31.9 62.4 31.8 62 31.8C61.8 31.8 61.5 31.8 61.3 32C61.1 32.1 61 32.3 61 32.5C61.2 32.9 61.6 33.2 61.9 33.3Z" fill="white"/>
<path d="M67 29.6H68.4V33.9H67.6V32.5H66.8L65.8 33.9H64.9L66.2 32.3C65.9 32.2 65.7 32.1 65.5 31.9C65.3 31.7 65.2 31.4 65.2 31.1C65.2 30.7 65.4 30.3 65.7 30C66 29.6 66.5 29.5 67 29.6ZM65.9 31C65.9 31.2 66 31.4 66.1 31.5C66.3 31.6 66.5 31.7 66.7 31.7H67.6V30.2H66.9C66.6 30.2 66.4 30.3 66.2 30.4C65.9 30.6 65.9 30.8 65.9 31Z" fill="white"/>
<path d="M75.7 33.9H75V30.3H72.6V33.9H71.8V29.5H75.7V33.9Z" fill="white"/>
<path d="M80.9 33.9001H80.1V30.3001H78.6V31.0001C78.6 31.5001 78.5 32.0001 78.4 32.5001C78.3 32.8001 78.2 33.1001 78 33.4001C77.8 33.6001 77.7 33.7001 77.5 33.8001C77.2 33.9001 77 34.0001 76.8 34.0001V33.3001C76.9 33.3001 77 33.3001 77 33.3001C77.1 33.3001 77.2 33.2001 77.3 33.1001C77.4 33.0001 77.5 32.8001 77.6 32.7001C77.7 32.5001 77.8 32.2001 77.8 32.0001C77.8 31.7001 77.9 31.4001 77.9 31.0001L78 29.6001H81L80.9 33.9001Z" fill="white"/>
<path d="M82.5 30.5L82.3 29.9C82.7 29.6 83.2 29.5 83.7 29.5C84.2 29.5 84.6 29.6 85 29.9C85.3 30.3 85.4 30.8 85.4 31.3V34H84.7V33.4C84.4 33.8 83.8 34.1 83.3 34C82.9 34 82.6 33.9 82.3 33.6C82.1 33.3 81.9 33 82 32.6C82 32.2 82.1 31.8 82.4 31.6C82.7 31.3 83.2 31.2 83.6 31.2C84 31.2 84.4 31.3 84.7 31.5C84.7 31.1 84.6 30.8 84.5 30.4C84.4 30.2 84.1 30.1 83.7 30.1C83.2 30.2 82.8 30.3 82.5 30.5ZM83.5 33.3C83.9 33.3 84.4 33.1 84.6 32.7V32.1C84.3 31.9 84 31.8 83.6 31.8C83.4 31.8 83.1 31.8 82.9 32C82.7 32.1 82.6 32.3 82.6 32.5C82.6 32.7 82.7 32.9 82.8 33C83.1 33.2 83.3 33.3 83.5 33.3Z" fill="white"/>
<path d="M87.7 30.3H86.1V29.5H90V30.3H88.5V33.9H87.7V30.3Z" fill="white"/>
<path d="M93.6 35.7999H92.8V34H92.7C91.5 34.1 90.5 33.2 90.4 32C90.4 31.9 90.4 31.7999 90.4 31.7999C90.4 31.1999 90.6 30.6 91.1 30.2C91.6 29.8 92.2 29.5 92.8 29.5H92.9V27.2H93.7V29.5H93.8C94.4 29.5 95.1 29.7 95.5 30.2C95.9 30.6 96.2 31.1999 96.2 31.7999C96.2 32.3999 96 33 95.6 33.4C95.2 33.8 94.5 34.1 93.9 34H93.8V35.9L93.6 35.7999ZM91.2 31.7C91.2 32.1 91.3 32.4999 91.6 32.7999C91.9 33.0999 92.3 33.3 92.7 33.2H92.8V30.1H92.7C92.3 30.1 91.9 30.2 91.6 30.5C91.4 30.9 91.2 31.3 91.2 31.7ZM93.8 30.2H93.7V33.2999H93.8C94.2 33.2999 94.6 33.2 94.9 32.9C95.2 32.6 95.3 32.1999 95.3 31.7999C95.3 31.3999 95.2 31 94.9 30.7C94.6 30.3 94.2 30.2 93.8 30.2Z" fill="white"/>
<path d="M97.6 33.3999C96.7 32.4999 96.7 31.0999 97.6 30.1999C98.5 29.2999 100 29.2999 100.9 30.1999C101.8 31.0999 101.8 32.4999 100.9 33.3999C100.5 33.7999 99.8 34.0999 99.2 34.0999C98.6 33.9999 98 33.7999 97.6 33.3999ZM97.7 31.6999C97.7 32.0999 97.8 32.4999 98.1 32.7999C98.4 33.0999 98.8 33.2999 99.2 33.1999C99.6 33.1999 100 33.0999 100.3 32.7999C100.6 32.4999 100.7 32.0999 100.7 31.6999C100.7 31.2999 100.6 30.8999 100.3 30.5999C99.7 29.9999 98.8 29.9999 98.2 30.5999C97.9 30.8999 97.7 31.2999 97.7 31.6999Z" fill="white"/>
<path d="M103.4 35.7999H102.6V29.4999H103.4V29.9999C103.8 29.5999 104.3 29.3999 104.9 29.3999C105.4 29.3999 106 29.5999 106.3 29.9999C106.7 30.3999 106.9 30.9999 106.9 31.5999C106.9 32.1999 106.7 32.7999 106.3 33.2999C105.9 33.6999 105.3 33.9999 104.7 33.9999C104.3 33.9999 103.8 33.8999 103.5 33.6999L103.4 35.7999ZM104.6 30.1999C104.1 30.1999 103.6 30.3999 103.3 30.7999V32.8999C103.6 33.0999 104 33.1999 104.4 33.2999C104.8 33.2999 105.2 33.1999 105.5 32.8999C105.8 32.5999 105.9 32.1999 105.9 31.7999C105.9 31.3999 105.8 30.9999 105.5 30.6999C105.4 30.2999 105 30.0999 104.6 30.1999Z" fill="white"/>
<path d="M108.7 33.9001H107.9V29.6001H108.6L110.3 31.7001L111.9 29.6001H112.6V33.9001H111.8V30.7001L110.3 32.8001H110.2L108.7 30.7001V33.9001Z" fill="white"/>
<path d="M114.2 30.5L114 29.9C114.4 29.6 114.9 29.5 115.4 29.5C115.9 29.5 116.3 29.6 116.7 29.9C117 30.3 117.1 30.8 117.1 31.3V34H116.4V33.4C116.1 33.8 115.5 34.1 115 34C114.6 34 114.3 33.9 114 33.6C113.8 33.3 113.6 33 113.7 32.6C113.7 32.2 113.8 31.8 114.1 31.6C114.4 31.3 114.9 31.2 115.3 31.2C115.7 31.2 116.1 31.3 116.4 31.5C116.4 31.1 116.3 30.8 116.2 30.4C116.1 30.2 115.8 30.1 115.4 30.1C114.9 30.2 114.5 30.3 114.2 30.5ZM115.2 33.3C115.6 33.3 116.1 33.1 116.3 32.7V32.1C116 31.9 115.7 31.8 115.3 31.8C115.1 31.8 114.8 31.8 114.6 32C114.4 32.1 114.3 32.3 114.3 32.5C114.3 32.7 114.4 32.9 114.5 33C114.8 33.2 115 33.3 115.2 33.3Z" fill="white"/>
</svg>
