<svg width="40" height="42" viewBox="0 0 40 42" fill="none" xmlns="http://www.w3.org/2000/svg">
<path d="M34.7 9.99998C41.1 18.3 39.6 30.2 31.3 36.6C23 43 11.1 41.5 4.69998 33.2C-1.70002 24.9 -0.20002 13 8.09998 6.59998C11.4 3.99998 15.5 2.59998 19.7 2.59998" stroke="#D34839" stroke-width="1.417" stroke-miterlimit="10" stroke-linecap="round" stroke-dasharray="0.2 0.2"/>
<path d="M12.8 28.1V17C12.8 16.3 13.4 15.7 14.1 15.7H25.9C26.4 15.8 27 16.3 27 17V23.7C27 24.4 26.4 25 25.7 25H16.6C16.5 25 16.5 25 16.5 25.1L12.8 28.1Z" stroke="#D34839" stroke-width="1.5"/>
<path d="M16.9 21H22.8C23.2 21 23.4 21.3 23.4 21.6C23.4 22 23.1 22.2 22.8 22.2H16.9C16.6 22.3 16.3 22 16.3 21.6C16.3 21.3 16.6 21 16.9 21Z" fill="#D34839"/>
<path d="M16.9 18.5H22.8C23.2 18.5 23.4 18.8 23.4 19.1C23.4 19.5 23.1 19.7 22.8 19.7H16.9C16.5 19.7 16.3 19.4 16.3 19.1C16.3 18.8 16.6 18.5 16.9 18.5Z" fill="#D34839"/>
<path d="M24.7 3.79995L27.9 6.79995L32.7999 1.69995" stroke="#D34839" stroke-width="1.417" stroke-linecap="round"/>
</svg>
