<svg width="40" height="41" viewBox="0 0 40 41" fill="none" xmlns="http://www.w3.org/2000/svg">
<path d="M34.7 9.30002C41.1 17.6 39.6 29.5 31.3 35.9C23 42.3 11.1 40.8 4.69998 32.5C-1.70002 24.2 -0.20002 12.3 8.09998 5.90002C11.4 3.30002 15.5 1.90002 19.7 1.90002" stroke="#D34839" stroke-width="1.417" stroke-miterlimit="10" stroke-linecap="round" stroke-dasharray="0.2 0.2"/>
<path d="M28.9218 12.5441C28.9218 12.3113 28.6902 12.0786 28.4586 12.0786C24.2894 11.6131 20.6992 13.2423 17.8039 16.268C16.9932 17.0826 16.2984 18.0136 15.6035 18.9446C14.4454 18.9446 13.4031 19.4101 12.5924 20.2247L11.0869 21.7375C10.971 21.8539 10.971 22.203 11.0869 22.4358C11.2027 22.5521 11.4343 22.6685 11.5501 22.5521C12.1292 22.4358 12.5924 22.3194 13.0557 22.3194C13.1715 22.3194 13.4031 22.3194 13.5189 22.3194C13.2873 23.0176 13.0557 23.4831 12.9398 23.5995C12.824 23.8322 12.824 24.065 13.0557 24.2977L13.8663 25.1123C12.5924 26.8579 12.5924 27.6725 12.5924 27.9053C12.5924 28.2544 12.824 28.4872 13.1715 28.3708C13.5189 28.3708 14.3296 28.2544 15.8351 27.0907L16.7616 28.0217C16.8774 28.2544 17.2249 28.2544 17.3407 28.138C17.4565 28.0217 18.0355 27.7889 18.6146 27.4398C18.6146 28.138 18.4988 28.8363 18.383 29.4181C18.383 29.7673 18.4988 30 18.8462 30C18.962 30 19.1937 30 19.3095 29.8836L20.815 28.3708C21.6257 27.5562 21.9731 26.5088 21.9731 25.3451C23.0154 24.6468 23.9419 23.8322 24.7526 23.0176C27.7637 20.2247 29.3851 16.6171 28.9218 12.5441ZM27.9953 13.0096C28.1111 14.1733 27.9953 15.2206 27.7637 16.3844C27.0688 16.1516 26.374 15.6861 25.9107 15.2206C25.3317 14.7551 24.9842 14.0569 24.7526 13.3587C25.6791 13.0096 26.8372 13.0096 27.9953 13.0096ZM13.0557 21.272L13.4031 20.9229C13.7505 20.4574 14.3296 20.2247 14.9086 20.1083C14.5612 20.5738 14.3296 20.9229 14.098 21.3884C13.7505 21.272 13.4031 21.272 13.0557 21.272ZM13.9821 23.8322C14.098 23.5995 14.3296 23.3667 14.5612 22.9012L15.2561 23.5995C15.0244 23.8322 14.7928 24.1814 14.5612 24.4141L13.9821 23.8322ZM16.6458 23.5995C16.9932 23.2504 17.4565 23.134 17.8039 23.134C17.8039 23.5995 17.6881 24.065 17.3407 24.2977C16.2984 25.3451 15.1403 26.2761 13.8663 26.9743C14.677 25.8106 15.4877 24.6468 16.6458 23.5995ZM17.2249 27.0907L16.6458 26.5088C16.8774 26.2761 17.1091 26.0433 17.4565 25.8106L18.1514 26.5088C17.6881 26.7416 17.4565 26.8579 17.2249 27.0907ZM20.1201 27.6725L19.6569 28.138C19.6569 27.7889 19.6569 27.3234 19.6569 26.9743C20.0043 26.7416 20.4676 26.5088 20.9308 26.2761C20.815 26.7416 20.4676 27.3234 20.1201 27.6725ZM19.1937 26.0433L18.2672 25.1123C18.8462 24.4141 19.0778 23.5995 18.962 22.6685C18.962 22.3194 18.7304 22.0866 18.383 22.0866C17.4565 21.9703 16.6458 22.203 15.9509 22.7849L15.0244 21.8539C17.4565 17.5481 20.3518 14.7551 23.5945 13.5914C23.8261 14.5224 24.4052 15.2206 25.1 15.9189C25.7949 16.6171 26.4898 17.0826 27.4163 17.4317C26.2582 20.5738 23.4787 23.4831 19.1937 26.0433Z" fill="#D34839"/>
<path d="M23.5 17.1C22.6 16.2 21.2 16.2 20.3 17.1C19.4 18 19.4 19.4 20.3 20.3C21.2 21.2 22.6 21.2 23.5 20.3C24.4 19.4 24.4 18 23.5 17.1ZM22.9 19.7C22.4 20.2 21.5 20.2 21 19.7C20.5 19.2 20.5 18.3 21 17.8C21.5 17.3 22.4 17.3 22.9 17.8C23.4 18.3 23.4 19.1 22.9 19.7Z" fill="#D34839"/>
<path d="M24.7 3.1L27.9 6.1L32.7999 1" stroke="#D34839" stroke-width="1.417" stroke-linecap="round"/>
</svg>
