<svg width="40" height="42" viewBox="0 0 40 42" fill="none" xmlns="http://www.w3.org/2000/svg">
<path d="M34.7 9.99998C41.1 18.3 39.6 30.2 31.3 36.6C23 43 11.1 41.5 4.70001 33.2C-1.69999 24.9 -0.19999 13 8.10001 6.59998C11.4 3.99998 15.5 2.59998 19.7 2.59998" stroke="#D34839" stroke-width="1.417" stroke-miterlimit="10" stroke-linecap="round" stroke-dasharray="0.2 0.2"/>
<path d="M20.3 23.6C21.8 23.7 23.4 23.2 24.5 22.1C26.4 20.2 26.5 17 24.6 15.1C23.7 14.2 22.2 13.7 20.1 13.7C19.4 13.7 18.7 13.7 18 13.7C17.6 13.7 17.3 13.7 16.9 13.7C16.4 13.7 15.9 14.1 15.9 14.7V28.6C15.9 29.1 16.3 29.6 16.8 29.6C17.3 29.6 17.8 29.2 17.8 28.7V28.6V26.7H22.2C22.7 26.7 23 26.3 23 25.8C23 25.4 22.6 25 22.2 25H17.8V23.4C18.5 23.5 19.3 23.6 20.3 23.6ZM17.9 16.1C17.9 15.8 18.1 15.5 18.5 15.5C19.5 15.5 20.1 15.5 20.4 15.5C21.4 15.4 22.3 15.7 23.1 16.3C23.7 16.9 24.1 17.7 24 18.6C24 19.5 23.7 20.4 23 20.9C22.2 21.5 21.2 21.8 20.3 21.8C19.9 21.8 19.3 21.8 18.7 21.7C18.3 21.7 18 21.3 18 20.9V16.1H17.9Z" fill="#D34839"/>
<path d="M24.7 3.79995L27.9 6.79995L32.8 1.69995" stroke="#D34839" stroke-width="1.417" stroke-linecap="round"/>
</svg>
