<svg width="40" height="41" viewBox="0 0 40 41" fill="none" xmlns="http://www.w3.org/2000/svg">
<path d="M34.7 9.30002C41.1 17.6 39.6 29.5 31.3 35.9C23 42.3 11.1 40.8 4.69998 32.5C-1.70002 24.2 -0.20002 12.3 8.09998 5.90002C11.4 3.30002 15.5 1.90002 19.7 1.90002" stroke="#D34839" stroke-width="1.417" stroke-miterlimit="10" stroke-linecap="round" stroke-dasharray="0.2 0.2"/>
<path d="M11.8 26.375L15.7 22.775L12.9 20.075C12.4 20.475 11.7 20.375 11.3 19.975C10.9 19.475 10.9 18.775 11.3 18.375L17.3 12.375C17.8 11.875 18.5 11.875 18.9 12.375C19.4 12.875 19.4 13.575 18.9 13.975L26.5 21.475C26.9 21.075 27.6 21.075 28 21.475C28.4 21.875 28.5 22.675 28 23.075L22.1 28.975C21.6 29.475 20.9 29.475 20.5 28.975C20 28.475 20 27.775 20.5 27.375L17.7 24.675L13.8 28.275C13.2 28.875 12.3 28.775 11.8 28.275C11.2 27.875 11.2 26.975 11.8 26.375Z" stroke="#D34839" stroke-width="1.417" stroke-linecap="round" stroke-linejoin="round"/>
<path d="M24.7 3.1L27.9 6.1L32.7999 1" stroke="#D34839" stroke-width="1.417" stroke-linecap="round"/>
</svg>
