<?xml version="1.0" encoding="UTF-8"?> <!-- Generator: Adobe Illustrator 21.0.0, SVG Export Plug-In . SVG Version: 6.00 Build 0) --> <svg xmlns="http://www.w3.org/2000/svg" xmlns:xlink="http://www.w3.org/1999/xlink" id="Логотип_залоговый_центр" x="0px" y="0px" viewBox="0 0 365.8 74.2" style="enable-background:new 0 0 365.8 74.2;" xml:space="preserve"> <style type="text/css"> .st0{fill:none;enable-background:new ;} .st1{fill:#E04E39;} .st2{fill:#623B2A;} .st3{fill:#DF4E39;} </style> <path class="st0" d="z"></path> <g> <path id="АСТРАХАНСКИЙ_ЗАЛОГОВЫЙ_ФОНД" class="st1" d="M127,17.6h6.6l1.4,3.5h4.1l-7-16.8h-3.4l-7,16.8 h3.9L127,17.6z M128.5,14l1.9-4.8l1.9,4.8H128.5L128.5,14z M149.3,17.8c-1.4,0.1-2.7-0.5-3.7-1.4c-0.9-1-1.5-2.3-1.4-3.7 c-0.1-1.4,0.4-2.7,1.3-3.7c0.9-0.9,2.1-1.4,3.4-1.3c1.2,0,2.4,0.4,3.4,1l1.7-2.9c-0.6-0.6-1.4-1-2.2-1.3c-0.9-0.3-1.9-0.5-3-0.5 c-2.4-0.1-4.8,0.7-6.5,2.4c-1.6,1.7-2.4,3.9-2.3,6.2c-0.1,2.4,0.8,4.6,2.4,6.3c1.7,1.6,4,2.5,6.4,2.4c1.1,0,2.2-0.2,3.2-0.5 c0.9-0.3,1.6-0.8,2.3-1.4l-1.5-2.9C151.9,17.4,150.6,17.8,149.3,17.8C149.3,17.8,149.3,17.8,149.3,17.8z M160.8,21.1h3.8V7.9h5V4.3 h-13.9v3.6h5L160.8,21.1L160.8,21.1z M178.4,15.5c1.7,0.1,3.3-0.5,4.5-1.6c1.1-1,1.7-2.5,1.7-4c0.1-1.5-0.5-2.9-1.6-4 c-1.1-1.1-2.8-1.6-5.2-1.6c-0.9,0-1.8,0-2.7,0c-0.9,0-1.7,0-2.4,0v16.8h3.8v-5.7C177.1,15.5,177.8,15.5,178.4,15.5L178.4,15.5 L178.4,15.5z M180.5,9.8c0,0.6-0.2,1.2-0.6,1.5c-0.5,0.4-1,0.5-1.6,0.5c-0.6,0-1.2,0-1.8-0.1V7.9c0.3,0,0.6,0,0.9,0s0.5,0,0.6,0 l0.2,0C179.7,7.9,180.5,8.5,180.5,9.8L180.5,9.8L180.5,9.8z M189.9,17.6h6.6l1.4,3.5h4.1l-7-16.8h-3.4l-7,16.8h3.9L189.9,17.6z M191.3,14l1.9-4.8l1.9,4.8H191.3L191.3,14z M210.8,9.7l-3.4-5.4h-4.5l5.3,8.2l-5.6,8.6h4.5l3.6-5.6l3.6,5.6h4.5l-5.6-8.6l5.4-8.2 h-4.5L210.8,9.7z M224.7,17.6h6.6l1.4,3.5h4.1l-7-16.8h-3.4l-7,16.8h3.9L224.7,17.6z M226.1,14l1.9-4.8l1.9,4.8H226.1L226.1,14z M253.4,4.3h-3.8v6.4h-6.1V4.3h-3.8v16.8h3.8v-6.8h6.1v6.8h3.8V4.3z M266.2,17.8c-1.4,0.1-2.7-0.5-3.7-1.4c-0.9-1-1.5-2.3-1.4-3.7 c-0.1-1.4,0.4-2.7,1.3-3.7c0.9-0.9,2.1-1.4,3.4-1.3c1.2,0,2.4,0.4,3.4,1l1.7-2.9c-0.6-0.6-1.4-1-2.2-1.3c-0.9-0.3-1.9-0.5-3-0.5 c-2.4-0.1-4.8,0.7-6.5,2.4c-1.6,1.7-2.4,3.9-2.3,6.2c-0.1,2.4,0.8,4.6,2.4,6.3c1.7,1.6,4,2.5,6.4,2.4c1.1,0,2.2-0.2,3.2-0.5 c0.9-0.3,1.6-0.8,2.3-1.4l-1.5-2.9C268.9,17.4,267.6,17.8,266.2,17.8L266.2,17.8L266.2,17.8z M278.4,13.1l5.7,8h4.9l-6.8-9l6.3-7.8 h-4.6l-5.5,7.3V4.3h-3.8v16.8h3.8L278.4,13.1L278.4,13.1z M302.6,21.1h3.8V4.3h-3.4l-7.4,10.4V4.3h-3.8v16.8h3.4l7.4-10.4V21.1z M322.2,21.1h3.8V4.3h-3.4l-7.4,10.4V4.3h-3.8v16.8h3.4l7.4-10.4L322.2,21.1L322.2,21.1z M315.4,2.8c1.1,0.8,2.4,1.1,3.7,1 c1.3,0.1,2.6-0.3,3.6-1.1c0.9-0.6,1.4-1.7,1.4-2.8h-3.6c0,0.3-0.1,0.7-0.3,0.9c-0.3,0.2-0.7,0.3-1.1,0.3c-0.4,0-0.8-0.1-1.2-0.3 c-0.3-0.2-0.4-0.6-0.3-0.9H314C314,1.1,314.5,2.1,315.4,2.8z M132.7,48.8c1.2-0.8,1.9-2.2,1.8-3.6c0.2-1.8-1-3.5-2.8-4v-0.1 c1.3-0.7,2.1-2.1,2.1-3.6c0.1-1.3-0.5-2.6-1.4-3.5c-1.1-0.9-2.4-1.3-3.8-1.3c-1.1,0-2.3,0.2-3.3,0.8c-1,0.5-1.8,1.1-2.4,2l2.2,2.6 c0.6-1.1,1.8-1.7,3-1.8c0.5,0,1,0.1,1.4,0.4c0.3,0.3,0.5,0.7,0.5,1.2c0,0.5-0.2,0.9-0.6,1.1c-0.4,0.3-1,0.4-1.5,0.4h-1.4v3.6h1.5 c0.7,0,1.4,0.1,1.9,0.5c0.4,0.3,0.7,0.7,0.7,1.2c0,0.5-0.2,1-0.7,1.3c-0.5,0.3-1.1,0.5-1.7,0.4c-1.5-0.1-2.9-0.8-3.8-2l-2.1,2.6 c1.3,2,3.6,3.2,6,3C130,50.2,131.5,49.7,132.7,48.8L132.7,48.8L132.7,48.8z M141.8,46.4h6.6l1.4,3.5h4.1l-7-16.8h-3.4l-7,16.8h3.9 L141.8,46.4z M143.3,42.8l1.9-4.8l1.9,4.8H143.3L143.3,42.8z M170,33.1h-11.1l-0.2,3.4c-0.1,2.5-0.5,5-1.1,7.5 c-0.2,0.5-0.4,1.1-0.7,1.5c-0.2,0.3-0.5,0.5-0.8,0.6c-0.3,0.1-0.6,0.1-0.9,0l-0.1,3.8c1.1,0.3,2.3,0.2,3.4-0.3 c1.1-0.7,1.9-1.8,2.2-3c0.8-2.2,1.2-4.4,1.4-6.7l0.4-3.2h3.7v13.2h3.8L170,33.1L170,33.1z M176.2,47.8c1.7,1.6,4.1,2.5,6.4,2.4 c2.4,0.1,4.7-0.8,6.4-2.4c1.7-1.6,2.6-3.9,2.5-6.2c0.1-2.4-0.8-4.7-2.5-6.3c-1.7-1.6-4-2.5-6.4-2.4c-2.4-0.1-4.7,0.8-6.5,2.5 c-1.6,1.6-2.5,3.9-2.5,6.2C173.6,43.9,174.5,46.2,176.2,47.8L176.2,47.8L176.2,47.8z M179.2,37.8c0.9-0.9,2.2-1.5,3.5-1.4 c1.3,0,2.5,0.5,3.5,1.4c0.9,1,1.5,2.3,1.4,3.7c0,1.3-0.4,2.6-1.3,3.7c-2,1.9-5.1,1.9-7,0C177.4,43.1,177.3,39.9,179.2,37.8 L179.2,37.8L179.2,37.8z M199.1,36.7h5.8v-3.6h-9.6v16.8h3.8L199.1,36.7L199.1,36.7z M208.9,47.8c1.7,1.6,4.1,2.5,6.4,2.4 c2.4,0.1,4.7-0.8,6.4-2.4c1.7-1.6,2.6-3.9,2.5-6.2c0.1-2.4-0.8-4.7-2.5-6.3c-1.7-1.6-4-2.5-6.4-2.4c-2.4-0.1-4.7,0.8-6.5,2.5 c-1.6,1.6-2.5,3.9-2.5,6.2C206.3,43.9,207.2,46.2,208.9,47.8L208.9,47.8L208.9,47.8z M211.8,37.8c0.9-0.9,2.2-1.5,3.5-1.4 c1.3,0,2.5,0.5,3.5,1.4c0.9,1,1.5,2.3,1.4,3.7c0,1.3-0.4,2.6-1.3,3.7c-2,1.9-5.1,1.9-7,0C210,43.1,210,39.9,211.8,37.8L211.8,37.8 L211.8,37.8z M232.8,50c1.6,0.1,3.3-0.4,4.6-1.3c1.2-0.9,1.9-2.4,1.8-3.9c0-0.9-0.2-1.7-0.7-2.4c-0.4-0.6-1-1.1-1.7-1.4v-0.1 c1.3-0.8,2-2.2,1.9-3.7c0-1.2-0.5-2.3-1.4-3.1c-1.2-0.8-2.7-1.2-4.2-1.1c-1.5,0-3.2,0-5.1,0.1v16.7C228.9,50,230.5,50,232.8,50 L232.8,50L232.8,50z M235.3,44.6c0,1.2-0.7,1.8-2.2,1.8c-0.4,0-0.9,0-1.3-0.1v-3.1h1.5C234.6,43.1,235.3,43.6,235.3,44.6 L235.3,44.6L235.3,44.6z M234.3,37c0.3,0.3,0.5,0.7,0.5,1.1c0.1,0.8-0.5,1.6-1.4,1.6c-0.1,0-0.3,0-0.4,0h-1.3v-3 c0.4-0.1,0.8-0.1,1.2-0.1C233.5,36.6,233.9,36.7,234.3,37L234.3,37z M260.3,33.1h-3.8v16.8h3.8V33.1z M250.1,42.4 c0.4,0.4,0.7,1,0.6,1.6c0.1,1.1-0.7,2.2-1.8,2.3c-0.2,0-0.4,0-0.6,0c-0.4,0-0.8,0-1.1-0.1V42c0.4-0.1,0.8-0.1,1.2-0.1 C249,41.8,249.6,42,250.1,42.4L250.1,42.4z M243.4,49.9c0.6,0,1.3,0,2,0c0.7,0,1.6,0,2.5,0c1.8,0.1,3.7-0.5,5.1-1.6 c1.2-1.1,1.9-2.7,1.8-4.4c0.1-1.6-0.5-3.1-1.6-4.2c-1.3-1.1-2.9-1.6-4.5-1.5c-0.5,0-1,0-1.5,0.1v-5.3h-3.8L243.4,49.9L243.4,49.9z M276,49.9h3.8V33.1h-3.4L269,43.6V33.1h-3.8v16.8h3.4l7.4-10.4L276,49.9L276,49.9z M269.2,31.6c1.1,0.8,2.4,1.1,3.7,1 c1.3,0.1,2.6-0.3,3.6-1.1c0.9-0.6,1.4-1.7,1.4-2.8h-3.6c0,0.3-0.1,0.7-0.3,0.9c-0.3,0.2-0.7,0.3-1.1,0.3c-0.4,0-0.8-0.1-1.2-0.3 c-0.3-0.2-0.4-0.6-0.3-0.9h-3.6C267.8,29.9,268.3,30.9,269.2,31.6L269.2,31.6z M300,47.9c2,0.1,3.9-0.6,5.4-1.8 c1.4-1.2,2.2-3,2.1-4.8c0.1-1.8-0.7-3.6-2.1-4.8c-1.5-1.2-3.5-1.9-5.4-1.8v-1.8h-3.8v1.8c-2,0-3.9,0.6-5.4,1.8 c-1.4,1.2-2.1,2.9-2,4.8c-0.1,1.8,0.6,3.6,2,4.8c1.5,1.2,3.5,1.8,5.4,1.8v2.3h3.8L300,47.9L300,47.9z M302.6,43.6 c-0.8,0.6-1.7,0.8-2.6,0.8v-6.1c0.9,0,1.9,0.3,2.6,0.9c0.6,0.6,0.9,1.4,0.9,2.2C303.5,42.1,303.2,42.9,302.6,43.6L302.6,43.6z M293.6,39.1c0.7-0.6,1.6-0.9,2.5-0.9v6.1c-2.3,0-3.4-1.1-3.4-3C292.8,40.5,293.1,39.7,293.6,39.1L293.6,39.1z M312.3,47.8 c1.7,1.6,4.1,2.5,6.4,2.4c2.4,0.1,4.7-0.8,6.4-2.4c1.7-1.6,2.6-3.9,2.5-6.2c0.1-2.4-0.8-4.7-2.5-6.3c-1.7-1.6-4-2.5-6.4-2.4 c-2.4-0.1-4.7,0.8-6.5,2.5c-1.6,1.6-2.5,3.9-2.5,6.2C309.7,43.9,310.6,46.2,312.3,47.8L312.3,47.8L312.3,47.8z M315.3,37.8 c0.9-0.9,2.2-1.5,3.5-1.4c1.3,0,2.5,0.5,3.5,1.4c0.9,1,1.5,2.3,1.4,3.7c0,1.3-0.4,2.6-1.3,3.7c-2,1.9-5.1,1.9-7,0 C313.4,43.1,313.4,39.9,315.3,37.8L315.3,37.8L315.3,37.8z M345.2,33.1h-3.8v6.4h-6.1v-6.4h-3.8v16.8h3.8v-6.8h6.1v6.8h3.8V33.1z M351.8,49.9h10.4v2.9h3.6v-6.5h-2.3V33.1h-11l-0.1,3.4c-0.1,2.1-0.4,4.3-1,6.3c-0.3,1.2-0.8,2.4-1.5,3.5h-1.8v6.5h3.6L351.8,49.9 L351.8,49.9z M359.7,36.7v9.6h-5.5c0.5-0.8,0.8-1.7,1-2.6c0.4-1.3,0.6-2.7,0.8-4.1l0.3-2.8H359.7L359.7,36.7z"></path> <path id="Акционерное_общество" class="st2" d="M124.8,68.7h5.1l1.4,3.4h1.5L128,60.9h-1.2L122,72.1h1.4 L124.8,68.7z M125.4,67.4l2-4.8l2,4.8H125.4L125.4,67.4z M136.4,66.3l5.1,5.8h1.7l-5.2-5.9l5-5.3h-1.7L136.4,66.3z M136.1,60.9 h-1.4v11.2h1.4V60.9z M154.1,74.2h1.3v-3.4h-1.5v-9.9h-1.4v9.9h-6v-9.9h-1.4v11.2h9V74.2z M165.6,72.1h1.4V60.9h-1.2l-6.8,9v-9 h-1.4v11.2h1.2l6.8-9V72.1z M171,70.7c1.1,1.1,2.6,1.7,4.1,1.6c1.5,0,3-0.5,4.1-1.6c1.1-1.1,1.7-2.6,1.6-4.1 c0.1-3.1-2.3-5.6-5.3-5.8c-0.1,0-0.2,0-0.4,0c-1.5,0-3,0.6-4.1,1.7C168.9,64.7,168.9,68.3,171,70.7L171,70.7z M172.1,63.3 c1.7-1.7,4.4-1.7,6.1,0c0,0,0,0,0,0c0.8,0.9,1.3,2,1.2,3.2c0,1.2-0.4,2.3-1.2,3.2c-0.8,0.9-1.9,1.3-3.1,1.3c-1.1,0-2.3-0.4-3-1.3 c-0.8-0.9-1.3-2-1.2-3.2C170.8,65.3,171.3,64.2,172.1,63.3L172.1,63.3z M192.2,60.9h-1.4v4.8h-6.2v-4.8h-1.4v11.2h1.4V67h6.2v5.1 h1.4V60.9z M202,70.8h-5.1v-3.7h4.5v-1.3h-4.5v-3.6h5v-1.3h-6.3v11.2h6.5V70.8z M207.8,67.9c1.1,0.1,2.2-0.3,3-1 c1.4-1.4,1.4-3.6,0.1-5c-0.9-0.7-2-1.1-3.2-1c-0.5,0-1,0-1.5,0c-0.5,0-1,0-1.4,0v11.2h1.4v-4.3C206.6,67.9,207.1,67.9,207.8,67.9 L207.8,67.9L207.8,67.9z M209.7,62.7c0.4,0.4,0.7,1,0.6,1.6c0,0.6-0.2,1.2-0.7,1.7c-0.6,0.4-1.2,0.6-1.9,0.6c-0.4,0-1,0-1.6-0.1 v-4.3c0.9,0,1.5,0,1.7,0C208.5,62.1,209.2,62.3,209.7,62.7z M223.2,60.9h-1.4v4.8h-6.2v-4.8h-1.4v11.2h1.4V67h6.2v5.1h1.4 L223.2,60.9L223.2,60.9z M227.3,70.7c1.1,1.1,2.6,1.7,4.1,1.6c1.5,0,3-0.5,4.1-1.6c1.1-1.1,1.7-2.6,1.6-4.1 c0.1-3.1-2.3-5.6-5.3-5.8c-0.1,0-0.2,0-0.4,0c-1.5,0-3,0.6-4.1,1.7C225.1,64.7,225.1,68.3,227.3,70.7L227.3,70.7z M228.3,63.3 c1.7-1.7,4.4-1.7,6.1,0c0,0,0,0,0,0c0.8,0.9,1.3,2,1.2,3.2c0,1.2-0.4,2.3-1.2,3.2c-0.8,0.9-1.9,1.3-3.1,1.3c-1.1,0-2.3-0.4-3-1.3 c-0.8-0.9-1.3-2-1.2-3.2C227.1,65.3,227.5,64.2,228.3,63.3L228.3,63.3z M246.1,70.8h-5.1v-3.7h4.5v-1.3h-4.5v-3.6h5v-1.3h-6.3v11.2 h6.5V70.8z M253.1,70.7c1.1,1.1,2.6,1.7,4.1,1.6c1.5,0,3-0.5,4.1-1.6c1.1-1.1,1.7-2.6,1.6-4.1c0.1-3.1-2.3-5.6-5.3-5.8 c-0.1,0-0.2,0-0.4,0c-1.5,0-3,0.6-4.1,1.7C251,64.7,251,68.3,253.1,70.7L253.1,70.7L253.1,70.7z M254.2,63.3c1.7-1.7,4.4-1.7,6.1,0 c0,0,0,0,0,0c0.8,0.9,1.3,2,1.2,3.2c0,1.2-0.4,2.3-1.2,3.2c-0.8,0.9-1.9,1.3-3.1,1.3c-1.1,0-2.3-0.4-3-1.3c-0.8-0.9-1.3-2-1.2-3.2 C252.9,65.3,253.3,64.2,254.2,63.3L254.2,63.3z M265.6,72.1c0.1,0,0.2,0,0.4,0c0.2,0,0.4,0,0.5,0c0.8,0,1.3,0,1.5,0 c1.1,0.1,2.3-0.3,3.2-0.9c0.8-0.7,1.2-1.6,1.1-2.6c0-0.9-0.3-1.8-1-2.4c-0.8-0.6-1.9-0.9-2.9-0.9c-0.6,0-1.1,0-1.7,0.1v-3.2h5v-1.3 h-6.3v11.2C265.5,72.1,265.5,72.1,265.6,72.1L265.6,72.1z M270.4,67.2c0.5,0.4,0.7,1,0.7,1.6c0,0.6-0.2,1.2-0.7,1.6 c-0.6,0.4-1.3,0.6-2,0.6c-0.4,0-1,0-1.5-0.1v-4.1c0.5-0.1,1.1-0.1,1.6-0.1C269.1,66.6,269.8,66.7,270.4,67.2L270.4,67.2z M288,74.2 h1.3v-3.4h-1.5v-9.9h-1.4v9.9h-4.2v-9.9h-1.4v9.9h-4.2v-9.9h-1.4v11.2H288L288,74.2L288,74.2z M297.9,70.8h-5.1v-3.7h4.5v-1.3h-4.5 v-3.6h5v-1.3h-6.3v11.2h6.5L297.9,70.8L297.9,70.8z M305.6,71c-1.2,0-2.3-0.4-3.2-1.2c-1.6-1.9-1.6-4.6,0-6.5 c0.8-0.8,1.9-1.3,3-1.2c1,0,2,0.3,2.8,0.8l0.6-1c-1-0.8-2.2-1.1-3.4-1.1c-1.5-0.1-3,0.5-4.1,1.6c-1,1.1-1.6,2.6-1.5,4.1 c-0.1,1.6,0.5,3.1,1.6,4.2c1.1,1.1,2.6,1.6,4.1,1.6c0.7,0,1.4-0.1,2-0.3c0.6-0.2,1.1-0.5,1.5-0.9l-0.5-1 C307.6,70.7,306.6,71,305.6,71L305.6,71L305.6,71z M313.5,72.1h1.4v-9.9h3.9v-1.3h-9.2v1.3h3.9V72.1z M323.7,72.2 c1.1,0.1,2.1-0.2,3-0.8c0.7-0.6,1.1-1.5,1.1-2.4c0-0.7-0.2-1.3-0.6-1.8c-0.4-0.5-1-0.8-1.7-0.9v0c0.6-0.2,1-0.5,1.4-1 c0.4-0.5,0.5-1,0.5-1.6c0-0.8-0.3-1.5-0.9-2c-0.8-0.5-1.8-0.8-2.7-0.7c-0.6,0-1.6,0-3.1,0.1v11.2C321.4,72.1,322.4,72.2,323.7,72.2 L323.7,72.2L323.7,72.2z M325.7,67.5c0.4,0.3,0.7,0.8,0.7,1.4c0,0.6-0.2,1.2-0.7,1.5c-0.6,0.4-1.3,0.6-1.9,0.5 c-0.7,0-1.3,0-1.7-0.1V67h1.8C324.5,67,325.1,67.1,325.7,67.5L325.7,67.5z M326,63.9c0,0.5-0.2,1-0.6,1.4c-0.4,0.3-1,0.5-1.6,0.5 H322v-3.6c0.8,0,1.4,0,1.7,0C325.2,62.2,326,62.7,326,63.9C326,63.9,326,63.9,326,63.9z M331.3,70.7c1.1,1.1,2.6,1.7,4.1,1.6 c1.5,0,3-0.5,4.1-1.6c1.1-1.1,1.7-2.6,1.6-4.1c0.1-3.1-2.3-5.6-5.3-5.8c-0.1,0-0.2,0-0.4,0c-1.5,0-3,0.6-4.1,1.7 C329.1,64.7,329.1,68.3,331.3,70.7L331.3,70.7L331.3,70.7z M332.3,63.3c1.7-1.7,4.4-1.7,6.1,0c0,0,0,0,0,0c0.8,0.9,1.3,2,1.2,3.2 c0,1.2-0.4,2.3-1.2,3.2c-0.8,0.9-1.9,1.3-3.1,1.3c-1.1,0-2.3-0.4-3-1.3c-0.8-0.9-1.3-2-1.2-3.2C331,65.3,331.5,64.2,332.3,63.3 L332.3,63.3z"></path> <g id="Слой_2"> <g id="Слой_1-2"> <path class="st3" d="M45.2,1.1c1.1,2.1,7.6,14.8,8.2,15.9C51.2,17.1,31,17,29.8,17c-0.4,0-0.7,0.1-0.9,0.4 c-0.1,0.2-0.3,0.4-0.4,0.6c-0.2,0.2-8.7,13.1-8.7,13.4c-0.1,0.4,0.1,0.8,0.4,1.1c0.7,0.9,9.5,11.3,9.9,11.7 c0.3,0.3,0.5,0.7,1,0.8c0.3,0,21,0.1,21.2,0.1c0.3,0,0.5,0,0.8,0c0.5-0.1,0.7-0.4,1-0.7c0.8-0.9,9.8-11.1,10.1-11.5 c0.1-0.2,0.4-0.6,0.7-0.5c0.1,0.1,0.2,0.2,0.3,0.3c0.2,0.2,8.3,11,8.6,11.5c0.2,0.3,0.5,0.6,0.4,1c-0.1,0.2-0.3,0.4-0.5,0.6 c-0.2,0.2-14.4,14.8-14.8,15.1c-0.3,0.3-0.7,0.4-1.1,0.4c-2.3,0-31.8,0.2-34.1,0.1c-0.4,0-0.8-0.1-1-0.4 c-0.2-0.2-0.3-0.4-0.5-0.6l-0.5-0.7c-0.7-0.9-20.3-25.9-21-26.8c-0.1-0.2-0.2-0.3-0.4-0.5C0.2,32,0.2,32,0.1,32 c-0.1,0-0.1,0-0.1-0.1c0-0.1,0-0.1,0-0.2c0.2-0.5,0.5-0.9,0.7-1.3C1.3,29.5,20.5,1.9,20.9,1.5c0.3-0.3,0.6-0.4,1-0.4 c1.1,0,19.1,0,20.2,0C42.6,1.1,44.7,1,45.2,1.1z"></path> <path class="st3" d="M74.5,74.2l-8.9-13.5c-0.6-0.9-1.2-1.8-1.8-2.8c0.3-0.2,0.5-0.1,0.7-0.1c7.5,0,15,0,22.4,0.1 c0.4,0,0.8-0.2,1-0.5c2.9-4.1,5.7-8.1,8.6-12.1c0.3-0.4,0.3-0.7,0-1.1c-3.1-4.4-6.2-8.9-9.2-13.3c-0.2-0.3-0.6-0.5-1-0.5 c-6.6-0.1-13.3-0.1-19.9-0.2c-1.2,0-1.9,0.4-2.7,1.3C60.4,35.2,57,39,53.6,42.9c-0.1,0.1-0.1,0.1-0.2,0.2 c-1.6-2.2-7.6-10.4-9-12.3c-0.3-0.4-0.3-0.7,0.1-1.1c4.6-5.1,9.2-10.2,13.8-15.3c0.2-0.3,0.6-0.5,1-0.4c11.9,0,23.9,0,35.8,0 c0.6,0,0.8,0.2,1.1,0.6c6.2,9.7,12.4,19.5,18.6,29.2c0.1,0.2,0.3,0.4,0.5,0.6v0.2c-0.8,1.8-1.8,3.4-2.8,5 c-4.6,7.9-9.2,15.7-13.8,23.6c-0.2,0.4-0.4,0.8-0.7,1L74.5,74.2z"></path> </g> </g> </g> </svg> 