<?xml version="1.0" encoding="utf-8"?>
<!-- Generator: Adobe Illustrator 21.0.0, SVG Export Plug-In . SVG Version: 6.00 Build 0)  -->
<svg version="1.1" id="Логотип_мой_бизнес"
	 xmlns="http://www.w3.org/2000/svg" xmlns:xlink="http://www.w3.org/1999/xlink" x="0px" y="0px" viewBox="0 0 237.4 125.2"
	 style="enable-background:new 0 0 237.4 125.2;" xml:space="preserve">
<style type="text/css">
	.st0{fill:none;}
	.st1{fill:#623B2A;}
	.st2{fill:#EC5338;}
	.st3{fill:#C49268;}
</style>
<title>logo--ferst</title>
<path class="st0" d="M6-2.3"/>
<path id="мой_бизнес_объект_инфаструктуры" class="st1" d="M94.5,38.2l5.5,6h0.1l5.2-6v10.6h7.2V27.2
	h-6.3l-6,7.3l-6.5-7.3h-6.5v21.6h7.2V38.2z M128.6,49.4c3.2,0.2,6.4-1,8.7-3.2c2.2-2.1,3.4-5.1,3.3-8.2c0.1-3.1-1.1-6-3.3-8.2
	c-2.3-2.2-5.5-3.4-8.7-3.2c-3.2-0.2-6.4,1-8.7,3.2c-2.2,2.2-3.3,5.1-3.3,8.2c-0.1,3.1,1.1,6,3.3,8.2
	C122.2,48.4,125.4,49.5,128.6,49.4z M125.5,34.6c0.8-0.8,1.9-1.3,3.1-1.3c1.2,0,2.3,0.4,3.1,1.3c1.6,1.9,1.6,4.8,0,6.7
	c-0.8,0.9-1.9,1.3-3.1,1.3c-1.2,0-2.3-0.4-3.1-1.3C123.9,39.4,123.9,36.6,125.5,34.6L125.5,34.6z M159.6,48.8h7.2V27.2h-7.2
	l-7.7,11.3V27.2h-7.2v21.6h7.2l7.7-11.3V48.8z M148.8,22.6c1.4,1.5,3.4,2.2,6.2,2.2c2.2,0.1,4.4-0.7,5.9-2.3
	c1.5-1.6,2.2-3.7,2.1-5.9h-6.2c0,1.9-0.6,2.8-1.8,2.8c-1.3,0-2-0.9-2-2.8h-6.2C146.6,18.8,147.3,21,148.8,22.6L148.8,22.6z M36.5,52
	c-0.6,0.3-1.1,0.5-1.8,0.7c-0.5,0.1-1.4,0.3-2.7,0.5c-1.5,0.2-2.9,0.6-4.2,1.2c-5.3,2.3-8,8.1-8,17.4c0,4.2,1,7.5,3.1,9.8
	c2.1,2.4,5.2,3.7,8.4,3.6c3,0.1,5.9-1.1,8-3.2c4-4.4,4.2-11.1,0.4-15.7c-1.9-2-4.6-3.1-7.3-2.9c-1.8,0-3.6,0.5-5.1,1.4
	c-1.5,0.8-2.7,2.1-3.4,3.7h-0.1c0.4-5.4,2.2-8.9,5.5-10.4c1.3-0.6,2.7-1,4.2-1.2c1.4-0.2,2.7-0.5,4-1c1.1-0.4,2.1-1.2,2.8-2.1
	l-2.1-3C37.6,51.2,37.1,51.7,36.5,52L36.5,52z M26.4,68.7c1.4-1.1,3.1-1.7,4.9-1.6c1.9-0.1,3.7,0.6,5.1,2c1.3,1.5,1.9,3.4,1.8,5.3
	c0.1,1.9-0.7,3.8-2,5.2c-1.3,1.4-3.2,2.2-5.1,2.1c-2,0-4-0.9-5.2-2.5c-1.4-1.9-2.1-4.2-2-6.6C24.3,71,25.2,69.6,26.4,68.7L26.4,68.7
	z M64.2,84.8H68V63.2h-3.8L51.7,79.3V63.2h-3.8v21.6h3.8l12.5-16.1V84.8z M88.8,83.5c1.6-1,2.6-2.8,2.5-4.7c0-1.3-0.4-2.5-1.2-3.4
	c-0.8-1-2-1.6-3.3-1.7v-0.1c2.3-0.6,3.9-2.7,3.8-5.1c0.1-1.7-0.7-3.3-2.1-4.3c-1.8-1.1-3.9-1.7-6-1.5c-1.7,0-3.3,0.3-4.9,0.8
	c-1.4,0.4-2.6,1.1-3.6,2.1l1.5,3c1.8-1.5,4.1-2.4,6.5-2.4c1.2-0.1,2.3,0.2,3.4,0.8c0.8,0.5,1.3,1.4,1.3,2.3c0,0.9-0.4,1.7-1.1,2.2
	c-0.8,0.6-1.7,0.9-2.7,0.9h-3.4v3.1H83c1.1-0.1,2.2,0.2,3.1,0.7c0.7,0.4,1.2,1.2,1.1,2.1c0,1.1-0.6,2.1-1.6,2.6
	c-1.2,0.7-2.7,1.1-4.1,1c-1.1,0-2.2-0.2-3.3-0.7c-1.1-0.4-2.2-1-3.1-1.7l-2,2.9c1,1,2.3,1.7,3.7,2.1c1.7,0.5,3.4,0.8,5.2,0.8
	C84.4,85.4,86.8,84.8,88.8,83.5L88.8,83.5z M116.8,63.2H113v8.9h-12v-8.9h-3.9v21.6h3.9v-9.1h12v9.1h3.8L116.8,63.2z M134.2,81.7
	c-1.9,0.1-3.8-0.5-5.3-1.7c-1.4-1.2-2.2-2.9-2.3-4.8h16.6c0.2-0.9,0.2-1.7,0.2-2.6c0.1-2.7-1-5.3-2.9-7.1c-1.9-1.9-4.5-2.9-7.2-2.8
	c-3.1-0.2-6,1-8.2,3.2c-2,2.2-3.1,5.1-3,8.1c-0.1,3.1,1,6,3.2,8.2c2.3,2.1,5.3,3.2,8.4,3.1c3,0.1,5.9-0.9,8.1-2.8l-1.2-3
	C139,81,136.6,81.8,134.2,81.7L134.2,81.7z M137.7,67.9c1.1,1.1,1.8,2.6,1.8,4.2h-13.1c0.2-1.6,0.9-3.1,2.2-4.2
	c1.3-1.1,3-1.6,4.7-1.6C134.9,66.2,136.5,66.8,137.7,67.9z M158.9,81.7c-2.1,0.1-4.1-0.7-5.6-2.1c-1.5-1.5-2.3-3.5-2.2-5.6
	c-0.1-2,0.7-4,2.2-5.5c1.4-1.4,3.3-2.2,5.2-2.2c2.3-0.1,4.5,0.7,6.2,2.3l1.8-3c-1.9-1.9-4.7-2.9-8.5-2.9c-3-0.1-5.8,1.1-7.8,3.3
	c-2.1,2.1-3.2,5-3.1,8c-0.1,3.1,1,6,3.2,8.2c2.3,2.1,5.3,3.2,8.4,3.1c3.7,0,6.4-1.2,8.3-3.6l-1.8-2.8
	C163.5,80.7,161.3,81.7,158.9,81.7L158.9,81.7z M3.9,104.2c1,0,2-0.3,2.8-1.1c0.7-0.7,1.1-1.7,1.1-2.7c0-1-0.4-2-1.1-2.7
	c-0.7-0.7-1.7-1.1-2.8-1c-1-0.1-2,0.3-2.8,1C0.3,98.4,0,99.4,0,100.4c0,1,0.4,2,1.1,2.7C1.8,103.8,2.8,104.2,3.9,104.2L3.9,104.2
	L3.9,104.2z M2.1,98.6c0.5-0.5,1.1-0.7,1.8-0.7c0.7,0,1.3,0.2,1.8,0.7c0.5,0.5,0.7,1.2,0.7,1.8c0,0.7-0.2,1.4-0.7,1.8
	c-0.5,0.5-1.1,0.7-1.8,0.7c-0.7,0-1.4-0.2-1.9-0.7c-0.5-0.5-0.7-1.2-0.7-1.8C1.3,99.7,1.5,99,2.1,98.6L2.1,98.6L2.1,98.6z
	 M14.6,93.1c-0.2,0.1-0.4,0.2-0.6,0.2l-0.9,0.2c-0.5,0.1-1,0.2-1.4,0.4C9.9,94.6,9,96.6,9,99.7c-0.1,1.2,0.3,2.3,1,3.3
	c0.7,0.8,1.7,1.2,2.8,1.2c1,0,2-0.4,2.7-1.1c1.3-1.5,1.4-3.7,0.1-5.2c-0.6-0.7-1.5-1-2.4-1c-0.6,0-1.2,0.2-1.7,0.5
	c-0.5,0.3-0.9,0.7-1.1,1.2l0,0c0.1-1.8,0.7-3,1.8-3.5c0.4-0.2,0.9-0.3,1.4-0.4c0.5-0.1,0.9-0.2,1.3-0.3c0.4-0.1,0.7-0.4,0.9-0.7
	l-0.7-1C15,92.8,14.8,93,14.6,93.1L14.6,93.1z M11.2,98.6c0.5-0.4,1-0.6,1.6-0.5c0.6,0,1.3,0.2,1.7,0.7c0.4,0.5,0.7,1.1,0.6,1.8
	c0,0.6-0.2,1.3-0.7,1.7c-0.4,0.5-1.1,0.7-1.7,0.7c-0.7,0-1.3-0.3-1.7-0.8c-0.5-0.6-0.7-1.4-0.7-2.2C10.5,99.4,10.8,98.9,11.2,98.6
	L11.2,98.6L11.2,98.6z M19.1,104h2.4c0.8,0.1,1.7-0.2,2.3-0.7c0.5-0.5,0.7-1.1,0.7-1.8c0-0.7-0.2-1.3-0.7-1.8
	c-0.6-0.5-1.4-0.7-2.2-0.7h-1.3v-2.2H17V98h2.1L19.1,104L19.1,104z M23.2,101.5c0,0.9-0.6,1.3-1.7,1.3h-1.1v-2.6h1.1
	C22.6,100.2,23.1,100.6,23.2,101.5L23.2,101.5z M29.6,103c-0.6,0-1.3-0.2-1.8-0.6c-0.5-0.4-0.7-1-0.8-1.6h5.5
	c0.1-0.3,0.1-0.6,0.1-0.9c0-0.9-0.3-1.8-1-2.4c-0.6-0.6-1.5-1-2.4-0.9c-1-0.1-2,0.3-2.7,1c-0.7,0.7-1,1.7-1,2.7c0,1,0.3,2,1.1,2.7
	c0.8,0.7,1.8,1.1,2.8,1c1,0,2-0.3,2.7-0.9l-0.4-1C31.2,102.7,30.4,103,29.6,103L29.6,103L29.6,103z M30.8,98.3
	c0.4,0.4,0.6,0.9,0.6,1.4H27c0.1-0.5,0.3-1,0.7-1.4c0.4-0.4,1-0.6,1.6-0.5C29.8,97.8,30.4,98,30.8,98.3L30.8,98.3z M36,100.3
	l3.3,3.7H41l-3.5-3.8l3.2-3.4h-1.6L36,100.3z M35.7,96.8h-1.3v7.2h1.3L35.7,96.8z M44.2,104h1.3v-5.9h2.6v-1.3h-6.6v1.3h2.6
	L44.2,104L44.2,104z"/>
<path id="_поддержки_МСП" class="st1" d="M56.1,114.8h-6.5v7.2h1.3v-6h3.9v6h1.3V114.8z M61.7,122.2c1,0,2-0.3,2.8-1.1
	c0.7-0.7,1.1-1.7,1.1-2.7c0-1-0.3-2-1.1-2.7c-0.7-0.7-1.7-1.1-2.8-1c-1-0.1-2,0.3-2.8,1c-0.7,0.7-1.1,1.7-1.1,2.7c0,1,0.4,2,1.1,2.7
	C59.7,121.8,60.7,122.2,61.7,122.2L61.7,122.2z M60,116.6c1-1,2.6-0.9,3.6,0.1c1,1,0.9,2.6-0.1,3.6l0,0c-1,1-2.6,1-3.6,0
	c-0.5-0.5-0.7-1.2-0.7-1.8C59.2,117.7,59.5,117.1,60,116.6L60,116.6L60,116.6z M67.3,122h5.8v1.8h1.2v-3h-1.2v-6h-4.9l-0.1,1.9
	c-0.1,0.8-0.2,1.7-0.4,2.5c-0.1,0.6-0.4,1.1-0.7,1.6h-0.9v3h1.2L67.3,122L67.3,122z M71.9,116v4.8h-3.5c0.3-0.4,0.5-0.9,0.6-1.4
	c0.2-0.7,0.3-1.4,0.4-2.2l0.1-1.2H71.9L71.9,116z M76,122h5.8v1.8H83v-3h-1.2v-6h-4.9l-0.1,1.9c-0.1,0.8-0.2,1.7-0.4,2.5
	c-0.1,0.6-0.4,1.1-0.7,1.6h-0.9v3H76L76,122L76,122z M80.5,116v4.8h-3.4c0.3-0.4,0.5-0.9,0.6-1.4c0.2-0.7,0.3-1.4,0.4-2.2l0.1-1.2
	H80.5L80.5,116z M87.8,121c-0.6,0-1.3-0.2-1.8-0.6c-0.5-0.4-0.7-1-0.8-1.6h5.5c0.1-0.3,0.1-0.6,0.1-0.9c0-0.9-0.3-1.8-1-2.4
	c-0.6-0.6-1.5-1-2.4-0.9c-1-0.1-2,0.3-2.7,1c-0.7,0.7-1,1.7-1,2.7c0,1,0.3,2,1.1,2.7c0.8,0.7,1.8,1.1,2.8,1c1,0,2-0.3,2.7-0.9
	l-0.4-1C89.5,120.7,88.7,121,87.8,121L87.8,121L87.8,121z M89.1,116.3c0.4,0.4,0.6,0.9,0.6,1.4h-4.4c0.1-0.5,0.3-1,0.7-1.4
	c0.4-0.4,1-0.6,1.6-0.5C88.1,115.8,88.6,116,89.1,116.3L89.1,116.3z M94.1,121.7c0.6,0.4,1.3,0.5,2,0.5c1,0,2-0.4,2.7-1.1
	c0.7-0.8,1-1.8,1-2.8c0-1-0.3-1.9-0.9-2.6c-0.6-0.7-1.5-1.1-2.4-1c-0.5,0-0.9,0.1-1.4,0.3c-0.4,0.2-0.8,0.4-1.1,0.7v-0.8h-1.3v10.4
	H94L94.1,121.7L94.1,121.7z M97.9,116.5c0.4,0.5,0.7,1.2,0.6,1.8c0,0.7-0.2,1.4-0.7,1.9c-0.5,0.5-1.1,0.8-1.8,0.7
	c-0.7,0-1.4-0.2-1.9-0.6v-3.6c0.5-0.6,1.3-1,2.1-1C96.8,115.8,97.4,116,97.9,116.5L97.9,116.5z M106.5,118.3l2.7,3.7h1.6l-2.8-3.7
	l2.6-3.5H109L106.5,118.3z M106.2,114.8h-1.3v7.2h1.3L106.2,114.8z M102,122l2.6-3.7l-2.5-3.5h-1.6l2.6,3.5l-2.8,3.7L102,122z
	 M113.7,118.3l3.3,3.7h1.8l-3.5-3.8l3.2-3.4h-1.7L113.7,118.3z M113.4,114.8h-1.4v7.2h1.3L113.4,114.8z M125.6,122h1.3v-7.2h-1.3
	l-4.2,5.4v-5.4h-1.3v7.2h1.3l4.2-5.4L125.6,122z M134.7,113l4,5.5h0.2l4-5.6v9.1h1.4v-11.2h-1.3l-4,5.7l-4.2-5.7h-1.4V122h1.4
	L134.7,113L134.7,113z M152.5,120.9c-1.2,0.1-2.4-0.4-3.2-1.2c-1.6-1.9-1.6-4.6,0-6.5c0.8-0.8,1.9-1.3,3-1.3c1,0,2,0.3,2.8,0.8
	l0.6-1c-1-0.8-2.2-1.2-3.4-1.1c-1.5-0.1-3,0.5-4.1,1.7c-1,1.1-1.6,2.6-1.5,4.1c-0.1,1.6,0.5,3.1,1.6,4.2c1.1,1.1,2.6,1.6,4.1,1.6
	c0.7,0,1.4-0.1,2-0.3c0.6-0.2,1.1-0.5,1.5-0.9l-0.5-1C154.5,120.6,153.5,121,152.5,120.9L152.5,120.9L152.5,120.9z M166.9,110.8
	h-8.8V122h1.4v-9.9h6.1v9.9h1.4V110.8z"/>
<path class="st2" d="M204.7,106.4c-0.9-2-1.8-3.8-2.7-5.7c-1.3-2.7-2.6-5.3-3.9-8c-0.5-1.1-1-2.2-1.6-3.3c-0.2-0.3,0-0.4,0.2-0.6
	c2.5-2.5,5-5,7.6-7.6c0.4-0.4,0.6-0.3,0.9,0c2.5,2.5,5,5,7.4,7.4c0.3,0.2,0.3,0.6,0.1,0.9c-1.2,2.5-2.4,5-3.5,7.4
	c-1.4,2.9-2.8,5.8-4.2,8.7C204.9,105.9,204.8,106.1,204.7,106.4z"/>
<path class="st3" d="M220.8,8.2c2.6-2.6,5.3-5.2,7.9-7.9c0.4-0.5,0.7-0.5,1.1,0c2.4,2.5,4.9,4.9,7.3,7.3c0.5,0.5,0.4,0.7,0,1.2
	c-2.5,2.4-4.9,4.8-7.3,7.3c-0.4,0.4-0.6,0.5-1,0.1C226.1,13.5,223.4,10.9,220.8,8.2z"/>
<path class="st3" d="M229.1,38.4c-0.3-3.1-1.1-6.1-2.4-8.9c-2.3-4.7-5.5-8.9-9.4-12.3c-3.6-3.3-7.5-6.1-11.7-8.5
	c-0.6-0.4-1.3-0.4-1.9-0.1c-4.2,2.3-8,5.1-11.6,8.3c-2,1.8-3.9,3.8-5.5,6c-3.6,4.8-6.1,10-6.4,16.1c-0.1,1-0.1,1.9,0,2.9
	c0.1,1.8,0.3,3.5,0.6,5.3c0.5,3.1,1.3,6.2,2.2,9.1c1.7,5.3,3.6,10.6,5.9,15.7c1.4,3.3,3,6.5,4.7,9.7c0.1-0.1,0.3-0.2,0.4-0.3
	c3.4-3.4,6.8-6.8,10.2-10.2c0.5-0.5,0.7-0.4,1.1,0c3.3,3.3,6.6,6.6,9.9,9.9c0.6,0.6,0.8,0.5,1.1-0.2c1.5-3,2.9-6,4.3-9
	c3.1-6.8,5.5-13.8,7.3-21C228.9,46.8,229.4,42.6,229.1,38.4z M217.1,43.5c-1,6.5-2.6,12.9-4.9,19c0,0.1-0.1,0.1-0.1,0.2
	c-0.3-0.1-0.5-0.3-0.7-0.5c-2-2-4.1-4.1-6.1-6.1c-0.4-0.4-0.6-0.4-1.1,0c-2,2.1-4.1,4.1-6.1,6.1c-0.2,0.3-0.4,0.5-0.7,0.6
	c-0.6-2-1.3-3.9-1.9-5.9c-1.2-4-2.2-8-2.9-12.1c-1.5-8.2,1.3-14.7,7.4-20c1.3-1.1,2.7-2.1,4.1-3c0.3-0.3,0.7-0.3,1.1-0.1
	c5.2,3.3,9.4,7.4,11.4,13.5C217.4,37.9,217.5,40.7,217.1,43.5L217.1,43.5z"/>
<path class="st3" d="M199,39.6c0-3.2,2.6-5.7,5.7-5.7c3.2,0,5.7,2.6,5.7,5.7c0,3.1-2.5,5.7-5.7,5.7c-3.1,0-5.7-2.5-5.8-5.6
	C199,39.7,199,39.6,199,39.6z"/>
<g>
	<path class="st1" d="M59.1,98.6l-4.1,5.2h-1.2v-7H55v5.2l4.1-5.2h1.2v7h-1.2V98.6z"/>
	<path class="st1" d="M69,103.9h-1.2v-3h-3.9v3h-1.2v-7h1.2v2.9h3.9v-2.9H69V103.9z"/>
	<path class="st1" d="M76,107h-1.2v-3h-0.2c-1.2,0-2.1-0.3-2.8-1c-0.7-0.7-1-1.6-1-2.6c0-1,0.3-1.9,1-2.6c0.7-0.7,1.6-1.1,2.8-1.1
		h0.2V93H76v3.7h0.2c1.1,0,2.1,0.3,2.7,1c0.7,0.7,1,1.6,1,2.6c0,1.1-0.3,2-1,2.7c-0.7,0.7-1.6,1-2.8,1H76V107z M72.1,100.4
		c0,0.8,0.2,1.4,0.7,1.8c0.5,0.5,1.1,0.7,1.8,0.7h0.1v-5h-0.2c-0.8,0-1.4,0.2-1.8,0.7C72.3,99,72.1,99.6,72.1,100.4z M76.2,97.9H76
		v5h0.1c0.8,0,1.4-0.2,1.8-0.7s0.7-1.1,0.7-1.8c0-0.7-0.2-1.3-0.7-1.8C77.6,98.1,77,97.9,76.2,97.9z"/>
	<path class="st1" d="M83,107h-1.2V96.9H83v0.8c0.2-0.3,0.6-0.5,1-0.7s0.9-0.3,1.4-0.3c1,0,1.8,0.3,2.4,1c0.6,0.7,0.9,1.5,0.9,2.6
		c0,1.1-0.3,2-1,2.7c-0.7,0.7-1.5,1.1-2.6,1.1c-0.8,0-1.5-0.2-2-0.5V107z M85,97.9c-0.8,0-1.5,0.3-2,1v3.5c0.6,0.4,1.2,0.5,1.9,0.5
		c0.7,0,1.3-0.2,1.8-0.7c0.4-0.5,0.7-1.1,0.7-1.8c0-0.7-0.2-1.3-0.6-1.8C86.3,98.1,85.8,97.9,85,97.9z"/>
	<path class="st1" d="M90.8,98.3l-0.3-1c0.7-0.4,1.5-0.6,2.3-0.6c0.9,0,1.6,0.2,2.1,0.7c0.4,0.5,0.6,1.2,0.6,2.2v4.3h-1.2V103
		c-0.6,0.7-1.3,1-2.2,1c-0.6,0-1.2-0.2-1.6-0.6s-0.6-0.9-0.6-1.6c0-0.7,0.2-1.2,0.7-1.6c0.5-0.4,1.1-0.6,1.9-0.6
		c0.7,0,1.3,0.2,1.7,0.5c0-0.8-0.1-1.4-0.3-1.7s-0.6-0.5-1.3-0.5C92.1,97.8,91.5,98,90.8,98.3z M92.5,102.9c0.7,0,1.3-0.3,1.8-0.9
		v-0.9c-0.4-0.3-1-0.5-1.6-0.5c-0.4,0-0.8,0.1-1.1,0.3c-0.3,0.2-0.4,0.5-0.4,0.8c0,0.3,0.1,0.6,0.3,0.8S92.1,102.9,92.5,102.9z"/>
	<path class="st1" d="M103,102l0.6,0.9c-0.6,0.8-1.5,1.2-2.7,1.2c-1.1,0-2-0.3-2.7-1c-0.7-0.7-1-1.6-1-2.7c0-1,0.3-1.9,1-2.6
		c0.7-0.7,1.5-1.1,2.5-1.1c1.2,0,2.1,0.3,2.8,0.9l-0.6,1c-0.5-0.5-1.2-0.7-2-0.7c-0.7,0-1.2,0.2-1.7,0.7c-0.5,0.5-0.7,1.1-0.7,1.8
		c0,0.8,0.2,1.4,0.7,1.8c0.5,0.5,1.1,0.7,1.8,0.7C101.8,102.9,102.5,102.6,103,102z"/>
	<path class="st1" d="M106.8,98.1h-2.6v-1.2h6.4v1.2h-2.6v5.8h-1.2V98.1z"/>
	<path class="st1" d="M113.2,107H112V96.9h1.2v0.8c0.2-0.3,0.6-0.5,1-0.7s0.9-0.3,1.4-0.3c1,0,1.8,0.3,2.4,1
		c0.6,0.7,0.9,1.5,0.9,2.6c0,1.1-0.3,2-1,2.7c-0.7,0.7-1.5,1.1-2.6,1.1c-0.8,0-1.5-0.2-2-0.5V107z M115.3,97.9c-0.8,0-1.5,0.3-2,1
		v3.5c0.6,0.4,1.2,0.5,1.9,0.5c0.7,0,1.3-0.2,1.8-0.7c0.4-0.5,0.7-1.1,0.7-1.8c0-0.7-0.2-1.3-0.6-1.8
		C116.5,98.1,116,97.9,115.3,97.9z"/>
	<path class="st1" d="M125.3,96.9h1.4l-2.8,7c-0.5,1.2-1,2.1-1.3,2.5c-0.4,0.4-0.8,0.7-1.4,0.7c-0.5,0-0.9-0.1-1.3-0.4l0.4-1
		c0.3,0.2,0.6,0.2,0.8,0.2c0.3,0,0.6-0.1,0.8-0.4c0.2-0.2,0.5-0.7,0.7-1.2l0.2-0.4l-3.4-7h1.5l2.1,4.5c0,0.1,0.2,0.4,0.4,1.1
		c0.1-0.3,0.2-0.7,0.3-1.1L125.3,96.9z"/>
	<path class="st1" d="M129.3,103.9H128v-7h1.2V103.9z M132.5,96.9h1.6l-3.1,3.4l3.4,3.7h-1.7l-3.2-3.6L132.5,96.9z"/>
	<path class="st1" d="M137.5,98.1h-2.6v-1.2h6.4v1.2h-2.6v5.8h-1.2V98.1z"/>
	<path class="st1" d="M147.8,96.9h1.4l-2.8,7c-0.5,1.2-1,2.1-1.3,2.5c-0.4,0.4-0.8,0.7-1.4,0.7c-0.5,0-0.9-0.1-1.3-0.4l0.4-1
		c0.3,0.2,0.6,0.2,0.8,0.2c0.3,0,0.6-0.1,0.8-0.4c0.2-0.2,0.5-0.7,0.7-1.2l0.2-0.4l-3.4-7h1.5l2.1,4.5c0,0.1,0.2,0.4,0.4,1.1
		c0.1-0.3,0.2-0.7,0.3-1.1L147.8,96.9z"/>
	<path class="st1" d="M151.7,107h-1.2V96.9h1.2v0.8c0.3-0.3,0.6-0.5,1-0.7s0.9-0.3,1.4-0.3c1,0,1.8,0.3,2.4,1
		c0.6,0.7,0.9,1.5,0.9,2.6c0,1.1-0.3,2-1,2.7c-0.7,0.7-1.5,1.1-2.6,1.1c-0.8,0-1.5-0.2-2-0.5V107z M153.8,97.9c-0.8,0-1.5,0.3-2,1
		v3.5c0.6,0.4,1.2,0.5,1.9,0.5c0.7,0,1.3-0.2,1.8-0.7c0.4-0.5,0.7-1.1,0.7-1.8c0-0.7-0.2-1.3-0.6-1.8
		C155,98.1,154.5,97.9,153.8,97.9z"/>
	<path class="st1" d="M161.4,103.9h-2.3v-7h1.2V99h1.2c1,0,1.7,0.2,2.1,0.6c0.4,0.4,0.7,1,0.7,1.8c0,0.7-0.2,1.3-0.7,1.8
		C163.2,103.6,162.4,103.9,161.4,103.9z M161.3,100.1h-0.9v2.6h0.9c0.6,0,1-0.1,1.3-0.3c0.3-0.2,0.4-0.5,0.4-1
		C163,100.6,162.4,100.1,161.3,100.1z M166.9,103.9h-1.2v-7h1.2V103.9z"/>
</g>
</svg>
