<svg width="139" height="44" viewBox="0 0 139 44" fill="none" xmlns="http://www.w3.org/2000/svg">
<path d="M6.5 36.5L9.6 43.2L12.8 36.5L9.6 33.3L6.5 36.5Z" fill="#623B2A"/>
<path d="M9.5 3.20001C8.8 3.60001 0 8.30001 0 15.8C0 22.2 5.2 31.9 5.2 31.9L9.5 27.6L13.8 31.9C13.8 31.9 19 22.2 19 15.8C19 8.30001 10.2 3.60001 9.5 3.20001ZM12.3 24.6L9.5 21.7L6.7 24.6C6.6 24.2 4.6 19 4.6 15.7C4.6 11.1 9.1 8.60001 9.5 8.40001C9.8 8.50001 14.4 11.1 14.4 15.7C14.4 19.1 12.5 24.2 12.3 24.6Z" fill="#C28E6B"/>
<path d="M19 0L15.7 3.3L19 6.5L22.2 3.3L19 0Z" fill="#623B2A"/>
<path d="M11.8 15.5C11.8 16.7 10.8 17.7 9.59999 17.7C8.39999 17.7 7.39999 16.7 7.39999 15.5C7.39999 14.3 8.39999 13.3 9.59999 13.3C10.8 13.2 11.8 14.2 11.8 15.5Z" fill="#623B2A"/>
<path d="M25.9 22.8V11.5H29.2L32.6 15.3L35.7 11.5H38.9V22.8H35.2V17.2L32.5 20.3H32.4L29.6 17.2V22.8H25.9Z" fill="#623B2A"/>
<path d="M40.5 17.1C40.5 15.5 41.1 14 42.2 12.8C44.8 10.6 48.6 10.6 51.2 12.8C53.5 15.2 53.5 18.9 51.2 21.3C50 22.5 48.4 23.1 46.7 23C45 23.1 43.4 22.5 42.2 21.3C41.1 20.3 40.5 18.7 40.5 17.1ZM46.7 19.6C47.9 19.6 48.9 18.7 48.9 17.5C48.9 17.4 48.9 17.3 48.9 17.2C49 16 48 14.9 46.8 14.8H46.7C45.5 14.8 44.5 15.8 44.5 17C44.5 17.1 44.5 17.1 44.5 17.2C44.4 18.4 45.3 19.5 46.5 19.6C46.6 19.6 46.6 19.6 46.7 19.6Z" fill="#623B2A"/>
<path d="M58.2 22.8H54.5V11.5H58.2V17.4L62.2 11.5H66V22.8H62.3V16.9L58.2 22.8ZM59.2 6C59.2 7 59.5 7.4 60.2 7.4C60.8 7.4 61.2 6.9 61.2 6H64.4C64.4 8.5 62.9 10.3 60.2 10.3C57.4 10.3 56 8.5 56 6H59.2Z" fill="#623B2A"/>
<path d="M78.2 6.6C77.9 7.1 77.3 7.5 76.8 7.7C76.1 8 75.4 8.1 74.7 8.2C74 8.3 73.2 8.5 72.5 8.8C70.8 9.6 69.9 11.4 69.7 14.2C70.6 12.6 72.3 11.5 74.1 11.6C77.3 11.6 79.3 13.8 79.3 17.2C79.3 18.7 78.7 20.2 77.7 21.3C76.6 22.4 75.1 23 73.6 23C71.9 23.1 70.3 22.4 69.3 21.1C68.2 19.6 67.6 17.8 67.7 16C67.7 11.1 69.1 8.1 71.8 6.9C72.5 6.6 73.2 6.4 74 6.3C75.5 6 76.4 5.8 77 5L78.2 6.6ZM73.5 21.1C74.5 21.1 75.4 20.7 76.1 20C76.8 19.3 77.2 18.3 77.1 17.3C77.1 15 75.8 13.5 73.5 13.5C72.6 13.5 71.7 13.8 71 14.3C70.3 14.8 69.9 15.5 69.7 16.3C69.8 19.2 71.3 21.1 73.5 21.1Z" fill="#623B2A"/>
<path d="M83.1 22.8H81.1V11.5H83.1V19.9L89.5 11.5H91.5V22.8H89.5V14.4L83.1 22.8Z" fill="#623B2A"/>
<path d="M95.1 22.6C94.4 22.4 93.7 22 93.2 21.5L94.2 20C95.1 20.7 96.3 21.2 97.5 21.2C99.2 21.2 100.4 20.5 100.4 19.4C100.4 18.5 99.6 18 98.2 18H96.3V16.4H98C98.9 16.5 99.8 15.8 99.9 14.9V14.8C99.9 13.8 99 13.2 97.5 13.2C96.3 13.2 95.1 13.7 94.1 14.4L93.3 12.9C94.5 11.9 96.1 11.3 97.7 11.4C100.4 11.4 101.9 12.5 101.9 14.4C102 15.6 101.1 16.7 99.9 17C101.3 17.1 102.3 18.3 102.3 19.6C102.3 21.7 100.4 23 97.5 23C96.8 23 96 22.8 95.1 22.6Z" fill="#623B2A"/>
<path d="M112.7 22.8V18H106.5V22.8H104.4V11.5H106.5V16.1H112.7V11.5H114.7V22.8H112.7Z" fill="#623B2A"/>
<path d="M126.7 21.5C125.5 22.5 124 23 122.5 23C120.9 23.1 119.3 22.5 118.1 21.4C117 20.3 116.4 18.7 116.4 17.1C116.3 15.6 116.9 14 117.9 12.9C119 11.7 120.5 11.1 122.1 11.2C123.5 11.2 124.8 11.7 125.8 12.6C126.8 13.6 127.3 14.9 127.3 16.3C127.3 16.8 127.3 17.2 127.2 17.7H118.6C118.8 19.8 120.3 21.1 122.5 21.1C123.8 21.2 125 20.8 125.9 19.9L126.7 21.5ZM118.6 16.1H125.4C125.4 14.5 124.1 13.1 122.5 13.1C122.4 13.1 122.3 13.1 122.2 13.1C120.3 13 118.8 14.3 118.6 16.1Z" fill="#623B2A"/>
<path d="M138.4 21.1C137.3 22.4 135.7 23 134.1 23C132.5 23.1 130.9 22.5 129.7 21.4C128.6 20.3 128 18.7 128 17.1C128 15.6 128.5 14.1 129.6 12.9C130.6 11.8 132.1 11.2 133.7 11.2C135.7 11.2 137.1 11.7 138.1 12.7L137.2 14.3C136.3 13.5 135.2 13.1 134 13.1C133 13.1 132 13.5 131.3 14.2C129.8 15.8 129.8 18.3 131.3 19.9C132.1 20.6 133.1 21 134.2 21C135.4 21 136.6 20.5 137.4 19.6L138.4 21.1Z" fill="#623B2A"/>
<path d="M31.6 33.9H26.2V27.1H27V33.1H30.6V27.1H31.4V33.1H32.3V35.1H31.5V33.9H31.6Z" fill="#623B2A"/>
<path d="M36.5 30.7L34 33.9H33.3V29.6H34V32.8L36.5 29.6H37.3V33.9H36.5V30.7Z" fill="#623B2A"/>
<path d="M41.6 35.8H40.8V34H40.7C39.5 34.1 38.5 33.2 38.4 32C38.4 31.9 38.4 31.8 38.4 31.8C38.4 31.2 38.6 30.6 39.1 30.2C39.6 29.8 40.2 29.5 40.8 29.5H40.9V27.2H41.7V29.5H41.8C42.4 29.5 43.1 29.7 43.5 30.2C43.9 30.6 44.2 31.2 44.2 31.8C44.2 32.4 44 33 43.6 33.4C43.2 33.8 42.5 34.1 41.9 34H41.8V35.9L41.6 35.8ZM39.2 31.7C39.2 32.1 39.3 32.5 39.6 32.8C39.9 33.1 40.3 33.3 40.7 33.2H40.8V30.1H40.7C40.3 30.1 39.9 30.2 39.6 30.5C39.4 30.9 39.2 31.3 39.2 31.7ZM41.8 30.2H41.7V33.3H41.8C42.2 33.3 42.6 33.2 42.9 32.9C43.2 32.6 43.3 32.2 43.3 31.8C43.3 31.4 43.2 31 42.9 30.7C42.5 30.3 42.2 30.2 41.8 30.2Z" fill="#623B2A"/>
<path d="M45.9 35.8H45.1V29.5H45.9V30C46.3 29.6 46.8 29.4 47.4 29.4C47.9 29.4 48.5 29.6 48.8 30C49.2 30.4 49.4 31 49.4 31.6C49.4 32.2 49.2 32.8 48.8 33.3C48.4 33.7 47.8 34 47.2 34C46.8 34 46.3 33.9 46 33.7L45.9 35.8ZM47.2 30.2C46.7 30.2 46.2 30.4 45.9 30.8V32.9C46.2 33.1 46.6 33.2 47 33.3C47.4 33.3 47.8 33.2 48.1 32.9C48.4 32.6 48.5 32.2 48.5 31.8C48.5 31.4 48.4 31 48.1 30.7C47.9 30.3 47.6 30.1 47.2 30.2Z" fill="#623B2A"/>
<path d="M50.9 33.4C50 32.5 50 31.1 50.9 30.2C51.8 29.3 53.3 29.3 54.2 30.2C55.1 31.1 55.1 32.5 54.2 33.4C53.8 33.8 53.2 34.1 52.5 34.1C51.9 34 51.3 33.8 50.9 33.4ZM51 31.7C51 32.1 51.1 32.5 51.4 32.8C51.7 33.1 52.1 33.3 52.5 33.2C52.9 33.2 53.3 33.1 53.6 32.8C53.9 32.5 54 32.1 54 31.7C54 31.3 53.9 30.9 53.6 30.6C53 30 52.1 30 51.5 30.6C51.2 30.9 51 31.3 51 31.7Z" fill="#623B2A"/>
<path d="M55.9 33.9V29.6H57.5C58.7 29.6 59.4 30 59.4 30.7C59.4 30.9 59.3 31.2 59.1 31.4C58.9 31.6 58.7 31.7 58.5 31.8C59.2 31.9 59.5 32.3 59.5 32.8C59.5 33.6 58.8 34.1 57.5 34.1H56.1C56 33.9 56 33.9 55.9 33.9ZM57.5 30.1C57.2 30.1 56.9 30.1 56.6 30.1V31.4H57.6C57.8 31.4 58.1 31.4 58.3 31.2C58.5 31.1 58.6 30.9 58.6 30.7C58.6 30.3 58.2 30.1 57.5 30.1ZM57.6 31.9H56.7V33.2C57.2 33.2 57.4 33.2 57.6 33.2C58.3 33.2 58.7 33 58.7 32.5C58.7 32.2 58.3 31.9 57.6 31.9Z" fill="#623B2A"/>
<path d="M60.9 30.5L60.7 29.9C61.1 29.6 61.6 29.5 62.1 29.5C62.6 29.5 63 29.6 63.4 29.9C63.7 30.3 63.8 30.8 63.8 31.3V34H63V33.4C62.7 33.8 62.1 34.1 61.6 34C61.2 34 60.9 33.9 60.6 33.6C60.4 33.3 60.2 33 60.3 32.6C60.3 32.2 60.4 31.8 60.7 31.6C61 31.3 61.5 31.2 61.9 31.2C62.3 31.2 62.7 31.3 63 31.5C63 31.1 62.9 30.8 62.8 30.4C62.7 30.2 62.4 30.1 62 30.1C61.6 30.2 61.2 30.3 60.9 30.5ZM61.9 33.3C62.3 33.3 62.8 33.1 63 32.7V32.1C62.7 31.9 62.4 31.8 62 31.8C61.8 31.8 61.5 31.8 61.3 32C61.1 32.1 61 32.3 61 32.5C61.2 32.9 61.6 33.2 61.9 33.3Z" fill="#623B2A"/>
<path d="M67 29.6H68.4V33.9H67.6V32.5H66.8L65.8 33.9H64.9L66.2 32.3C65.9 32.2 65.7 32.1 65.5 31.9C65.3 31.7 65.2 31.4 65.2 31.1C65.2 30.7 65.4 30.3 65.7 30C66 29.6 66.5 29.5 67 29.6ZM65.9 31C65.9 31.2 66 31.4 66.1 31.5C66.3 31.6 66.5 31.7 66.7 31.7H67.6V30.2H66.9C66.6 30.2 66.4 30.3 66.2 30.4C65.9 30.6 65.9 30.8 65.9 31Z" fill="#623B2A"/>
<path d="M75.7 33.9H75V30.3H72.6V33.9H71.8V29.5H75.7V33.9Z" fill="#623B2A"/>
<path d="M80.9 33.9H80.1V30.3H78.6V31C78.6 31.5 78.5 32 78.4 32.5C78.3 32.8 78.2 33.1 78 33.4C77.8 33.6 77.7 33.7 77.5 33.8C77.2 33.9 77 34 76.8 34V33.3C76.9 33.3 77 33.3 77 33.3C77.1 33.3 77.2 33.2 77.3 33.1C77.4 33 77.5 32.8 77.6 32.7C77.7 32.5 77.8 32.2 77.8 32C77.8 31.7 77.9 31.4 77.9 31L78 29.6H81L80.9 33.9Z" fill="#623B2A"/>
<path d="M82.5 30.5L82.3 29.9C82.7 29.6 83.2 29.5 83.7 29.5C84.2 29.5 84.6 29.6 85 29.9C85.3 30.3 85.4 30.8 85.4 31.3V34H84.7V33.4C84.4 33.8 83.8 34.1 83.3 34C82.9 34 82.6 33.9 82.3 33.6C82.1 33.3 81.9 33 82 32.6C82 32.2 82.1 31.8 82.4 31.6C82.7 31.3 83.2 31.2 83.6 31.2C84 31.2 84.4 31.3 84.7 31.5C84.7 31.1 84.6 30.8 84.5 30.4C84.4 30.2 84.1 30.1 83.7 30.1C83.2 30.2 82.8 30.3 82.5 30.5ZM83.5 33.3C83.9 33.3 84.4 33.1 84.6 32.7V32.1C84.3 31.9 84 31.8 83.6 31.8C83.4 31.8 83.1 31.8 82.9 32C82.7 32.1 82.6 32.3 82.6 32.5C82.6 32.7 82.7 32.9 82.8 33C83.1 33.2 83.3 33.3 83.5 33.3Z" fill="#623B2A"/>
<path d="M87.7 30.3H86.1V29.5H90V30.3H88.5V33.9H87.7V30.3Z" fill="#623B2A"/>
<path d="M93.6 35.8H92.8V34H92.7C91.5 34.1 90.5 33.2 90.4 32C90.4 31.9 90.4 31.8 90.4 31.8C90.4 31.2 90.6 30.6 91.1 30.2C91.6 29.8 92.2 29.5 92.8 29.5H92.9V27.2H93.7V29.5H93.8C94.4 29.5 95.1 29.7 95.5 30.2C95.9 30.6 96.2 31.2 96.2 31.8C96.2 32.4 96 33 95.6 33.4C95.2 33.8 94.5 34.1 93.9 34H93.8V35.9L93.6 35.8ZM91.2 31.7C91.2 32.1 91.3 32.5 91.6 32.8C91.9 33.1 92.3 33.3 92.7 33.2H92.8V30.1H92.7C92.3 30.1 91.9 30.2 91.6 30.5C91.4 30.9 91.2 31.3 91.2 31.7ZM93.8 30.2H93.7V33.3H93.8C94.2 33.3 94.6 33.2 94.9 32.9C95.2 32.6 95.3 32.2 95.3 31.8C95.3 31.4 95.2 31 94.9 30.7C94.6 30.3 94.2 30.2 93.8 30.2Z" fill="#623B2A"/>
<path d="M97.6 33.4C96.7 32.5 96.7 31.1 97.6 30.2C98.5 29.3 100 29.3 100.9 30.2C101.8 31.1 101.8 32.5 100.9 33.4C100.5 33.8 99.8 34.1 99.2 34.1C98.6 34 98 33.8 97.6 33.4ZM97.7 31.7C97.7 32.1 97.8 32.5 98.1 32.8C98.4 33.1 98.8 33.3 99.2 33.2C99.6 33.2 100 33.1 100.3 32.8C100.6 32.5 100.7 32.1 100.7 31.7C100.7 31.3 100.6 30.9 100.3 30.6C99.7 30 98.8 30 98.2 30.6C97.9 30.9 97.7 31.3 97.7 31.7Z" fill="#623B2A"/>
<path d="M103.4 35.8H102.6V29.5H103.4V30C103.8 29.6 104.3 29.4 104.9 29.4C105.4 29.4 106 29.6 106.3 30C106.7 30.4 106.9 31 106.9 31.6C106.9 32.2 106.7 32.8 106.3 33.3C105.9 33.7 105.3 34 104.7 34C104.3 34 103.8 33.9 103.5 33.7L103.4 35.8ZM104.6 30.2C104.1 30.2 103.6 30.4 103.3 30.8V32.9C103.6 33.1 104 33.2 104.4 33.3C104.8 33.3 105.2 33.2 105.5 32.9C105.8 32.6 105.9 32.2 105.9 31.8C105.9 31.4 105.8 31 105.5 30.7C105.4 30.3 105 30.1 104.6 30.2Z" fill="#623B2A"/>
<path d="M108.7 33.9H107.9V29.6H108.6L110.3 31.7L111.9 29.6H112.6V33.9H111.8V30.7L110.3 32.8H110.2L108.7 30.7V33.9Z" fill="#623B2A"/>
<path d="M114.2 30.5L114 29.9C114.4 29.6 114.9 29.5 115.4 29.5C115.9 29.5 116.3 29.6 116.7 29.9C117 30.3 117.1 30.8 117.1 31.3V34H116.4V33.4C116.1 33.8 115.5 34.1 115 34C114.6 34 114.3 33.9 114 33.6C113.8 33.3 113.6 33 113.7 32.6C113.7 32.2 113.8 31.8 114.1 31.6C114.4 31.3 114.9 31.2 115.3 31.2C115.7 31.2 116.1 31.3 116.4 31.5C116.4 31.1 116.3 30.8 116.2 30.4C116.1 30.2 115.8 30.1 115.4 30.1C114.9 30.2 114.5 30.3 114.2 30.5ZM115.2 33.3C115.6 33.3 116.1 33.1 116.3 32.7V32.1C116 31.9 115.7 31.8 115.3 31.8C115.1 31.8 114.8 31.8 114.6 32C114.4 32.1 114.3 32.3 114.3 32.5C114.3 32.7 114.4 32.9 114.5 33C114.8 33.2 115 33.3 115.2 33.3Z" fill="#623B2A"/>
</svg>
