<svg width="40" height="42" viewBox="0 0 40 42" fill="none" xmlns="http://www.w3.org/2000/svg">
<path d="M34.7 9.99998C41.1 18.3 39.6 30.2 31.3 36.6C23 43 11.1 41.5 4.69998 33.2C-1.70002 24.9 -0.20002 13 8.09998 6.59998C11.4 3.99998 15.5 2.59998 19.7 2.59998" stroke="#D34839" stroke-width="1.417" stroke-miterlimit="10" stroke-linecap="round" stroke-dasharray="0.2 0.2"/>
<path d="M27.9 20.2L26.5 18.9V14.5C26.5 14.2 26.3 14 26 14H22.5C22.2 14 22 14.2 22 14.5V14.8L20.2 13.2C19.8 12.9 19.3 12.9 19 13.2L11.3 20.2C10.9 20.5 10.9 21.1 11.2 21.4C11.4 21.6 11.6 21.7 11.9 21.7H13.1V28.7C13.1 29 13.3 29.2 13.6 29.2H17.8C18.1 29.2 18.3 29 18.3 28.7V24.4H20.8V28.7C20.8 29 21 29.2 21.3 29.2H25.5C25.8 29.2 26 29 26 28.7V21.7H27.2C27.7 21.7 28.1 21.3 28.1 20.8C28.1 20.6 28 20.4 27.9 20.2ZM25.5 20.8C25.3 20.8 25 21 25 21.3V28.3H21.8V24C21.8 23.7 21.6 23.5 21.3 23.5H17.8C17.5 23.5 17.3 23.7 17.3 24V28.3H14.1V21.3C14.1 21 13.9 20.8 13.6 20.8H12.2L19.6 14.1L22.1 16.4C22.3 16.6 22.6 16.6 22.8 16.4C22.9 16.3 22.9 16.2 22.9 16.1V15H25.4V19.1C25.4 19.2 25.5 19.4 25.6 19.5L27 20.7L25.5 20.8Z" fill="#D34839"/>
<path d="M24.7 3.79995L27.9 6.79995L32.7999 1.69995" stroke="#D34839" stroke-width="1.417" stroke-linecap="round"/>
</svg>
