<svg width="65" height="45" viewBox="0 0 65 45" fill="none" xmlns="http://www.w3.org/2000/svg">
<path d="M32.6 26.2C33.2 24.6 33.6 22.8 33.5 21.1C34.6 20.2 38.7 19.2 38.7 19.2L38.4 17.7C36.6 17.9 34.8 17.8 32.9 17.5C32.5 16.2 31.9 14.9 31.1 13.8C31.6 12.7 32.4 11.7 33.4 10.9L32.4 9.69999C31.5 10.5 30.5 11.1 29.3 11.6C28.6 10.9 27.7 10.3 26.9 9.79999C26.6 8.39999 27.9 4.29999 27.9 4.29999L26.4 3.79999C25.6 5.39999 24.7 6.99999 23.5 8.39999C22.2 8.09999 20.9 7.89999 19.6 7.99999C18.9 6.99999 18.5 5.79999 18.2 4.59999L16.7 4.89999C16.9 6.09999 17 7.29999 16.8 8.39999C15.7 8.69999 14.6 9.09999 13.6 9.69999C12.2 9.19999 9.29999 6.09999 9.29999 6.09999L8.09999 7.09999C9.09999 8.59999 9.99999 10.1 10.7 11.8C9.69999 12.8 8.79999 14.1 8.09999 15.4C6.99999 15.4 5.79999 15.3 4.69999 14.9L4.19999 16.4C5.19999 16.8 6.19999 17.3 7.09999 17.9C6.79999 19.1 6.59999 20.2 6.69999 21.4C5.09999 22.1 3.49999 22.7 1.79999 23.1L2.09999 24.7C3.79999 24.5 5.49999 24.6 7.19999 24.8C7.59999 26.2 8.19999 27.6 8.99999 28.8C8.49999 29.8 7.69999 30.7 6.89999 31.4L7.99999 32.6C8.79999 31.9 9.79999 31.3 10.8 30.8C12.2 32.1 13.8 33.2 15.6 33.8C15.9 35.6 16 37.4 15.9 39.2L17.5 39.3C17.8 37.7 18.3 36.1 19 34.5C20.8 34.7 22.6 34.5 24.3 33.9C25 34.8 25.5 35.8 25.9 36.8L27.4 36.3C27 35.2 26.8 34 26.8 32.8C28.4 31.9 29.9 30.6 31 29.1C32.7 29.6 34.3 30.2 35.9 31.1L36.7 29.7C35.1 28.8 33.8 27.6 32.6 26.2Z" fill="white"/>
<path d="M29.7 24.7C29 24.5 28.9 23.1 28.4 21.4C28.4 21.2 28.3 21 28.2 20.7C28.1 20.5 28 20.2 28 20C27.8 19.5 27.6 19 27.3 18.5C26.2 16.4 24.5 14.7 22.3 13.7C21.8 13.5 21.3 13.3 20.8 13.1C20.6 13 20.3 12.9 20.1 12.9C19.9 12.9 19.6 12.8 19.4 12.7C17.6 12.3 16.3 12.2 16 11.6C15.9 11.4 16 11.2 16.1 11.1C16.2 10.8 16.4 10.6 16.7 10.5C17.5 9.89999 18.4 9.49999 19.4 9.39999C19.7 9.29999 20 9.29999 20.4 9.29999C20.7 9.29999 21.1 9.29999 21.5 9.29999C23.2 9.39999 24.8 9.79999 26.3 10.6C28 11.5 29.5 12.9 30.5 14.6C31.4 16.1 31.9 17.7 32 19.4C32 19.8 32 20.1 32 20.5C32 20.8 32 21.2 31.9 21.5C31.8 22.5 31.4 23.4 30.9 24.2C30.7 24.4 30.5 24.6 30.3 24.8C30 24.7 29.9 24.7 29.7 24.7Z" fill="#F1F1F1"/>
<path d="M9.59998 5.20001C9.79998 5.40001 9.39998 6.10001 8.79998 6.70001C8.59998 6.90001 8.39998 7.00001 8.09998 7.20001C7.69998 7.40001 7.29998 7.50001 7.19998 7.40001C6.99998 7.20001 7.39998 6.50001 7.99998 5.90001C8.79998 5.30001 9.39998 5.00001 9.59998 5.20001Z" fill="#DADADA"/>
<path d="M8.19998 7.09998C8.59998 6.89998 8.99998 6.49998 9.39998 6.09998C9.59998 6.29998 9.79998 6.49998 9.99998 6.79998C9.49998 7.09998 8.89998 7.29998 8.39998 7.49998L8.19998 7.09998Z" fill="black"/>
<path d="M4.6 14C4.9 14.1 4.9 14.8 4.6 15.7C4.5 16 4.4 16.2 4.3 16.5C4.1 16.9 3.8 17.2 3.6 17.1C3.3 17 3.3 16.3 3.6 15.4C3.9 14.6 4.3 14 4.6 14Z" fill="#DADADA"/>
<path d="M4.29999 16.4C4.59999 15.9 4.69999 15.4 4.79999 14.9C5.09999 15 5.39999 15.1 5.69999 15.2C5.39999 15.7 5.09999 16.2 4.59999 16.6L4.29999 16.4Z" fill="black"/>
<path d="M1.29999 22.5C1.59999 22.4 1.99999 23.1 2.09999 24C2.19999 24.3 2.19999 24.5 2.19999 24.8C2.19999 25.3 2.09999 25.6 1.89999 25.7C1.59999 25.8 1.19999 25.1 1.09999 24.2C0.899993 23.3 0.999993 22.5 1.29999 22.5Z" fill="#DADADA"/>
<path d="M2.19999 24.7C2.19999 24.2 2.09999 23.6 1.89999 23.1C2.19999 23 2.49999 23 2.79999 22.9C2.79999 23.5 2.69999 24.1 2.49999 24.6L2.19999 24.7Z" fill="black"/>
<path d="M6.09997 31.2C6.39997 31 6.99997 31.4 7.59997 32C7.79997 32.2 7.99997 32.4 8.09997 32.7C8.29997 33.1 8.39997 33.5 8.29997 33.6C8.09997 33.8 7.39997 33.4 6.79997 32.8C6.19997 32.1 5.89997 31.4 6.09997 31.2Z" fill="#DADADA"/>
<path d="M8.1 32.5999C7.8 32.0999 7.5 31.7 7 31.4C7.2 31.2 7.5 31 7.7 30.7C8 31.2 8.2 31.6999 8.4 32.2999L8.1 32.5999Z" fill="black"/>
<path d="M15.1 39.6C15.1 39.3 15.9 39.1 16.7 39.2C17 39.2 17.2 39.3 17.5 39.3C18 39.4 18.3 39.6 18.2 39.8C18.2 40.1 17.4 40.3 16.6 40.2C15.8 40.2 15.1 39.9 15.1 39.6Z" fill="#DADADA"/>
<path d="M17.5 39.2999C17 39.1999 16.4 39.2 15.9 39.2C15.9 38.9 15.9 38.6 15.9 38.2C16.5 38.3 17 38.6 17.5 38.9V39.2999Z" fill="black"/>
<path d="M25.3 37.6C25.2 37.3 25.8 36.9 26.6 36.6C26.9 36.5 27.1 36.4 27.4 36.4C27.9 36.3 28.2 36.4 28.3 36.6C28.4 36.9 27.8 37.3 27 37.6C26.1 37.9 25.4 37.9 25.3 37.6Z" fill="#DADADA"/>
<path d="M27.3 36.4C26.8 36.5 26.3 36.7 25.8 37C25.7 36.7 25.6 36.4 25.5 36.1C26.1 36 26.7 36 27.2 36.1L27.3 36.4Z" fill="black"/>
<path d="M35.8 32.1C35.5 32 35.7 31.2 36.1 30.4C36.2 30.2 36.4 29.9 36.6 29.7C36.9 29.3 37.2 29.1 37.4 29.2C37.7 29.3 37.5 30.1 37.1 30.9C36.6 31.7 36 32.2 35.8 32.1Z" fill="#DADADA"/>
<path d="M36.5 29.7999C36.2 30.1999 35.9 30.7 35.7 31.2C35.4 31.1 35.1 30.8999 34.8 30.7999C35.2 30.2999 35.6 30 36.1 29.7L36.5 29.7999Z" fill="black"/>
<path d="M14.9 24.2C15.1 25.2 14.7 26.1 14 26.3C13.3 26.5 12.6 25.7 12.4 24.7C12.2 23.7 12.6 22.8 13.3 22.6C14 22.4 14.7 23.2 14.9 24.2Z" fill="black"/>
<path d="M14.2 23.2C14.4 24.2 14 25.1 13.3 25.3C12.6 25.5 11.9 24.7 11.7 23.7C11.5 22.7 11.9 21.8 12.6 21.6C13.3 21.5 14 22.2 14.2 23.2Z" fill="#EAEAEA"/>
<path d="M12.5 13.7C13.3 13.1 14.3 13 14.8 13.5C15.2 14 14.9 15 14.1 15.6C13.3 16.2 12.3 16.3 11.8 15.8C11.3 15.3 11.6 14.3 12.5 13.7Z" fill="black"/>
<path d="M11.7 12.8C12.5 12.2 13.5 12.1 14 12.6C14.4 13.1 14.1 14.1 13.3 14.7C12.5 15.3 11.5 15.4 11 14.9C10.6 14.4 10.9 13.5 11.7 12.8Z" fill="#EAEAEA"/>
<path d="M19.5 29.1C19.6 29.8 19.2 30.4 18.5 30.5C17.8 30.6 17.2 30.2 17.1 29.5C17 28.8 17.4 28.2 18.1 28.1C18.7 28 19.4 28.4 19.5 29.1Z" fill="black"/>
<path d="M19.4 28.4C19.5 29.1 19.1 29.7 18.4 29.8C17.7 29.9 17.1 29.5 17 28.8C16.9 28.1 17.3 27.5 18 27.4C18.6 27.3 19.3 27.8 19.4 28.4Z" fill="#EAEAEA"/>
<path d="M24 14.6C24.8 14.4 25.6 14.9 25.8 15.7C26 16.5 25.5 17.3 24.7 17.5C23.9 17.7 23.1 17.2 22.9 16.4C22.7 15.6 23.2 14.7 24 14.6Z" fill="black"/>
<path d="M26.1 16.2C25.6 16.9 24.7 17.1 24 16.7C23.3 16.3 23.1 15.3 23.5 14.6C24 13.9 24.9 13.7 25.6 14.1C26.3 14.5 26.5 15.5 26.1 16.2Z" fill="#EAEAEA"/>
<path d="M25.9 29.2C26 29.7 25.7 30.2 25.2 30.2C24.7 30.3 24.2 30 24.2 29.5C24.1 29 24.4 28.6 24.9 28.5C25.3 28.4 25.8 28.7 25.9 29.2Z" fill="black"/>
<path d="M25.8 28.7C25.9 29.2 25.6 29.7 25.1 29.7C24.6 29.8 24.1 29.5 24.1 29C24 28.5 24.3 28.1 24.8 28C25.3 27.9 25.7 28.2 25.8 28.7Z" fill="#EAEAEA"/>
<path d="M39.3 19.8C39 19.9 38.7 19.2 38.5 18.4C38.4 18.1 38.4 17.9 38.4 17.6C38.4 17.1 38.5 16.8 38.7 16.8C39 16.7 39.3 17.4 39.5 18.2C39.7 19 39.6 19.8 39.3 19.8Z" fill="#DADADA"/>
<path d="M38.4 17.6C38.4 18.1 38.5 18.6 38.7 19.1C38.4 19.2 38.1 19.2 37.8 19.3C37.8 18.7 37.9 18.1 38 17.6H38.4Z" fill="black"/>
<path d="M34.3 11.1C34.1 11.3 33.4 10.9 32.9 10.3C32.7 10.1 32.6 9.90001 32.4 9.70001C32.2 9.30001 32.1 9.00001 32.2 8.80001C32.4 8.60001 33.1 9.00001 33.6 9.60001C34.2 10.3 34.5 10.9 34.3 11.1Z" fill="#DADADA"/>
<path d="M32.4 9.70001C32.7 10.2 33 10.6 33.5 10.8C33.3 11 33 11.2 32.8 11.4C32.5 10.9 32.3 10.4 32.2 9.80001L32.4 9.70001Z" fill="black"/>
<path d="M28.8 4.1C28.7 4.4 28 4.4 27.1 4.1C26.8 4 26.6 3.9 26.4 3.8C26 3.6 25.7 3.3 25.8 3.1C25.9 2.8 26.6 2.8 27.5 3.1C28.2 3.4 28.8 3.8 28.8 4.1Z" fill="#DADADA"/>
<path d="M26.4 3.79999C26.9 3.99999 27.4 4.19999 27.9 4.29999C27.8 4.59999 27.7 4.89999 27.6 5.19999C27.1 4.89999 26.6 4.59999 26.2 4.09999L26.4 3.79999Z" fill="black"/>
<path d="M18.9 3.9C19 4.2 18.3 4.6 17.5 4.7C17.2 4.8 17 4.8 16.7 4.8C16.2 4.8 15.9 4.7 15.8 4.5C15.7 4.2 16.4 3.8 17.2 3.7C18.1 3.6 18.8 3.7 18.9 3.9Z" fill="#DADADA"/>
<path d="M16.7 4.89998C17.2 4.89998 17.8 4.79998 18.2 4.59998C18.3 4.89998 18.3 5.19998 18.4 5.49998C17.8 5.49998 17.3 5.39998 16.7 5.29998V4.89998Z" fill="black"/>
<path d="M28.6 25.5C28.3 26.5 27.5 27.1 26.8 26.9C26.1 26.7 25.9 25.7 26.2 24.7C26.5 23.7 27.3 23.1 28 23.3C28.6 23.5 28.9 24.5 28.6 25.5Z" fill="black"/>
<path d="M29 24.9C28.7 25.9 27.9 26.5 27.2 26.3C26.5 26.1 26.3 25.1 26.6 24.1C26.9 23.1 27.7 22.5 28.4 22.7C29.1 22.9 29.4 23.9 29 24.9Z" fill="#EAEAEA"/>
<path d="M21.9 20.6C22.1 21.6 21.4 22.6 20.4 22.8C19.4 23 18.4 22.3 18.2 21.3C18 20.3 18.7 19.3 19.7 19.1C20.8 18.9 21.8 19.6 21.9 20.6Z" fill="black"/>
<path d="M21.7 19.5C21.9 20.5 21.2 21.5 20.2 21.7C19.2 21.9 18.2 21.2 18 20.2C17.8 19.2 18.5 18.2 19.5 18C20.6 17.8 21.6 18.5 21.7 19.5Z" fill="#EAEAEA"/>
<path d="M28.5 29.8C28.6 29.9 28.5 30.2 28.1 30.7C27.6 31.3 26.9 31.9 26.2 32.3C25.7 32.6 25.2 32.9 24.7 33.1C20.6 34.9 15.9 34.3 12.3 31.7C11.8 31.4 11.4 31 11 30.6C10.4 30 9.89999 29.4 9.59999 28.6C9.29999 28.1 9.29999 27.7 9.39999 27.6C9.69999 27.4 10.6 28.2 12.1 29.2C12.5 29.5 12.9 29.7 13.4 30C13.9 30.3 14.4 30.5 14.9 30.7C17.3 31.7 19.8 32 22.3 31.6C22.9 31.5 23.4 31.4 23.9 31.3C24.4 31.2 24.9 31 25.3 30.9C27.3 30.2 28.3 29.5 28.5 29.8Z" fill="#F1F1F1"/>
<path d="M8.5 23C9.1 22.9 9.7 23.3 9.8 23.9C9.9 24.5 9.5 25.1 8.9 25.2C8.3 25.3 7.7 24.9 7.6 24.3C7.5 23.7 7.9 23.1 8.5 23Z" fill="#EAEAEA"/>
<path d="M50 38.3C50.3 37.6 50.4 36.8 50.4 36C51.1 35.6 51.9 35.3 52.7 35.2L52.6 34.5C51.8 34.6 51 34.5 50.2 34.4C50 33.8 49.8 33.3 49.4 32.8C49.6 32.3 50 31.9 50.4 31.5L49.9 31C49.5 31.3 49 31.6 48.5 31.9C48.2 31.6 47.8 31.3 47.4 31.1C47.4 30.3 47.6 29.5 47.8 28.7L47.1 28.5C46.8 29.2 46.3 29.9 45.8 30.5C45.2 30.4 44.6 30.3 44.1 30.3C43.8 29.8 43.6 29.3 43.5 28.8L43 28.9C43.1 29.4 43.1 29.9 43.1 30.5C42.6 30.6 42.1 30.8 41.7 31.1C41 30.7 40.4 30.1 39.8 29.5L39.3 30C39.8 30.6 40.1 31.4 40.4 32.1C39.9 32.6 39.6 33.1 39.3 33.7C38.8 33.7 38.3 33.6 37.8 33.5L37.5 34C38 34.2 38.4 34.4 38.8 34.7C38.7 35.2 38.6 35.7 38.6 36.3C37.9 36.6 37.2 36.9 36.4 37L36.5 37.7C37.3 37.6 38 37.6 38.8 37.8C39 38.4 39.2 39 39.6 39.6C39.4 40 39 40.4 38.7 40.8L39.2 41.3C39.6 41 40 40.7 40.4 40.5C41 41.1 41.7 41.5 42.5 41.8C42.6 42.6 42.7 43.4 42.6 44.2L43.3 44.3C43.4 43.6 43.7 42.9 44 42.2C44.8 42.3 45.6 42.2 46.4 41.9C46.7 42.3 46.9 42.7 47.1 43.2L47.8 43C47.6 42.5 47.5 42 47.5 41.5C48.2 41.1 48.9 40.5 49.4 39.9C50.1 40.1 50.9 40.4 51.6 40.8L51.9 40.2C51.1 39.5 50.5 38.9 50 38.3Z" fill="#DDD2D2"/>
<path d="M48.7 37.7C48.4 37.6 48.4 37 48.1 36.2C48.1 36.1 48 36 48 35.9C48 35.8 47.9 35.7 47.9 35.6C47.8 35.4 47.7 35.2 47.6 34.9C47.1 34 46.3 33.2 45.4 32.8C45.2 32.7 45 32.6 44.7 32.5C44.6 32.5 44.5 32.4 44.4 32.4C44.3 32.4 44.2 32.3 44.1 32.3C43.3 32.1 42.7 32.1 42.6 31.8C42.6 31.7 42.6 31.6 42.6 31.6C42.7 31.5 42.8 31.4 42.9 31.3C43.3 31 43.7 30.9 44.1 30.8C44.2 30.8 44.4 30.8 44.5 30.7C44.7 30.7 44.8 30.7 45 30.7C45.8 30.7 46.5 30.9 47.1 31.3C47.9 31.7 48.5 32.3 48.9 33.1C49.3 33.7 49.5 34.5 49.6 35.2C49.6 35.4 49.6 35.5 49.6 35.7C49.6 35.8 49.6 36 49.6 36.1C49.5 36.5 49.4 37 49.2 37.3C49.1 37.4 49 37.5 48.9 37.6C48.9 37.7 48.8 37.7 48.7 37.7Z" fill="#F4F4F4"/>
<path d="M39.8 29C39.9 29.1 39.7 29.4 39.4 29.6C39.3 29.7 39.2 29.8 39.1 29.8C39 30 38.8 30.1 38.8 30C38.7 29.9 38.9 29.6 39.2 29.4C39.4 29.1 39.7 28.9 39.8 29Z" fill="#E7E6E6"/>
<path d="M39.2 29.9C39.4 29.8 39.6 29.6 39.7 29.4C39.8 29.5 39.9 29.6 40 29.7C39.8 29.8 39.4999 29.9 39.2999 30L39.2 29.9Z" fill="#BDAEAE"/>
<path d="M37.6 32.9C37.7 32.9 37.7 33.3 37.6 33.6C37.6 33.7 37.5 33.8 37.5 33.9C37.4 34.1 37.3 34.2 37.2 34.2C37.1 34.2 37.1 33.8 37.2 33.5C37.3 33.2 37.5 32.9 37.6 32.9Z" fill="#E7E6E6"/>
<path d="M37.5 34C37.6 33.8 37.7 33.6 37.7 33.3C37.8 33.3 38 33.4001 38.1 33.4001C38 33.6001 37.8 33.8 37.6 34H37.5Z" fill="#BDAEAE"/>
<path d="M36.1 36.7C36.2 36.7 36.4 37 36.5 37.3C36.5 37.4 36.5 37.5 36.5 37.7C36.5 37.9 36.5 38.1 36.4 38.1C36.3 38.1 36.1 37.8 36 37.5C35.9 37.2 36 36.7 36.1 36.7Z" fill="#E7E6E6"/>
<path d="M36.5 37.7C36.5 37.5 36.4 37.2 36.3 37C36.4 37 36.6 36.9 36.7 36.9C36.7 37.2 36.7 37.4 36.6 37.7H36.5Z" fill="#BDAEAE"/>
<path d="M38.3 40.5C38.4 40.4 38.7 40.6 38.9 40.9C39 41 39.1 41.1 39.1 41.2C39.2 41.4 39.2 41.5 39.2 41.6C39.1 41.7 38.8 41.5 38.6 41.2C38.3 40.9 38.2 40.6 38.3 40.5Z" fill="#E7E6E6"/>
<path d="M39.1 41.2C39 41 38.8 40.8 38.6 40.7C38.7 40.6 38.8 40.5 38.9 40.4C39 40.6 39.1 40.9 39.2 41.1L39.1 41.2Z" fill="#BDAEAE"/>
<path d="M42.2 44.3C42.2 44.2 42.5 44.1 42.9 44.1C43 44.1 43.0999 44.1 43.2999 44.2C43.4999 44.3 43.5999 44.3 43.5999 44.4C43.5999 44.5 43.3 44.6 42.9 44.6C42.5 44.5 42.2 44.4 42.2 44.3Z" fill="#E7E6E6"/>
<path d="M43.3 44.2001C43.1 44.1001 42.8 44.1001 42.6 44.2001C42.6 44.1001 42.6 43.9 42.6 43.8C42.9 43.9 43.1 44 43.3 44.1V44.2001Z" fill="#BDAEAE"/>
<path d="M46.8 43.4001C46.8 43.3001 47 43.1001 47.4 42.9001C47.5 42.9001 47.6 42.8 47.8 42.8C48 42.8 48.2 42.8001 48.2 42.9001C48.2 43.0001 48 43.2001 47.6 43.4001C47.2 43.5001 46.8 43.5001 46.8 43.4001Z" fill="#E7E6E6"/>
<path d="M47.7 42.8C47.5 42.8 47.2 42.9 47 43C47 42.9 46.9 42.7 46.8 42.6C47.1 42.6 47.3 42.6 47.6 42.6L47.7 42.8Z" fill="#BDAEAE"/>
<path d="M51.4 41C51.3 40.9 51.4 40.6 51.5 40.3C51.6 40.2 51.6 40.1 51.7 40C51.8 39.8 52 39.8 52 39.8C52.1 39.9 52 40.2 51.9 40.5C51.8 40.8 51.5 41 51.4 41Z" fill="#E7E6E6"/>
<path d="M51.7 39.9001C51.6 40.1001 51.4 40.3 51.4 40.5C51.3 40.4 51.2 40.4 51 40.3C51.2 40.1 51.4 39.9 51.6 39.8L51.7 39.9001Z" fill="#BDAEAE"/>
<path d="M42.1 37.5C42.2 38 42 38.4 41.7 38.4C41.4 38.5 41.1 38.1 41 37.7C40.9 37.2 41.1 36.8 41.4 36.8C41.7 36.7 42.1 37 42.1 37.5Z" fill="#BDAEAE"/>
<path d="M41.9 37C42 37.5 41.8 37.9001 41.5 37.9001C41.2 38.0001 40.9 37.6001 40.8 37.2001C40.7 36.7001 40.9 36.3 41.2 36.3C41.5 36.3 41.8 36.6 41.9 37Z" fill="#F4ECEC"/>
<path d="M41.1 32.8001C41.5 32.5001 41.9 32.5001 42.1 32.7001C42.3 32.9001 42.2 33.4001 41.8 33.7001C41.4 34.0001 41 34.0001 40.8 33.8001C40.6 33.6001 40.7 33.1001 41.1 32.8001Z" fill="#BDAEAE"/>
<path d="M40.8 32.4C41.2 32.1 41.6 32.1 41.8 32.3C42 32.5 41.9 33 41.5 33.3C41.1 33.6 40.7 33.6 40.5 33.4C40.3 33.1 40.4 32.7 40.8 32.4Z" fill="#F4ECEC"/>
<path d="M44.2 39.6C44.3 39.9 44.1 40.2 43.8 40.2C43.5 40.3 43.2 40.1 43.2 39.8C43.1 39.5 43.3 39.2 43.6 39.2C43.9 39.1 44.2 39.3 44.2 39.6Z" fill="#BDAEAE"/>
<path d="M44.2 39.3C44.3 39.6 44.1 39.9 43.8 39.9C43.5 40 43.2 39.8 43.2 39.5C43.1 39.2 43.3 38.9 43.6 38.9C43.8 38.8 44.1 39 44.2 39.3Z" fill="#F4ECEC"/>
<path d="M46.2 33.2C46.6 33.1 46.9 33.3 47 33.7C47.1 34.1 46.9 34.4 46.5 34.5C46.1 34.6 45.8 34.4 45.7 34C45.6 33.6 45.8 33.3 46.2 33.2Z" fill="#BDAEAE"/>
<path d="M47.1 33.9C46.9 34.2 46.5 34.3 46.2 34.1C45.9 33.9 45.8 33.5 46 33.2C46.2 32.9 46.6 32.8 46.9 33C47.2 33.2 47.3 33.6 47.1 33.9Z" fill="#F4ECEC"/>
<path d="M47 39.7C47 39.9 46.9 40.1 46.7 40.2C46.5 40.2 46.3 40.1 46.2 39.9C46.2 39.7 46.3 39.5 46.5 39.4C46.8 39.3 47 39.4 47 39.7Z" fill="#BDAEAE"/>
<path d="M47 39.4C47 39.6 46.9 39.8 46.7 39.9C46.5 39.9 46.3 39.8 46.2 39.6C46.2 39.4 46.3 39.2 46.5 39.1C46.8 39.1 47 39.2 47 39.4Z" fill="#F4ECEC"/>
<path d="M53 35.5C52.9 35.5 52.7 35.2 52.6 34.9C52.6 34.8 52.6 34.7 52.6 34.5C52.6 34.3 52.6 34.1 52.7 34.1C52.8 34.1 53 34.4 53.1 34.7C53.2 35 53.1 35.5 53 35.5Z" fill="#E7E6E6"/>
<path d="M52.6 34.5C52.6 34.7 52.7 35 52.7 35.2C52.6 35.2 52.4 35.3 52.3 35.3C52.3 35 52.3 34.8 52.4 34.5H52.6Z" fill="#BDAEAE"/>
<path d="M50.8 31.7C50.7 31.8 50.4 31.6 50.2 31.3C50 31.2 50 31.1 49.9 31C49.8 30.8 49.8 30.7 49.8 30.6C49.9 30.5 50.2 30.7 50.4 31C50.7 31.3 50.9 31.6 50.8 31.7Z" fill="#E7E6E6"/>
<path d="M49.9 31C50 31.2 50.2 31.4 50.4 31.5C50.3 31.6 50.2 31.7 50.1 31.8C50 31.6 49.9 31.3 49.8 31.1L49.9 31Z" fill="#BDAEAE"/>
<path d="M48.3 28.5C48.3 28.6 47.9 28.6 47.6 28.5C47.5 28.5 47.4 28.4 47.3 28.4C47.1 28.3 47 28.2 47 28.1C47 28 47.4 28 47.7 28.1C48.1 28.2 48.3 28.4 48.3 28.5Z" fill="#E7E6E6"/>
<path d="M47.3 28.4C47.5 28.5 47.7 28.6 48 28.6C48 28.7 47.9 28.9 47.9 29C47.7 28.9 47.5 28.7 47.3 28.5V28.4Z" fill="#BDAEAE"/>
<path d="M43.9 28.5C43.9 28.6 43.6 28.8 43.3 28.9C43.2 28.9 43.1 28.9 42.9 28.9C42.7 28.9 42.5 28.9 42.5 28.8C42.5 28.7 42.8 28.5 43.1 28.4C43.6 28.3 43.9 28.3 43.9 28.5Z" fill="#E7E6E6"/>
<path d="M43 28.9C43.2 28.9 43.5 28.8 43.7 28.7C43.7 28.8 43.8 29 43.8 29.1C43.5 29.1 43.3 29.1 43.1 29L43 28.9Z" fill="#BDAEAE"/>
<path d="M48.2 38C48.1 38.4 47.7 38.7 47.4 38.6C47.1 38.5 47 38.1 47.1 37.6C47.2 37.2 47.6 36.9 47.9 37C48.2 37.1 48.4 37.6 48.2 38Z" fill="#BDAEAE"/>
<path d="M48.4 37.7C48.3 38.1 47.9 38.4 47.6 38.3C47.3 38.2 47.2 37.8 47.3 37.3C47.4 36.9 47.8 36.6 48.1 36.7C48.4 36.8 48.6 37.3 48.4 37.7Z" fill="#F4ECEC"/>
<path d="M45.3 35.8C45.4 36.3 45.1 36.7 44.6 36.8C44.1 36.9 43.7 36.6 43.6 36.1C43.5 35.6 43.8 35.2 44.3 35.1C44.8 35.1 45.2 35.4 45.3 35.8Z" fill="#BDAEAE"/>
<path d="M45.2 35.4C45.3 35.9 45 36.3 44.5 36.4C44 36.5 43.6 36.2 43.5 35.7C43.4 35.2 43.7 34.8 44.2 34.7C44.7 34.6 45.1 34.9 45.2 35.4Z" fill="#F4ECEC"/>
<path d="M48.2 39.9C48.2 40 48.2 40.1 48 40.3C47.8 40.6 47.5 40.8 47.2 41C47 41.1 46.8 41.3 46.5 41.4C44.7 42.2 42.6 41.9 41 40.8C40.8 40.6 40.6 40.5 40.4 40.3C40.1 40 39.8999 39.8 39.7999 39.4C39.6999 39.2 39.7 39 39.7 39C39.8 38.9 40.2 39.3 40.9 39.7C41.1 39.8 41.3 39.9 41.5 40C41.7 40.1 41.9 40.2 42.2 40.3C43.2 40.7 44.4 40.9 45.5 40.7C45.8 40.7 46 40.6 46.2 40.5C46.4 40.4 46.5999 40.4 46.7999 40.3C47.5999 40.1 48.1 39.8 48.2 39.9Z" fill="#F4F4F4"/>
<path d="M39.3 36.9C39.6 36.9 39.8 37 39.9 37.3C39.9 37.6 39.8 37.8 39.5 37.9C39.2 37.9 39 37.8 38.9 37.5C38.9 37.2 39.1 37 39.3 36.9Z" fill="#F4ECEC"/>
<path d="M56.7 21.8C57.7 21.1 58.7 20.3 59.4 19.3C60.7 19.5 62 19.9 63.2 20.4L63.7 19.4C62.6 18.7 61.6 17.9 60.7 17C61 16.1 61.2 15.1 61.2 14.1C62 13.7 62.8 13.4 63.7 13.4L63.6 12.3C62.8 12.4 61.9 12.3 61.1 12.1C61 11.4 60.8 10.7 60.5 9.99998C60.9 9.09998 63.3 7.29998 63.3 7.29998L62.7 6.39998C61.6 6.99998 60.4 7.49998 59.1 7.79998C58.5 7.09998 57.8 6.49998 57 5.89998C57 4.99998 57.3 4.19998 57.6 3.39998L56.6 2.89998C56.2 3.69998 55.8 4.39998 55.2 4.99998C54.4 4.69998 53.6 4.49998 52.8 4.39998C52.3 3.19998 52 1.89998 51.8 0.599976L50.7 0.699976C50.7 1.99998 50.5 3.19998 50.2 4.49998C49.2 4.69998 48.2 4.99998 47.2 5.49998C46.5 4.99998 46 4.49998 45.5 3.79998L44.6 4.49998C45 5.09998 45.4 5.79998 45.7 6.59998C45 7.09998 44.5 7.79998 44 8.39998C42.8 8.19998 41.6 7.79998 40.5 7.29998L40 8.29998C41 8.89998 42 9.59998 42.9 10.5C42.5 11.5 42.3 12.5 42.3 13.6C41.6 13.9 40.8 14.1 40 14.2L40.1 15.3C40.9 15.2 41.7 15.3 42.4 15.4C42.6 16.7 43.1 18 43.9 19.1C43.3 20.2 42.6 21.3 41.8 22.3L42.6 23C43.5 22.2 44.4 21.5 45.4 20.9C46.4 21.7 47.5 22.4 48.7 22.8C48.7 23.6 48.6 24.4 48.4 25.1L49.5 25.4C49.8 24.6 50.1 23.9 50.6 23.2C51.9 23.4 53.3 23.2 54.5 22.8C55.3 23.8 55.9 24.8 56.5 25.9L57.5 25.4C57 24.4 56.8 23.1 56.7 21.8Z" fill="#F5EEEE"/>
<path d="M55.7 19.7C55.4 19.3 55.9 18.5 56.4 17.3C56.5 17.2 56.5 17 56.6 16.8C56.7 16.6 56.7 16.5 56.8 16.3C56.9 15.9 57 15.6 57 15.2C57.3 13.5 57 11.8 56.1 10.4C55.9 10.1 55.7 9.70001 55.5 9.40001C55.4 9.30001 55.3 9.10001 55.2 9.00001C55.1 8.90001 55 8.70001 54.9 8.60001C54.1 7.60001 53.3 7.00001 53.4 6.60001C53.4 6.50001 53.5 6.40001 53.7 6.30001C53.9 6.20001 54.1 6.20001 54.3 6.20001C55 6.20001 55.7 6.40001 56.3 6.70001C56.5 6.80001 56.7 6.90001 56.9 7.00001C57.1 7.10001 57.3 7.30001 57.5 7.40001C58.4 8.10001 59.2 9.10001 59.7 10.2C60.3 11.4 60.6 12.8 60.4 14.2C60.3 15.4 59.9 16.5 59.3 17.6C59.2 17.8 59 18 58.9 18.2C58.8 18.4 58.6 18.6 58.4 18.7C57.9 19.2 57.3 19.6 56.7 19.9C56.5 20 56.3 20 56.1 20C55.9 19.9 55.7 19.9 55.7 19.7Z" fill="#E4DDDD"/>
<path d="M52.3 0.3C52.3 0.5 51.8 0.7 51.2 0.8C51 0.8 50.8 0.8 50.6 0.8C50.3 0.8 50 0.7 50 0.5C50 0.3 50.5 0.1 51.1 0C51.8 0 52.3 0.0999999 52.3 0.3Z" fill="#C8AFAF"/>
<path d="M50.7 0.800012C51.1 0.800012 51.5 0.800012 51.8 0.700012C51.8 0.900012 51.9 1.10001 51.9 1.40001C51.5 1.40001 51.1 1.30001 50.7 1.10001V0.800012Z" fill="#989191"/>
<path d="M45.8 3.30002C45.9 3.50002 45.6 3.90002 45.1 4.30002C44.9 4.40002 44.8 4.50002 44.6 4.60002C44.3 4.70002 44 4.80002 44 4.70002C43.9 4.50002 44.2 4.10002 44.7 3.70002C45.1 3.30002 45.6 3.10002 45.8 3.30002Z" fill="#C8AFAF"/>
<path d="M44.6 4.49999C44.9 4.29999 45.3 4.09999 45.5 3.79999C45.6 3.99999 45.8 4.19999 45.9 4.29999C45.5 4.49999 45.1 4.59999 44.7 4.59999L44.6 4.49999Z" fill="#989191"/>
<path d="M40.4 6.70001C40.6 6.80001 40.5 7.30001 40.3 7.90001C40.2 8.10001 40.1 8.20001 40 8.40001C39.8 8.70001 39.6 8.80001 39.5 8.80001C39.3 8.70001 39.4 8.20001 39.6 7.60001C39.8 7.00001 40.2 6.60001 40.4 6.70001Z" fill="#C8AFAF"/>
<path d="M40 8.40002C40.2 8.10002 40.4 7.70002 40.4 7.40002C40.6 7.50002 40.8 7.60002 41 7.70002C40.8 8.00002 40.5 8.30003 40.1 8.60003L40 8.40002Z" fill="#989191"/>
<path d="M39.5 13.7C39.7 13.7 39.9 14.2 40 14.8C40 15 40 15.2 40 15.4C40 15.7 39.9 16 39.7 16C39.5 16 39.3 15.5 39.2 14.9C39.2 14.3 39.3 13.7 39.5 13.7Z" fill="#C8AFAF"/>
<path d="M40 15.3C40 14.9 40 14.5 39.9 14.2C40.1 14.2 40.3 14.2 40.6 14.1C40.6 14.5 40.5 14.9 40.3 15.3H40Z" fill="#989191"/>
<path d="M41.1 22.2C41.2 22 41.7 22.2 42.2 22.7C42.3 22.8 42.5 23 42.6 23.1C42.8 23.4 42.9 23.6 42.8 23.7C42.7 23.9 42.2 23.7 41.7 23.2C41.3 22.8 41 22.4 41.1 22.2Z" fill="#C8AFAF"/>
<path d="M42.6 23.1C42.4 22.8 42.1 22.6 41.7 22.4C41.8 22.2 42 22.1 42.1 21.9C42.4 22.2 42.6 22.6 42.7 23L42.6 23.1Z" fill="#989191"/>
<path d="M47.8 25.3C47.9 25.1 48.4 25.1 49 25.3C49.2 25.4 49.4 25.4 49.5 25.5C49.8 25.7 50 25.8 49.9 26C49.8 26.2 49.3 26.2 48.7 26C48.2 25.8 47.7 25.5 47.8 25.3Z" fill="#C8AFAF"/>
<path d="M49.5 25.5C49.2 25.3 48.8 25.2 48.4 25.2C48.5 25 48.5 24.8 48.6 24.5C49 24.7 49.3 24.9 49.6 25.2L49.5 25.5Z" fill="#989191"/>
<path d="M56.1 26.5C56 26.3 56.4 26 57 25.7C57.2 25.6 57.4 25.6 57.5 25.5C57.8 25.4 58.1 25.4 58.1 25.6C58.2 25.8 57.8 26.1 57.2 26.4C56.7 26.7 56.2 26.7 56.1 26.5Z" fill="#C8AFAF"/>
<path d="M57.4 25.5C57 25.6 56.7 25.8 56.4 26C56.3 25.8 56.2 25.6 56.1 25.4C56.5 25.3 56.9 25.3 57.3 25.3L57.4 25.5Z" fill="#989191"/>
<path d="M47.4 13.3C47.1 14 46.5 14.3 46 14.1C45.6 13.9 45.5 13.2 45.8 12.5C46.1 11.8 46.7 11.5 47.2 11.7C47.6 12 47.7 12.7 47.4 13.3Z" fill="#989191"/>
<path d="M47.4 12.5C47.1 13.2 46.5 13.5 46 13.3C45.6 13.1 45.5 12.4 45.8 11.7C46.1 11 46.7 10.7 47.2 10.9C47.6 11.2 47.7 11.9 47.4 12.5Z" fill="#E6D0D0"/>
<path d="M50.4 6.29999C51.1 6.29999 51.7 6.69999 51.8 7.09999C51.8 7.59999 51.2 7.99999 50.5 7.99999C49.8 7.99999 49.2 7.59999 49.1 7.19999C49.1 6.79999 49.7 6.39999 50.4 6.29999Z" fill="#989191"/>
<path d="M50.3 5.59998C51 5.59998 51.6 5.99997 51.7 6.39997C51.7 6.89997 51.1 7.29998 50.4 7.29998C49.7 7.29998 49.1 6.89998 49 6.49998C49 5.99998 49.6 5.59998 50.3 5.59998Z" fill="#E6D0D0"/>
<path d="M48 18.1C47.8 18.5 47.3 18.7 46.8 18.5C46.4 18.3 46.2 17.8 46.4 17.3C46.6 16.9 47.1 16.7 47.6 16.9C48.1 17.1 48.2 17.6 48 18.1Z" fill="#989191"/>
<path d="M48.2 17.6C48 18 47.5 18.2 47 18C46.6 17.8 46.4 17.3 46.6 16.8C46.8 16.4 47.3 16.2 47.8 16.4C48.3 16.7 48.4 17.2 48.2 17.6Z" fill="#E6D0D0"/>
<path d="M56.6 11.6C57.1 11.8 57.4 12.5 57.2 13C57 13.5 56.3 13.8 55.8 13.6C55.3 13.4 55 12.7 55.2 12.2C55.5 11.7 56.1 11.4 56.6 11.6Z" fill="#989191"/>
<path d="M57.1 13.4C56.5 13.6 55.9 13.3 55.7 12.8C55.5 12.2 55.8 11.6 56.3 11.4C56.9 11.2 57.5 11.5 57.7 12C58 12.6 57.7 13.2 57.1 13.4Z" fill="#E6D0D0"/>
<path d="M51.6 20.8C51.4 21.1 51.1 21.2 50.7 21.1C50.4 20.9 50.3 20.6 50.4 20.2C50.6 19.9 50.9 19.8 51.3 19.9C51.7 20.1 51.8 20.5 51.6 20.8Z" fill="#989191"/>
<path d="M51.8 20.5C51.6 20.8 51.3 20.9 50.9 20.8C50.5 20.7 50.5 20.3 50.6 19.9C50.8 19.6 51.1 19.5 51.5 19.6C51.8 19.8 51.9 20.1 51.8 20.5Z" fill="#E6D0D0"/>
<path d="M63.2 21C63 20.9 63.1 20.4 63.3 19.8C63.4 19.6 63.5 19.5 63.6 19.3C63.8 19 64 18.9 64.1 18.9C64.3 19 64.2 19.5 64 20.1C63.7 20.7 63.4 21.1 63.2 21Z" fill="#C8AFAF"/>
<path d="M63.6 19.4C63.4 19.7 63.3 20.1 63.2 20.4C63 20.3 62.8 20.2 62.6 20.1C62.8 19.8 63.1 19.5 63.5 19.2L63.6 19.4Z" fill="#989191"/>
<path d="M63.9 13.9C63.7 13.9 63.5 13.4 63.4 12.8C63.4 12.6 63.4 12.4 63.4 12.2C63.4 11.9 63.5 11.6 63.7 11.6C63.9 11.6 64.1 12.1 64.2 12.7C64.2 13.4 64.1 13.9 63.9 13.9Z" fill="#C8AFAF"/>
<path d="M63.4 12.3C63.4 12.7 63.4 13 63.5 13.4C63.3 13.4 63.1 13.4 62.8 13.5C62.8 13.1 62.9 12.7 63.1 12.3H63.4Z" fill="#989191"/>
<path d="M63.7 7.59998C63.5 7.69998 63.1 7.39998 62.8 6.89998C62.7 6.69998 62.6 6.59998 62.5 6.39998C62.4 6.09998 62.3 5.89998 62.4 5.79998C62.5 5.69998 63 5.99998 63.3 6.49998C63.7 6.99998 63.8 7.49998 63.7 7.59998Z" fill="#C8AFAF"/>
<path d="M62.5 6.5C62.7 6.8 62.9 7.1 63.2 7.4C63 7.5 62.9 7.7 62.7 7.8C62.5 7.4 62.4 7 62.4 6.6L62.5 6.5Z" fill="#989191"/>
<path d="M58.1 3.40001C58 3.60001 57.5 3.50001 56.9 3.30001C56.7 3.20001 56.6 3.10001 56.4 3.00001C56.1 2.80001 56 2.60001 56 2.50001C56.1 2.30001 56.6 2.40001 57.2 2.60001C57.8 2.90001 58.2 3.30001 58.1 3.40001Z" fill="#C8AFAF"/>
<path d="M56.5 3.09998C56.8 3.29998 57.1 3.49998 57.5 3.49998C57.4 3.69998 57.3 3.89998 57.2 4.09998C56.9 3.89998 56.6 3.59998 56.3 3.29998L56.5 3.09998Z" fill="#989191"/>
<path d="M54.7 19.8C54.1 20.2 53.4 20.3 53.1 19.9C52.8 19.5 53.1 18.8 53.6 18.4C54.2 18 54.9 17.9 55.2 18.3C55.6 18.7 55.3 19.3 54.7 19.8Z" fill="#989191"/>
<path d="M55.2 19.6C54.6 20 53.9 20.1 53.6 19.7C53.3 19.3 53.6 18.6 54.1 18.2C54.7 17.8 55.4 17.7 55.7 18.1C56.1 18.5 55.8 19.2 55.2 19.6Z" fill="#E6D0D0"/>
<path d="M52.9 14.2C52.6 14.9 51.8 15.1 51.1 14.8C50.4 14.5 50.2 13.7 50.5 13C50.8 12.3 51.6 12.1 52.3 12.4C53 12.8 53.3 13.6 52.9 14.2Z" fill="#989191"/>
<path d="M53.3 13.5C53 14.2 52.2 14.4 51.5 14.1C50.8 13.8 50.6 13 50.9 12.3C51.2 11.6 52 11.4 52.7 11.7C53.3 12.1 53.6 12.9 53.3 13.5Z" fill="#E6D0D0"/>
<path d="M52.9 22.2C52.9 22.3 52.7 22.4 52.3 22.6C51.7 22.7 51.2 22.8 50.6 22.7C50.2 22.7 49.8 22.6 49.4 22.5C46.3 21.8 43.9 19.5 42.9 16.5C42.8 16.1 42.7 15.7 42.6 15.3C42.5 14.7 42.5 14.1 42.6 13.6C42.7 13.2 42.8 13 42.9 13C43.1 13 43.3 13.8 43.8 15C43.9 15.3 44.1 15.6 44.2 16C44.4 16.3 44.5 16.7 44.8 17C45.7 18.5 47.1 19.8 48.7 20.6C49.1 20.8 49.4 20.9 49.8 21.1C50.1 21.2 50.5 21.4 50.8 21.4C52 21.9 52.9 22 52.9 22.2Z" fill="#E4DDDD"/>
<path d="M44.3 9.99998C44.7 10.2 44.9 10.7 44.7 11.1C44.5 11.5 44 11.7 43.6 11.5C43.2 11.3 43 10.9 43.2 10.5C43.4 9.99998 43.9 9.79998 44.3 9.99998Z" fill="#E6D0D0"/>
</svg>
